<?xml version="1.0" encoding="UTF-8" standalone="no"?>
<svg width="463.903mm" height="84.6667mm"
 xmlns="http://www.w3.org/2000/svg" xmlns:xlink="http://www.w3.org/1999/xlink"  version="1.2" baseProfile="tiny">
<title>Qt SVG Document</title>
<desc>Generated with Qt</desc>
<defs>
</defs>
<g fill="none" stroke="black" stroke-width="1" fill-rule="evenodd" stroke-linecap="square" stroke-linejoin="bevel" >

<g fill="none" stroke="#000000" stroke-opacity="1" stroke-width="1" stroke-linecap="square" stroke-linejoin="bevel" transform="matrix(1,0,0,1,0,0)"
font-family="Ubuntu" font-size="10" font-weight="400" font-style="normal" 
>
</g>

<g fill="none" stroke="#000000" stroke-opacity="1" stroke-width="1" stroke-linecap="square" stroke-linejoin="bevel" transform="matrix(1,0,0,1,0,0)"
font-family="Ubuntu" font-size="10" font-weight="400" font-style="normal" 
>
</g>

<g fill="none" stroke="#000000" stroke-opacity="1" stroke-width="1" stroke-linecap="square" stroke-linejoin="bevel" transform="matrix(2,0,0,2,-0.0004,240)"
font-family="Ubuntu" font-size="10" font-weight="400" font-style="normal" 
>
</g>

<g fill="#ffffff" fill-opacity="1" stroke="none" transform="matrix(2,0,0,2,-0.0004,240)"
font-family="Ubuntu" font-size="10" font-weight="400" font-style="normal" 
>
<rect x="0.0002" y="-120" width="657.264" height="120"/>
</g>

<g fill="none" stroke="#000000" stroke-opacity="1" stroke-width="1" stroke-linecap="square" stroke-linejoin="bevel" transform="matrix(2,0,0,2,-0.0004,240)"
font-family="Ubuntu" font-size="10" font-weight="400" font-style="normal" 
>
</g>

<g fill="none" stroke="#000000" stroke-opacity="1" stroke-width="1" stroke-linecap="square" stroke-linejoin="bevel" transform="matrix(2,0,0,2,-0.0004,240)"
font-family="Ubuntu" font-size="10" font-weight="400" font-style="normal" 
>
</g>

<g fill="none" stroke="#000000" stroke-opacity="1" stroke-width="1" stroke-linecap="square" stroke-linejoin="bevel" transform="matrix(2,0,0,2,-0.0004,240)"
font-family="Ubuntu" font-size="10" font-weight="400" font-style="normal" 
>
</g>

<g fill="none" stroke="#000000" stroke-opacity="1" stroke-width="1" stroke-linecap="square" stroke-linejoin="bevel" transform="matrix(2,0,0,2,-0.0004,240)"
font-family="Ubuntu" font-size="10" font-weight="400" font-style="normal" 
>
</g>

<g fill="none" stroke="#000000" stroke-opacity="1" stroke-width="1" stroke-linecap="square" stroke-linejoin="round" transform="matrix(2,0,0,2,-0.0004,240)"
font-family="Ubuntu" font-size="10" font-weight="400" font-style="normal" 
>
<rect x="130.19" y="-35.5" width="59.9998" height="35"/>
</g>

<g fill="none" stroke="#000000" stroke-opacity="1" stroke-width="1" stroke-linecap="square" stroke-linejoin="bevel" transform="matrix(2,0,0,2,-0.0004,240)"
font-family="Ubuntu" font-size="10" font-weight="400" font-style="normal" 
>
</g>

<g fill="none" stroke="#000000" stroke-opacity="1" stroke-width="1" stroke-linecap="square" stroke-linejoin="bevel" transform="matrix(2,0,0,2,287.708,188)"
font-family="Ubuntu" font-size="10" font-weight="400" font-style="normal" 
>
</g>

<g fill="none" stroke="#000000" stroke-opacity="1" stroke-width="1" stroke-linecap="square" stroke-linejoin="bevel" transform="matrix(2,0,0,2,287.708,188)"
font-family="sans" font-size="11" font-weight="100" font-style="normal" 
>
</g>

<g fill="#000000" fill-opacity="1" stroke="#000000" stroke-opacity="1" stroke-width="1" stroke-linecap="square" stroke-linejoin="round" transform="matrix(2,0,0,2,287.708,188)"
font-family="sans" font-size="11" font-weight="100" font-style="normal" 
>
<path vector-effect="none" fill-rule="nonzero" d="M3.98438,4.14063 L1.0625,12 L0.109375,12 L3.03125,4.14063 L3.98438,4.14063 M6.40625,8.98438 L4.375,6.10938 L5.46875,6.10938 L7,8.32813 L8.5,6.10938 L9.59375,6.10938 L7.54688,8.98438 L9.70313,12 L8.59375,12 L7,9.64063 L5.35938,12 L4.28125,12 L6.40625,8.98438 M11.7969,6.09375 C11.7969,6.38542 11.776,6.66146 11.7344,6.92188 L11.8125,6.92188 C12,6.61979 12.2552,6.39063 12.5781,6.23438 C12.901,6.07813 13.2552,6 13.6406,6 C14.3594,6 14.8984,6.17188 15.2578,6.51563 C15.6172,6.85938 15.7969,7.40625 15.7969,8.15625 L15.7969,12 L14.8438,12 L14.8438,8.21875 C14.8438,7.28125 14.401,6.8125 13.5156,6.8125 C12.8594,6.8125 12.4089,6.9974 12.1641,7.36719 C11.9193,7.73698 11.7969,8.26563 11.7969,8.95313 L11.7969,12 L10.8281,12 L10.8281,3.64063 L11.7969,3.64063 L11.7969,6.09375 M19.8594,6 C20.5781,6 21.1094,6.15885 21.4531,6.47656 C21.7969,6.79427 21.9688,7.29688 21.9688,7.98438 L21.9688,12 L21.2656,12 L21.0781,11.1563 L21.0313,11.1563 C20.7708,11.4792 20.5,11.7188 20.2188,11.875 C19.9375,12.0313 19.5469,12.1094 19.0469,12.1094 C18.5156,12.1094 18.0729,11.9688 17.7188,11.6875 C17.3646,11.4063 17.1875,10.9635 17.1875,10.3594 C17.1875,9.77604 17.4193,9.32552 17.8828,9.00781 C18.3464,8.6901 19.0573,8.51563 20.0156,8.48438 L21.0156,8.45313 L21.0156,8.09375 C21.0156,7.60417 20.9115,7.26302 20.7031,7.07031 C20.4948,6.8776 20.1927,6.78125 19.7969,6.78125 C19.4948,6.78125 19.2031,6.82813 18.9219,6.92188 C18.6406,7.01563 18.3802,7.11979 18.1406,7.23438 L17.8438,6.51563 C18.1042,6.36979 18.4089,6.2474 18.7578,6.14844 C19.1068,6.04948 19.474,6 19.8594,6 M20.1406,9.15625 C19.4115,9.17708 18.9036,9.29167 18.6172,9.5 C18.3307,9.70833 18.1875,10 18.1875,10.375 C18.1875,10.6979 18.2891,10.9375 18.4922,11.0938 C18.6953,11.25 18.9531,11.3281 19.2656,11.3281 C19.7656,11.3281 20.1823,11.1901 20.5156,10.9141 C20.849,10.638 21.0156,10.2135 21.0156,9.64063 L21.0156,9.125 L20.1406,9.15625 M25.75,11.3125 C25.8958,11.3125 26.0469,11.2995 26.2031,11.2734 C26.3594,11.2474 26.4844,11.224 26.5781,11.2031 L26.5781,11.9375 C26.474,11.9896 26.3255,12.0313 26.1328,12.0625 C25.9401,12.0938 25.7552,12.1094 25.5781,12.1094 C25.276,12.1094 24.9948,12.0573 24.7344,11.9531 C24.474,11.849 24.263,11.6641 24.1016,11.3984 C23.9401,11.1328 23.8594,10.7604 23.8594,10.2813 L23.8594,6.84375 L23.0156,6.84375 L23.0156,6.39063 L23.8594,6 L24.25,4.75 L24.8281,4.75 L24.8281,6.10938 L26.5313,6.10938 L26.5313,6.84375 L24.8281,6.84375 L24.8281,10.2656 C24.8281,10.6198 24.9141,10.8828 25.0859,11.0547 C25.2578,11.2266 25.4792,11.3125 25.75,11.3125 M28.7031,8 C28.7031,8.125 28.6979,8.28125 28.6875,8.46875 C28.6771,8.65625 28.6667,8.82292 28.6563,8.96875 L28.7031,8.96875 C28.7448,8.90625 28.8099,8.82031 28.8984,8.71094 C28.987,8.60156 29.0781,8.48958 29.1719,8.375 C29.2656,8.26042 29.3438,8.16667 29.4063,8.09375 L31.2969,6.10938 L32.4219,6.10938 L30.0313,8.625 L32.5938,12 L31.4219,12 L29.375,9.25 L28.7031,9.82813 L28.7031,12 L27.75,12 L27.75,3.64063 L28.7031,3.64063 L28.7031,8"/>
</g>

<g fill="none" stroke="#000000" stroke-opacity="1" stroke-width="1" stroke-linecap="square" stroke-linejoin="bevel" transform="matrix(2,0,0,2,287.708,188)"
font-family="sans" font-size="11" font-weight="100" font-style="normal" 
>
</g>

<g fill="none" stroke="#000000" stroke-opacity="1" stroke-width="1" stroke-linecap="square" stroke-linejoin="bevel" transform="matrix(2,0,0,2,287.708,188)"
font-family="Ubuntu" font-size="10" font-weight="400" font-style="normal" 
>
</g>

<g fill="none" stroke="#000000" stroke-opacity="1" stroke-width="1" stroke-linecap="square" stroke-linejoin="bevel" transform="matrix(2,0,0,2,-0.0004,240)"
font-family="Ubuntu" font-size="10" font-weight="400" font-style="normal" 
>
</g>

<g fill="none" stroke="#000000" stroke-opacity="1" stroke-width="1" stroke-linecap="square" stroke-linejoin="bevel" transform="matrix(2,0,0,2,-0.0004,240)"
font-family="Ubuntu" font-size="10" font-weight="400" font-style="normal" 
>
</g>

<g fill="none" stroke="#000000" stroke-opacity="1" stroke-width="1" stroke-linecap="square" stroke-linejoin="bevel" transform="matrix(2,0,0,2,-0.0004,240)"
font-family="Ubuntu" font-size="10" font-weight="400" font-style="normal" 
>
</g>

<g fill="none" stroke="#000000" stroke-opacity="1" stroke-width="1" stroke-linecap="square" stroke-linejoin="round" transform="matrix(2,0,0,2,-0.0004,240)"
font-family="Ubuntu" font-size="10" font-weight="400" font-style="normal" 
>
<ellipse cx="263.83" cy="-68" rx="58.6444" ry="17.5"/>
</g>

<g fill="none" stroke="#000000" stroke-opacity="1" stroke-width="1" stroke-linecap="square" stroke-linejoin="bevel" transform="matrix(2,0,0,2,-0.0004,240)"
font-family="Ubuntu" font-size="10" font-weight="400" font-style="normal" 
>
</g>

<g fill="none" stroke="#000000" stroke-opacity="1" stroke-width="1" stroke-linecap="square" stroke-linejoin="bevel" transform="matrix(2,0,0,2,473.566,88)"
font-family="Ubuntu" font-size="10" font-weight="400" font-style="normal" 
>
</g>

<g fill="none" stroke="#000000" stroke-opacity="1" stroke-width="1" stroke-linecap="square" stroke-linejoin="bevel" transform="matrix(2,0,0,2,473.566,88)"
font-family="sans" font-size="11" font-weight="100" font-style="normal" 
>
</g>

<g fill="#000000" fill-opacity="1" stroke="#000000" stroke-opacity="1" stroke-width="1" stroke-linecap="square" stroke-linejoin="round" transform="matrix(2,0,0,2,473.566,88)"
font-family="sans" font-size="11" font-weight="100" font-style="normal" 
>
<path vector-effect="none" fill-rule="nonzero" d="M3.98438,4.14063 L1.0625,12 L0.109375,12 L3.03125,4.14063 L3.98438,4.14063 M7.375,12.1094 C6.85417,12.1094 6.39063,12.0026 5.98438,11.7891 C5.57813,11.5755 5.26042,11.2448 5.03125,10.7969 C4.80208,10.349 4.6875,9.77604 4.6875,9.07813 C4.6875,8.35938 4.80729,7.77083 5.04688,7.3125 C5.28646,6.85417 5.61458,6.52083 6.03125,6.3125 C6.44792,6.10417 6.91667,6 7.4375,6 C7.73958,6 8.03125,6.03125 8.3125,6.09375 C8.59375,6.15625 8.82292,6.22917 9,6.3125 L8.70313,7.10938 C8.52604,7.04688 8.32031,6.98698 8.08594,6.92969 C7.85156,6.8724 7.63021,6.84375 7.42188,6.84375 C6.26563,6.84375 5.6875,7.58854 5.6875,9.07813 C5.6875,9.78646 5.82813,10.3307 6.10938,10.7109 C6.39063,11.0911 6.8125,11.2813 7.375,11.2813 C7.69792,11.2813 7.98177,11.2474 8.22656,11.1797 C8.47135,11.112 8.69271,11.0313 8.89063,10.9375 L8.89063,11.7969 C8.69271,11.8906 8.47656,11.9661 8.24219,12.0234 C8.00781,12.0807 7.71875,12.1094 7.375,12.1094 M15.4063,9.04688 C15.4063,10.0156 15.1589,10.7682 14.6641,11.3047 C14.1693,11.8411 13.5,12.1094 12.6563,12.1094 C12.1354,12.1094 11.6719,11.9896 11.2656,11.75 C10.8594,11.5104 10.5391,11.1615 10.3047,10.7031 C10.0703,10.2448 9.95313,9.69271 9.95313,9.04688 C9.95313,8.06771 10.1979,7.3151 10.6875,6.78906 C11.1771,6.26302 11.8438,6 12.6875,6 C13.2188,6 13.6901,6.11719 14.1016,6.35156 C14.513,6.58594 14.8333,6.92969 15.0625,7.38281 C15.2917,7.83594 15.4063,8.39063 15.4063,9.04688 M10.9531,9.04688 C10.9531,9.73438 11.0911,10.2839 11.3672,10.6953 C11.6432,11.1068 12.0781,11.3125 12.6719,11.3125 C13.2656,11.3125 13.7031,11.1068 13.9844,10.6953 C14.2656,10.2839 14.4063,9.73438 14.4063,9.04688 C14.4063,8.34896 14.2656,7.80208 13.9844,7.40625 C13.7031,7.01042 13.2656,6.8125 12.6719,6.8125 C12.0677,6.8125 11.6302,7.01042 11.3594,7.40625 C11.0885,7.80208 10.9531,8.34896 10.9531,9.04688 M19.7656,6 C20.4635,6 20.9922,6.16927 21.3516,6.50781 C21.7109,6.84635 21.8906,7.39583 21.8906,8.15625 L21.8906,12 L20.9375,12 L20.9375,8.21875 C20.9375,7.28125 20.4948,6.8125 19.6094,6.8125 C18.9635,6.8125 18.5156,6.99479 18.2656,7.35938 C18.0156,7.72396 17.8906,8.25 17.8906,8.9375 L17.8906,12 L16.9219,12 L16.9219,6.10938 L17.7031,6.10938 L17.8438,6.90625 L17.9063,6.90625 C18.0938,6.59375 18.3568,6.36458 18.6953,6.21875 C19.0339,6.07292 19.3906,6 19.7656,6 M25.6875,11.3125 C25.8333,11.3125 25.9844,11.2995 26.1406,11.2734 C26.2969,11.2474 26.4219,11.224 26.5156,11.2031 L26.5156,11.9375 C26.4115,11.9896 26.263,12.0313 26.0703,12.0625 C25.8776,12.0938 25.6927,12.1094 25.5156,12.1094 C25.2135,12.1094 24.9323,12.0573 24.6719,11.9531 C24.4115,11.849 24.2005,11.6641 24.0391,11.3984 C23.8776,11.1328 23.7969,10.7604 23.7969,10.2813 L23.7969,6.84375 L22.9531,6.84375 L22.9531,6.39063 L23.7969,6 L24.1875,4.75 L24.7656,4.75 L24.7656,6.10938 L26.4688,6.10938 L26.4688,6.84375 L24.7656,6.84375 L24.7656,10.2656 C24.7656,10.6198 24.8516,10.8828 25.0234,11.0547 C25.1953,11.2266 25.4167,11.3125 25.6875,11.3125 M30.4375,6 C30.5417,6 30.6589,6.00521 30.7891,6.01563 C30.9193,6.02604 31.0313,6.04167 31.125,6.0625 L31,6.95313 C30.9063,6.93229 30.8047,6.91406 30.6953,6.89844 C30.5859,6.88281 30.4792,6.875 30.375,6.875 C30.0729,6.875 29.7891,6.95833 29.5234,7.125 C29.2578,7.29167 29.0469,7.52344 28.8906,7.82031 C28.7344,8.11719 28.6563,8.46354 28.6563,8.85938 L28.6563,12 L27.6875,12 L27.6875,6.10938 L28.4844,6.10938 L28.5938,7.1875 L28.625,7.1875 C28.8229,6.86458 29.0703,6.58594 29.3672,6.35156 C29.6641,6.11719 30.0208,6 30.4375,6 M37.125,9.04688 C37.125,10.0156 36.8776,10.7682 36.3828,11.3047 C35.888,11.8411 35.2188,12.1094 34.375,12.1094 C33.8542,12.1094 33.3906,11.9896 32.9844,11.75 C32.5781,11.5104 32.2578,11.1615 32.0234,10.7031 C31.7891,10.2448 31.6719,9.69271 31.6719,9.04688 C31.6719,8.06771 31.9167,7.3151 32.4063,6.78906 C32.8958,6.26302 33.5625,6 34.4063,6 C34.9375,6 35.4089,6.11719 35.8203,6.35156 C36.2318,6.58594 36.5521,6.92969 36.7813,7.38281 C37.0104,7.83594 37.125,8.39063 37.125,9.04688 M32.6719,9.04688 C32.6719,9.73438 32.8099,10.2839 33.0859,10.6953 C33.362,11.1068 33.7969,11.3125 34.3906,11.3125 C34.9844,11.3125 35.4219,11.1068 35.7031,10.6953 C35.9844,10.2839 36.125,9.73438 36.125,9.04688 C36.125,8.34896 35.9844,7.80208 35.7031,7.40625 C35.4219,7.01042 34.9844,6.8125 34.3906,6.8125 C33.7865,6.8125 33.349,7.01042 33.0781,7.40625 C32.8073,7.80208 32.6719,8.34896 32.6719,9.04688 M39.6094,12 L38.6406,12 L38.6406,3.64063 L39.6094,3.64063 L39.6094,12 M42.4375,12 L41.4688,12 L41.4688,3.64063 L42.4375,3.64063 L42.4375,12 M46.5781,6 C47.0781,6 47.5104,6.10938 47.875,6.32813 C48.2396,6.54688 48.5182,6.85677 48.7109,7.25781 C48.9036,7.65885 49,8.125 49,8.65625 L49,9.23438 L44.9688,9.23438 C44.9792,9.90104 45.1484,10.4089 45.4766,10.7578 C45.8047,11.1068 46.2604,11.2813 46.8438,11.2813 C47.2188,11.2813 47.5521,11.2474 47.8438,11.1797 C48.1354,11.112 48.4323,11.0104 48.7344,10.875 L48.7344,11.7188 C48.4323,11.8542 48.1354,11.9531 47.8438,12.0156 C47.5521,12.0781 47.2031,12.1094 46.7969,12.1094 C46.2448,12.1094 45.7526,11.9948 45.3203,11.7656 C44.888,11.5365 44.5547,11.1979 44.3203,10.75 C44.0859,10.3021 43.9688,9.75 43.9688,9.09375 C43.9688,8.44792 44.0755,7.89323 44.2891,7.42969 C44.5026,6.96615 44.8073,6.61198 45.2031,6.36719 C45.599,6.1224 46.0573,6 46.5781,6 M46.5625,6.78125 C46.1042,6.78125 45.7396,6.92969 45.4688,7.22656 C45.1979,7.52344 45.0365,7.9375 44.9844,8.46875 L47.9844,8.46875 C47.9844,7.96875 47.8698,7.5625 47.6406,7.25 C47.4115,6.9375 47.0521,6.78125 46.5625,6.78125 M53.25,6 C53.3542,6 53.4714,6.00521 53.6016,6.01563 C53.7318,6.02604 53.8438,6.04167 53.9375,6.0625 L53.8125,6.95313 C53.7188,6.93229 53.6172,6.91406 53.5078,6.89844 C53.3984,6.88281 53.2917,6.875 53.1875,6.875 C52.8854,6.875 52.6016,6.95833 52.3359,7.125 C52.0703,7.29167 51.8594,7.52344 51.7031,7.82031 C51.5469,8.11719 51.4688,8.46354 51.4688,8.85938 L51.4688,12 L50.5,12 L50.5,6.10938 L51.2969,6.10938 L51.4063,7.1875 L51.4375,7.1875 C51.6354,6.86458 51.8828,6.58594 52.1797,6.35156 C52.4766,6.11719 52.8333,6 53.25,6 "/>
</g>

<g fill="none" stroke="#000000" stroke-opacity="1" stroke-width="1" stroke-linecap="square" stroke-linejoin="bevel" transform="matrix(2,0,0,2,473.566,88)"
font-family="sans" font-size="11" font-weight="100" font-style="normal" 
>
</g>

<g fill="none" stroke="#000000" stroke-opacity="1" stroke-width="1" stroke-linecap="square" stroke-linejoin="bevel" transform="matrix(2,0,0,2,473.566,88)"
font-family="Ubuntu" font-size="10" font-weight="400" font-style="normal" 
>
</g>

<g fill="none" stroke="#000000" stroke-opacity="1" stroke-width="1" stroke-linecap="square" stroke-linejoin="bevel" transform="matrix(2,0,0,2,-0.0004,240)"
font-family="Ubuntu" font-size="10" font-weight="400" font-style="normal" 
>
</g>

<g fill="none" stroke="#000000" stroke-opacity="1" stroke-width="1" stroke-linecap="square" stroke-linejoin="bevel" transform="matrix(2,0,0,2,-0.0004,240)"
font-family="Ubuntu" font-size="10" font-weight="400" font-style="normal" 
>
</g>

<g fill="none" stroke="#000000" stroke-opacity="1" stroke-width="1" stroke-linecap="square" stroke-linejoin="bevel" transform="matrix(2,0,0,2,-0.0004,240)"
font-family="Ubuntu" font-size="10" font-weight="400" font-style="normal" 
>
</g>

<g fill="none" stroke="#000000" stroke-opacity="1" stroke-width="1" stroke-linecap="square" stroke-linejoin="round" transform="matrix(2,0,0,2,-0.0004,240)"
font-family="Ubuntu" font-size="10" font-weight="400" font-style="normal" 
>
<rect x="133.69" y="-89.5" width="53" height="35"/>
</g>

<g fill="none" stroke="#000000" stroke-opacity="1" stroke-width="1" stroke-linecap="square" stroke-linejoin="bevel" transform="matrix(2,0,0,2,-0.0004,240)"
font-family="Ubuntu" font-size="10" font-weight="400" font-style="normal" 
>
</g>

<g fill="none" stroke="#000000" stroke-opacity="1" stroke-width="1" stroke-linecap="square" stroke-linejoin="bevel" transform="matrix(2,0,0,2,305.911,80)"
font-family="Ubuntu" font-size="10" font-weight="400" font-style="normal" 
>
</g>

<g fill="none" stroke="#000000" stroke-opacity="1" stroke-width="1" stroke-linecap="square" stroke-linejoin="bevel" transform="matrix(2,0,0,2,305.911,80)"
font-family="sans" font-size="11" font-weight="100" font-style="normal" 
>
</g>

<g fill="#000000" fill-opacity="1" stroke="#000000" stroke-opacity="1" stroke-width="1" stroke-linecap="square" stroke-linejoin="round" transform="matrix(2,0,0,2,305.911,80)"
font-family="sans" font-size="11" font-weight="100" font-style="normal" 
>
<path vector-effect="none" fill-rule="nonzero" d="M3.98438,4.14063 L1.0625,12 L0.109375,12 L3.03125,4.14063 L3.98438,4.14063 M7.76563,6 C7.86979,6 7.98698,6.00521 8.11719,6.01563 C8.2474,6.02604 8.35938,6.04167 8.45313,6.0625 L8.32813,6.95313 C8.23438,6.93229 8.13281,6.91406 8.02344,6.89844 C7.91406,6.88281 7.80729,6.875 7.70313,6.875 C7.40104,6.875 7.11719,6.95833 6.85156,7.125 C6.58594,7.29167 6.375,7.52344 6.21875,7.82031 C6.0625,8.11719 5.98438,8.46354 5.98438,8.85938 L5.98438,12 L5.01563,12 L5.01563,6.10938 L5.8125,6.10938 L5.92188,7.1875 L5.95313,7.1875 C6.15104,6.86458 6.39844,6.58594 6.69531,6.35156 C6.99219,6.11719 7.34896,6 7.76563,6 M10.5,8 C10.5,8.125 10.4948,8.28125 10.4844,8.46875 C10.474,8.65625 10.4635,8.82292 10.4531,8.96875 L10.5,8.96875 C10.5417,8.90625 10.6068,8.82031 10.6953,8.71094 C10.7839,8.60156 10.875,8.48958 10.9688,8.375 C11.0625,8.26042 11.1406,8.16667 11.2031,8.09375 L13.0938,6.10938 L14.2188,6.10938 L11.8281,8.625 L14.3906,12 L13.2188,12 L11.1719,9.25 L10.5,9.82813 L10.5,12 L9.54688,12 L9.54688,3.64063 L10.5,3.64063 L10.5,8"/>
</g>

<g fill="none" stroke="#000000" stroke-opacity="1" stroke-width="1" stroke-linecap="square" stroke-linejoin="bevel" transform="matrix(2,0,0,2,305.911,80)"
font-family="sans" font-size="11" font-weight="100" font-style="normal" 
>
</g>

<g fill="none" stroke="#000000" stroke-opacity="1" stroke-width="1" stroke-linecap="square" stroke-linejoin="bevel" transform="matrix(2,0,0,2,305.911,80)"
font-family="Ubuntu" font-size="10" font-weight="400" font-style="normal" 
>
</g>

<g fill="none" stroke="#000000" stroke-opacity="1" stroke-width="1" stroke-linecap="square" stroke-linejoin="bevel" transform="matrix(2,0,0,2,-0.0004,240)"
font-family="Ubuntu" font-size="10" font-weight="400" font-style="normal" 
>
</g>

<g fill="none" stroke="#000000" stroke-opacity="1" stroke-width="1" stroke-linecap="square" stroke-linejoin="bevel" transform="matrix(2,0,0,2,-0.0004,240)"
font-family="Ubuntu" font-size="10" font-weight="400" font-style="normal" 
>
</g>

<g fill="none" stroke="#000000" stroke-opacity="1" stroke-width="1" stroke-linecap="square" stroke-linejoin="bevel" transform="matrix(2,0,0,2,-0.0004,240)"
font-family="Ubuntu" font-size="10" font-weight="400" font-style="normal" 
>
</g>

<g fill="none" stroke="#000000" stroke-opacity="1" stroke-width="1" stroke-linecap="square" stroke-linejoin="round" transform="matrix(2,0,0,2,-0.0004,240)"
font-family="Ubuntu" font-size="10" font-weight="400" font-style="normal" 
>
<rect x="337.48" y="-85.5" width="53" height="35"/>
</g>

<g fill="none" stroke="#000000" stroke-opacity="1" stroke-width="1" stroke-linecap="square" stroke-linejoin="bevel" transform="matrix(2,0,0,2,-0.0004,240)"
font-family="Ubuntu" font-size="10" font-weight="400" font-style="normal" 
>
</g>

<g fill="none" stroke="#000000" stroke-opacity="1" stroke-width="1" stroke-linecap="square" stroke-linejoin="bevel" transform="matrix(2,0,0,2,711.225,88)"
font-family="Ubuntu" font-size="10" font-weight="400" font-style="normal" 
>
</g>

<g fill="none" stroke="#000000" stroke-opacity="1" stroke-width="1" stroke-linecap="square" stroke-linejoin="bevel" transform="matrix(2,0,0,2,711.225,88)"
font-family="sans" font-size="11" font-weight="100" font-style="normal" 
>
</g>

<g fill="#000000" fill-opacity="1" stroke="#000000" stroke-opacity="1" stroke-width="1" stroke-linecap="square" stroke-linejoin="round" transform="matrix(2,0,0,2,711.225,88)"
font-family="sans" font-size="11" font-weight="100" font-style="normal" 
>
<path vector-effect="none" fill-rule="nonzero" d="M3.98438,4.14063 L1.0625,12 L0.109375,12 L3.03125,4.14063 L3.98438,4.14063 M9.9375,6.10938 L9.9375,12 L9.15625,12 L9,11.2188 L8.96875,11.2188 C8.77083,11.5313 8.50521,11.7578 8.17188,11.8984 C7.83854,12.0391 7.47917,12.1094 7.09375,12.1094 C6.38542,12.1094 5.85156,11.9401 5.49219,11.6016 C5.13281,11.263 4.95313,10.7188 4.95313,9.96875 L4.95313,6.10938 L5.92188,6.10938 L5.92188,9.90625 C5.92188,10.8438 6.35938,11.3125 7.23438,11.3125 C7.89063,11.3125 8.34375,11.1276 8.59375,10.7578 C8.84375,10.388 8.96875,9.85938 8.96875,9.17188 L8.96875,6.10938 L9.9375,6.10938 M12.7656,8 C12.7656,8.125 12.7604,8.28125 12.75,8.46875 C12.7396,8.65625 12.7292,8.82292 12.7188,8.96875 L12.7656,8.96875 C12.8073,8.90625 12.8724,8.82031 12.9609,8.71094 C13.0495,8.60156 13.1406,8.48958 13.2344,8.375 C13.3281,8.26042 13.4063,8.16667 13.4688,8.09375 L15.3594,6.10938 L16.4844,6.10938 L14.0938,8.625 L16.6563,12 L15.4844,12 L13.4375,9.25 L12.7656,9.82813 L12.7656,12 L11.8125,12 L11.8125,3.64063 L12.7656,3.64063 L12.7656,8"/>
</g>

<g fill="none" stroke="#000000" stroke-opacity="1" stroke-width="1" stroke-linecap="square" stroke-linejoin="bevel" transform="matrix(2,0,0,2,711.225,88)"
font-family="sans" font-size="11" font-weight="100" font-style="normal" 
>
</g>

<g fill="none" stroke="#000000" stroke-opacity="1" stroke-width="1" stroke-linecap="square" stroke-linejoin="bevel" transform="matrix(2,0,0,2,711.225,88)"
font-family="Ubuntu" font-size="10" font-weight="400" font-style="normal" 
>
</g>

<g fill="none" stroke="#000000" stroke-opacity="1" stroke-width="1" stroke-linecap="square" stroke-linejoin="bevel" transform="matrix(2,0,0,2,-0.0004,240)"
font-family="Ubuntu" font-size="10" font-weight="400" font-style="normal" 
>
</g>

<g fill="none" stroke="#000000" stroke-opacity="1" stroke-width="1" stroke-linecap="square" stroke-linejoin="bevel" transform="matrix(2,0,0,2,-0.0004,240)"
font-family="Ubuntu" font-size="10" font-weight="400" font-style="normal" 
>
</g>

<g fill="none" stroke="#000000" stroke-opacity="1" stroke-width="1" stroke-linecap="square" stroke-linejoin="bevel" transform="matrix(2,0,0,2,-0.0004,240)"
font-family="Ubuntu" font-size="10" font-weight="400" font-style="normal" 
>
</g>

<g fill="none" stroke="#000000" stroke-opacity="1" stroke-width="1" stroke-linecap="square" stroke-linejoin="round" transform="matrix(2,0,0,2,-0.0004,240)"
font-family="Ubuntu" font-size="10" font-weight="400" font-style="normal" 
>
<ellipse cx="442.68" cy="-102" rx="37.1956" ry="17.5"/>
</g>

<g fill="none" stroke="#000000" stroke-opacity="1" stroke-width="1" stroke-linecap="square" stroke-linejoin="bevel" transform="matrix(2,0,0,2,-0.0004,240)"
font-family="Ubuntu" font-size="10" font-weight="400" font-style="normal" 
>
</g>

<g fill="none" stroke="#000000" stroke-opacity="1" stroke-width="1" stroke-linecap="square" stroke-linejoin="bevel" transform="matrix(2,0,0,2,854.781,20)"
font-family="Ubuntu" font-size="10" font-weight="400" font-style="normal" 
>
</g>

<g fill="none" stroke="#000000" stroke-opacity="1" stroke-width="1" stroke-linecap="square" stroke-linejoin="bevel" transform="matrix(2,0,0,2,854.781,20)"
font-family="sans" font-size="11" font-weight="100" font-style="normal" 
>
</g>

<g fill="#000000" fill-opacity="1" stroke="#000000" stroke-opacity="1" stroke-width="1" stroke-linecap="square" stroke-linejoin="round" transform="matrix(2,0,0,2,854.781,20)"
font-family="sans" font-size="11" font-weight="100" font-style="normal" 
>
<path vector-effect="none" fill-rule="nonzero" d="M3.98438,4.14063 L1.0625,12 L0.109375,12 L3.03125,4.14063 L3.98438,4.14063 M7.8125,6 C8.54167,6 9.1276,6.2526 9.57031,6.75781 C10.013,7.26302 10.2344,8.02604 10.2344,9.04688 C10.2344,10.0469 10.013,10.8073 9.57031,11.3281 C9.1276,11.849 8.54167,12.1094 7.8125,12.1094 C7.35417,12.1094 6.97656,12.0234 6.67969,11.8516 C6.38281,11.6797 6.15104,11.4792 5.98438,11.25 L5.92188,11.25 C5.93229,11.375 5.94531,11.5339 5.96094,11.7266 C5.97656,11.9193 5.98438,12.0833 5.98438,12.2188 L5.98438,14.6406 L5.01563,14.6406 L5.01563,6.10938 L5.8125,6.10938 L5.9375,6.90625 L5.98438,6.90625 C6.16146,6.64583 6.39323,6.42969 6.67969,6.25781 C6.96615,6.08594 7.34375,6 7.8125,6 M7.64063,6.8125 C7.03646,6.8125 6.61198,6.97917 6.36719,7.3125 C6.1224,7.64583 5.99479,8.16146 5.98438,8.85938 L5.98438,9.04688 C5.98438,9.76563 6.10417,10.3229 6.34375,10.7188 C6.58333,11.1146 7.02604,11.3125 7.67188,11.3125 C8.02604,11.3125 8.31771,11.2135 8.54688,11.0156 C8.77604,10.8177 8.94792,10.5469 9.0625,10.2031 C9.17708,9.85938 9.23438,9.46875 9.23438,9.03125 C9.23438,8.35417 9.10417,7.8151 8.84375,7.41406 C8.58333,7.01302 8.18229,6.8125 7.64063,6.8125 M12.7344,12 L11.7656,12 L11.7656,3.64063 L12.7344,3.64063 L12.7344,12 M16.8281,6 C17.5469,6 18.0781,6.15885 18.4219,6.47656 C18.7656,6.79427 18.9375,7.29688 18.9375,7.98438 L18.9375,12 L18.2344,12 L18.0469,11.1563 L18,11.1563 C17.7396,11.4792 17.4688,11.7188 17.1875,11.875 C16.9063,12.0313 16.5156,12.1094 16.0156,12.1094 C15.4844,12.1094 15.0417,11.9688 14.6875,11.6875 C14.3333,11.4063 14.1563,10.9635 14.1563,10.3594 C14.1563,9.77604 14.388,9.32552 14.8516,9.00781 C15.3151,8.6901 16.026,8.51563 16.9844,8.48438 L17.9844,8.45313 L17.9844,8.09375 C17.9844,7.60417 17.8802,7.26302 17.6719,7.07031 C17.4635,6.8776 17.1615,6.78125 16.7656,6.78125 C16.4635,6.78125 16.1719,6.82813 15.8906,6.92188 C15.6094,7.01563 15.349,7.11979 15.1094,7.23438 L14.8125,6.51563 C15.0729,6.36979 15.3776,6.2474 15.7266,6.14844 C16.0755,6.04948 16.4427,6 16.8281,6 M17.1094,9.15625 C16.3802,9.17708 15.8724,9.29167 15.5859,9.5 C15.2995,9.70833 15.1563,10 15.1563,10.375 C15.1563,10.6979 15.2578,10.9375 15.4609,11.0938 C15.6641,11.25 15.9219,11.3281 16.2344,11.3281 C16.7344,11.3281 17.151,11.1901 17.4844,10.9141 C17.8177,10.638 17.9844,10.2135 17.9844,9.64063 L17.9844,9.125 L17.1094,9.15625 M23.5938,6 C24.2917,6 24.8203,6.16927 25.1797,6.50781 C25.5391,6.84635 25.7188,7.39583 25.7188,8.15625 L25.7188,12 L24.7656,12 L24.7656,8.21875 C24.7656,7.28125 24.3229,6.8125 23.4375,6.8125 C22.7917,6.8125 22.3438,6.99479 22.0938,7.35938 C21.8438,7.72396 21.7188,8.25 21.7188,8.9375 L21.7188,12 L20.75,12 L20.75,6.10938 L21.5313,6.10938 L21.6719,6.90625 L21.7344,6.90625 C21.9219,6.59375 22.1849,6.36458 22.5234,6.21875 C22.862,6.07292 23.2188,6 23.5938,6 M29.5156,11.3125 C29.6615,11.3125 29.8125,11.2995 29.9688,11.2734 C30.125,11.2474 30.25,11.224 30.3438,11.2031 L30.3438,11.9375 C30.2396,11.9896 30.0911,12.0313 29.8984,12.0625 C29.7057,12.0938 29.5208,12.1094 29.3438,12.1094 C29.0417,12.1094 28.7604,12.0573 28.5,11.9531 C28.2396,11.849 28.0286,11.6641 27.8672,11.3984 C27.7057,11.1328 27.625,10.7604 27.625,10.2813 L27.625,6.84375 L26.7813,6.84375 L26.7813,6.39063 L27.625,6 L28.0156,4.75 L28.5938,4.75 L28.5938,6.10938 L30.2969,6.10938 L30.2969,6.84375 L28.5938,6.84375 L28.5938,10.2656 C28.5938,10.6198 28.6797,10.8828 28.8516,11.0547 C29.0234,11.2266 29.2448,11.3125 29.5156,11.3125 "/>
</g>

<g fill="none" stroke="#000000" stroke-opacity="1" stroke-width="1" stroke-linecap="square" stroke-linejoin="bevel" transform="matrix(2,0,0,2,854.781,20)"
font-family="sans" font-size="11" font-weight="100" font-style="normal" 
>
</g>

<g fill="none" stroke="#000000" stroke-opacity="1" stroke-width="1" stroke-linecap="square" stroke-linejoin="bevel" transform="matrix(2,0,0,2,854.781,20)"
font-family="Ubuntu" font-size="10" font-weight="400" font-style="normal" 
>
</g>

<g fill="none" stroke="#000000" stroke-opacity="1" stroke-width="1" stroke-linecap="square" stroke-linejoin="bevel" transform="matrix(2,0,0,2,-0.0004,240)"
font-family="Ubuntu" font-size="10" font-weight="400" font-style="normal" 
>
</g>

<g fill="none" stroke="#000000" stroke-opacity="1" stroke-width="1" stroke-linecap="square" stroke-linejoin="bevel" transform="matrix(2,0,0,2,-0.0004,240)"
font-family="Ubuntu" font-size="10" font-weight="400" font-style="normal" 
>
</g>

<g fill="none" stroke="#000000" stroke-opacity="1" stroke-width="1" stroke-linecap="square" stroke-linejoin="bevel" transform="matrix(2,0,0,2,-0.0004,240)"
font-family="Ubuntu" font-size="10" font-weight="400" font-style="normal" 
>
</g>

<g fill="none" stroke="#000000" stroke-opacity="1" stroke-width="1" stroke-linecap="square" stroke-linejoin="round" transform="matrix(2,0,0,2,-0.0004,240)"
font-family="Ubuntu" font-size="10" font-weight="400" font-style="normal" 
>
<ellipse cx="609.82" cy="-56" rx="46.9444" ry="17.5"/>
</g>

<g fill="none" stroke="#000000" stroke-opacity="1" stroke-width="1" stroke-linecap="square" stroke-linejoin="bevel" transform="matrix(2,0,0,2,-0.0004,240)"
font-family="Ubuntu" font-size="10" font-weight="400" font-style="normal" 
>
</g>

<g fill="none" stroke="#000000" stroke-opacity="1" stroke-width="1" stroke-linecap="square" stroke-linejoin="bevel" transform="matrix(2,0,0,2,1177.48,112)"
font-family="Ubuntu" font-size="10" font-weight="400" font-style="normal" 
>
</g>

<g fill="none" stroke="#000000" stroke-opacity="1" stroke-width="1" stroke-linecap="square" stroke-linejoin="bevel" transform="matrix(2,0,0,2,1177.48,112)"
font-family="sans" font-size="11" font-weight="100" font-style="normal" 
>
</g>

<g fill="#000000" fill-opacity="1" stroke="#000000" stroke-opacity="1" stroke-width="1" stroke-linecap="square" stroke-linejoin="round" transform="matrix(2,0,0,2,1177.48,112)"
font-family="sans" font-size="11" font-weight="100" font-style="normal" 
>
<path vector-effect="none" fill-rule="nonzero" d="M3.98438,4.14063 L1.0625,12 L0.109375,12 L3.03125,4.14063 L3.98438,4.14063 M5.96875,8 C5.96875,8.125 5.96354,8.28125 5.95313,8.46875 C5.94271,8.65625 5.93229,8.82292 5.92188,8.96875 L5.96875,8.96875 C6.01042,8.90625 6.07552,8.82031 6.16406,8.71094 C6.2526,8.60156 6.34375,8.48958 6.4375,8.375 C6.53125,8.26042 6.60938,8.16667 6.67188,8.09375 L8.5625,6.10938 L9.6875,6.10938 L7.29688,8.625 L9.85938,12 L8.6875,12 L6.64063,9.25 L5.96875,9.82813 L5.96875,12 L5.01563,12 L5.01563,3.64063 L5.96875,3.64063 L5.96875,8 M13.1094,6 C13.8281,6 14.3594,6.15885 14.7031,6.47656 C15.0469,6.79427 15.2188,7.29688 15.2188,7.98438 L15.2188,12 L14.5156,12 L14.3281,11.1563 L14.2813,11.1563 C14.0208,11.4792 13.75,11.7188 13.4688,11.875 C13.1875,12.0313 12.7969,12.1094 12.2969,12.1094 C11.7656,12.1094 11.3229,11.9688 10.9688,11.6875 C10.6146,11.4063 10.4375,10.9635 10.4375,10.3594 C10.4375,9.77604 10.6693,9.32552 11.1328,9.00781 C11.5964,8.6901 12.3073,8.51563 13.2656,8.48438 L14.2656,8.45313 L14.2656,8.09375 C14.2656,7.60417 14.1615,7.26302 13.9531,7.07031 C13.7448,6.8776 13.4427,6.78125 13.0469,6.78125 C12.7448,6.78125 12.4531,6.82813 12.1719,6.92188 C11.8906,7.01563 11.6302,7.11979 11.3906,7.23438 L11.0938,6.51563 C11.3542,6.36979 11.6589,6.2474 12.0078,6.14844 C12.3568,6.04948 12.724,6 13.1094,6 M13.3906,9.15625 C12.6615,9.17708 12.1536,9.29167 11.8672,9.5 C11.5807,9.70833 11.4375,10 11.4375,10.375 C11.4375,10.6979 11.5391,10.9375 11.7422,11.0938 C11.9453,11.25 12.2031,11.3281 12.5156,11.3281 C13.0156,11.3281 13.4323,11.1901 13.7656,10.9141 C14.099,10.638 14.2656,10.2135 14.2656,9.64063 L14.2656,9.125 L13.3906,9.15625 M18,12 L17.0313,12 L17.0313,3.64063 L18,3.64063 L18,12 M26.3281,6 C26.9948,6 27.4922,6.16927 27.8203,6.50781 C28.1484,6.84635 28.3125,7.39583 28.3125,8.15625 L28.3125,12 L27.3594,12 L27.3594,8.20313 C27.3594,7.27604 26.9583,6.8125 26.1563,6.8125 C25.5833,6.8125 25.1745,6.97656 24.9297,7.30469 C24.6849,7.63281 24.5625,8.11458 24.5625,8.75 L24.5625,12 L23.6094,12 L23.6094,8.20313 C23.6094,7.27604 23.2031,6.8125 22.3906,6.8125 C21.7969,6.8125 21.388,6.99479 21.1641,7.35938 C20.9401,7.72396 20.8281,8.25 20.8281,8.9375 L20.8281,12 L19.8594,12 L19.8594,6.10938 L20.6406,6.10938 L20.7813,6.90625 L20.8438,6.90625 C21.0208,6.59375 21.2656,6.36458 21.5781,6.21875 C21.8906,6.07292 22.224,6 22.5781,6 C23.4948,6 24.0938,6.32813 24.375,6.98438 L24.4375,6.98438 C24.6354,6.65104 24.9036,6.40365 25.2422,6.24219 C25.5807,6.08073 25.9427,6 26.3281,6 M32.375,6 C33.0938,6 33.625,6.15885 33.9688,6.47656 C34.3125,6.79427 34.4844,7.29688 34.4844,7.98438 L34.4844,12 L33.7813,12 L33.5938,11.1563 L33.5469,11.1563 C33.2865,11.4792 33.0156,11.7188 32.7344,11.875 C32.4531,12.0313 32.0625,12.1094 31.5625,12.1094 C31.0313,12.1094 30.5885,11.9688 30.2344,11.6875 C29.8802,11.4063 29.7031,10.9635 29.7031,10.3594 C29.7031,9.77604 29.9349,9.32552 30.3984,9.00781 C30.862,8.6901 31.5729,8.51563 32.5313,8.48438 L33.5313,8.45313 L33.5313,8.09375 C33.5313,7.60417 33.4271,7.26302 33.2188,7.07031 C33.0104,6.8776 32.7083,6.78125 32.3125,6.78125 C32.0104,6.78125 31.7188,6.82813 31.4375,6.92188 C31.1563,7.01563 30.8958,7.11979 30.6563,7.23438 L30.3594,6.51563 C30.6198,6.36979 30.9245,6.2474 31.2734,6.14844 C31.6224,6.04948 31.9896,6 32.375,6 M32.6563,9.15625 C31.9271,9.17708 31.4193,9.29167 31.1328,9.5 C30.8464,9.70833 30.7031,10 30.7031,10.375 C30.7031,10.6979 30.8047,10.9375 31.0078,11.0938 C31.2109,11.25 31.4688,11.3281 31.7813,11.3281 C32.2813,11.3281 32.6979,11.1901 33.0313,10.9141 C33.3646,10.638 33.5313,10.2135 33.5313,9.64063 L33.5313,9.125 L32.6563,9.15625 M39.1406,6 C39.8385,6 40.3672,6.16927 40.7266,6.50781 C41.0859,6.84635 41.2656,7.39583 41.2656,8.15625 L41.2656,12 L40.3125,12 L40.3125,8.21875 C40.3125,7.28125 39.8698,6.8125 38.9844,6.8125 C38.3385,6.8125 37.8906,6.99479 37.6406,7.35938 C37.3906,7.72396 37.2656,8.25 37.2656,8.9375 L37.2656,12 L36.2969,12 L36.2969,6.10938 L37.0781,6.10938 L37.2188,6.90625 L37.2813,6.90625 C37.4688,6.59375 37.7318,6.36458 38.0703,6.21875 C38.4089,6.07292 38.7656,6 39.1406,6 "/>
</g>

<g fill="none" stroke="#000000" stroke-opacity="1" stroke-width="1" stroke-linecap="square" stroke-linejoin="bevel" transform="matrix(2,0,0,2,1177.48,112)"
font-family="sans" font-size="11" font-weight="100" font-style="normal" 
>
</g>

<g fill="none" stroke="#000000" stroke-opacity="1" stroke-width="1" stroke-linecap="square" stroke-linejoin="bevel" transform="matrix(2,0,0,2,1177.48,112)"
font-family="Ubuntu" font-size="10" font-weight="400" font-style="normal" 
>
</g>

<g fill="none" stroke="#000000" stroke-opacity="1" stroke-width="1" stroke-linecap="square" stroke-linejoin="bevel" transform="matrix(2,0,0,2,-0.0004,240)"
font-family="Ubuntu" font-size="10" font-weight="400" font-style="normal" 
>
</g>

<g fill="none" stroke="#000000" stroke-opacity="1" stroke-width="1" stroke-linecap="square" stroke-linejoin="bevel" transform="matrix(2,0,0,2,-0.0004,240)"
font-family="Ubuntu" font-size="10" font-weight="400" font-style="normal" 
>
</g>

<g fill="none" stroke="#000000" stroke-opacity="1" stroke-width="1" stroke-linecap="square" stroke-linejoin="bevel" transform="matrix(2,0,0,2,-0.0004,240)"
font-family="Ubuntu" font-size="10" font-weight="400" font-style="normal" 
>
</g>

<g fill="none" stroke="#000000" stroke-opacity="1" stroke-width="1" stroke-linecap="square" stroke-linejoin="round" transform="matrix(2,0,0,2,-0.0004,240)"
font-family="Ubuntu" font-size="10" font-weight="400" font-style="normal" 
>
<rect x="494.87" y="-119.5" width="53" height="35"/>
</g>

<g fill="none" stroke="#000000" stroke-opacity="1" stroke-width="1" stroke-linecap="square" stroke-linejoin="bevel" transform="matrix(2,0,0,2,-0.0004,240)"
font-family="Ubuntu" font-size="10" font-weight="400" font-style="normal" 
>
</g>

<g fill="none" stroke="#000000" stroke-opacity="1" stroke-width="1" stroke-linecap="square" stroke-linejoin="bevel" transform="matrix(2,0,0,2,1027.19,20)"
font-family="Ubuntu" font-size="10" font-weight="400" font-style="normal" 
>
</g>

<g fill="none" stroke="#000000" stroke-opacity="1" stroke-width="1" stroke-linecap="square" stroke-linejoin="bevel" transform="matrix(2,0,0,2,1027.19,20)"
font-family="sans" font-size="11" font-weight="100" font-style="normal" 
>
</g>

<g fill="#000000" fill-opacity="1" stroke="#000000" stroke-opacity="1" stroke-width="1" stroke-linecap="square" stroke-linejoin="round" transform="matrix(2,0,0,2,1027.19,20)"
font-family="sans" font-size="11" font-weight="100" font-style="normal" 
>
<path vector-effect="none" fill-rule="nonzero" d="M3.98438,4.14063 L1.0625,12 L0.109375,12 L3.03125,4.14063 L3.98438,4.14063 M4.09375,6.10938 L5.125,6.10938 L6.40625,9.45313 C6.51042,9.75521 6.60677,10.0391 6.69531,10.3047 C6.78385,10.5703 6.84896,10.8229 6.89063,11.0625 L6.9375,11.0625 C6.97917,10.8854 7.04948,10.6484 7.14844,10.3516 C7.2474,10.0547 7.34375,9.75521 7.4375,9.45313 L8.64063,6.10938 L9.6875,6.10938 L7.14063,12.8125 C6.94271,13.375 6.67969,13.8203 6.35156,14.1484 C6.02344,14.4766 5.57292,14.6406 5,14.6406 C4.82292,14.6406 4.66927,14.6302 4.53906,14.6094 C4.40885,14.5885 4.29688,14.5677 4.20313,14.5469 L4.20313,13.7813 C4.27604,13.7917 4.36979,13.8047 4.48438,13.8203 C4.59896,13.8359 4.71875,13.8438 4.84375,13.8438 C5.1875,13.8438 5.46354,13.75 5.67188,13.5625 C5.88021,13.375 6.04167,13.1198 6.15625,12.7969 L6.46875,12.0156 L4.09375,6.10938 M11.5781,8 C11.5781,8.125 11.5729,8.28125 11.5625,8.46875 C11.5521,8.65625 11.5417,8.82292 11.5313,8.96875 L11.5781,8.96875 C11.6198,8.90625 11.6849,8.82031 11.7734,8.71094 C11.862,8.60156 11.9531,8.48958 12.0469,8.375 C12.1406,8.26042 12.2188,8.16667 12.2813,8.09375 L14.1719,6.10938 L15.2969,6.10938 L12.9063,8.625 L15.4688,12 L14.2969,12 L12.25,9.25 L11.5781,9.82813 L11.5781,12 L10.625,12 L10.625,3.64063 L11.5781,3.64063 L11.5781,8"/>
</g>

<g fill="none" stroke="#000000" stroke-opacity="1" stroke-width="1" stroke-linecap="square" stroke-linejoin="bevel" transform="matrix(2,0,0,2,1027.19,20)"
font-family="sans" font-size="11" font-weight="100" font-style="normal" 
>
</g>

<g fill="none" stroke="#000000" stroke-opacity="1" stroke-width="1" stroke-linecap="square" stroke-linejoin="bevel" transform="matrix(2,0,0,2,1027.19,20)"
font-family="Ubuntu" font-size="10" font-weight="400" font-style="normal" 
>
</g>

<g fill="none" stroke="#000000" stroke-opacity="1" stroke-width="1" stroke-linecap="square" stroke-linejoin="bevel" transform="matrix(2,0,0,2,-0.0004,240)"
font-family="Ubuntu" font-size="10" font-weight="400" font-style="normal" 
>
</g>

<g fill="none" stroke="#000000" stroke-opacity="1" stroke-width="1" stroke-linecap="square" stroke-linejoin="bevel" transform="matrix(2,0,0,2,-0.0004,240)"
font-family="Ubuntu" font-size="10" font-weight="400" font-style="normal" 
>
</g>

<g fill="none" stroke="#000000" stroke-opacity="1" stroke-width="1" stroke-linecap="square" stroke-linejoin="bevel" transform="matrix(2,0,0,2,-0.0004,240)"
font-family="Ubuntu" font-size="10" font-weight="400" font-style="normal" 
>
</g>

<g fill="none" stroke="#000000" stroke-opacity="1" stroke-width="1" stroke-linecap="square" stroke-linejoin="round" transform="matrix(2,0,0,2,-0.0004,240)"
font-family="Ubuntu" font-size="10" font-weight="400" font-style="normal" 
>
<ellipse cx="57.845" cy="-72" rx="57.3448" ry="17.5"/>
</g>

<g fill="none" stroke="#000000" stroke-opacity="1" stroke-width="1" stroke-linecap="square" stroke-linejoin="bevel" transform="matrix(2,0,0,2,-0.0004,240)"
font-family="Ubuntu" font-size="10" font-weight="400" font-style="normal" 
>
</g>

<g fill="none" stroke="#000000" stroke-opacity="1" stroke-width="1" stroke-linecap="square" stroke-linejoin="bevel" transform="matrix(2,0,0,2,62.3302,80)"
font-family="Ubuntu" font-size="10" font-weight="400" font-style="normal" 
>
</g>

<g fill="none" stroke="#000000" stroke-opacity="1" stroke-width="1" stroke-linecap="square" stroke-linejoin="bevel" transform="matrix(2,0,0,2,62.3302,80)"
font-family="sans" font-size="11" font-weight="100" font-style="normal" 
>
</g>

<g fill="#000000" fill-opacity="1" stroke="#000000" stroke-opacity="1" stroke-width="1" stroke-linecap="square" stroke-linejoin="round" transform="matrix(2,0,0,2,62.3302,80)"
font-family="sans" font-size="11" font-weight="100" font-style="normal" 
>
<path vector-effect="none" fill-rule="nonzero" d="M3.98438,4.14063 L1.0625,12 L0.109375,12 L3.03125,4.14063 L3.98438,4.14063 M7.76563,6 C7.86979,6 7.98698,6.00521 8.11719,6.01563 C8.2474,6.02604 8.35938,6.04167 8.45313,6.0625 L8.32813,6.95313 C8.23438,6.93229 8.13281,6.91406 8.02344,6.89844 C7.91406,6.88281 7.80729,6.875 7.70313,6.875 C7.40104,6.875 7.11719,6.95833 6.85156,7.125 C6.58594,7.29167 6.375,7.52344 6.21875,7.82031 C6.0625,8.11719 5.98438,8.46354 5.98438,8.85938 L5.98438,12 L5.01563,12 L5.01563,6.10938 L5.8125,6.10938 L5.92188,7.1875 L5.95313,7.1875 C6.15104,6.86458 6.39844,6.58594 6.69531,6.35156 C6.99219,6.11719 7.34896,6 7.76563,6 M11.6094,6 C12.1094,6 12.5417,6.10938 12.9063,6.32813 C13.2708,6.54688 13.5495,6.85677 13.7422,7.25781 C13.9349,7.65885 14.0313,8.125 14.0313,8.65625 L14.0313,9.23438 L10,9.23438 C10.0104,9.90104 10.1797,10.4089 10.5078,10.7578 C10.8359,11.1068 11.2917,11.2813 11.875,11.2813 C12.25,11.2813 12.5833,11.2474 12.875,11.1797 C13.1667,11.112 13.4635,11.0104 13.7656,10.875 L13.7656,11.7188 C13.4635,11.8542 13.1667,11.9531 12.875,12.0156 C12.5833,12.0781 12.2344,12.1094 11.8281,12.1094 C11.276,12.1094 10.7839,11.9948 10.3516,11.7656 C9.91927,11.5365 9.58594,11.1979 9.35156,10.75 C9.11719,10.3021 9,9.75 9,9.09375 C9,8.44792 9.10677,7.89323 9.32031,7.42969 C9.53385,6.96615 9.83854,6.61198 10.2344,6.36719 C10.6302,6.1224 11.0885,6 11.6094,6 M11.5938,6.78125 C11.1354,6.78125 10.7708,6.92969 10.5,7.22656 C10.2292,7.52344 10.0677,7.9375 10.0156,8.46875 L13.0156,8.46875 C13.0156,7.96875 12.901,7.5625 12.6719,7.25 C12.4427,6.9375 12.0833,6.78125 11.5938,6.78125 M18.25,6.84375 L16.7656,6.84375 L16.7656,12 L15.7969,12 L15.7969,6.84375 L14.7656,6.84375 L14.7656,6.40625 L15.7969,6.0625 L15.7969,5.73438 C15.7969,4.96354 15.9661,4.41146 16.3047,4.07813 C16.6432,3.74479 17.1094,3.57813 17.7031,3.57813 C17.9427,3.57813 18.1589,3.59896 18.3516,3.64063 C18.5443,3.68229 18.7083,3.72917 18.8438,3.78125 L18.5938,4.54688 C18.4792,4.50521 18.3438,4.46615 18.1875,4.42969 C18.0313,4.39323 17.875,4.375 17.7188,4.375 C17.3958,4.375 17.1563,4.48438 17,4.70313 C16.8438,4.92188 16.7656,5.26042 16.7656,5.71875 L16.7656,6.10938 L18.25,6.10938 L18.25,6.84375 M21.5938,6 C22.0938,6 22.526,6.10938 22.8906,6.32813 C23.2552,6.54688 23.5339,6.85677 23.7266,7.25781 C23.9193,7.65885 24.0156,8.125 24.0156,8.65625 L24.0156,9.23438 L19.9844,9.23438 C19.9948,9.90104 20.1641,10.4089 20.4922,10.7578 C20.8203,11.1068 21.276,11.2813 21.8594,11.2813 C22.2344,11.2813 22.5677,11.2474 22.8594,11.1797 C23.151,11.112 23.4479,11.0104 23.75,10.875 L23.75,11.7188 C23.4479,11.8542 23.151,11.9531 22.8594,12.0156 C22.5677,12.0781 22.2188,12.1094 21.8125,12.1094 C21.2604,12.1094 20.7682,11.9948 20.3359,11.7656 C19.9036,11.5365 19.5703,11.1979 19.3359,10.75 C19.1016,10.3021 18.9844,9.75 18.9844,9.09375 C18.9844,8.44792 19.0911,7.89323 19.3047,7.42969 C19.5182,6.96615 19.8229,6.61198 20.2188,6.36719 C20.6146,6.1224 21.0729,6 21.5938,6 M21.5781,6.78125 C21.1198,6.78125 20.7552,6.92969 20.4844,7.22656 C20.2135,7.52344 20.0521,7.9375 20,8.46875 L23,8.46875 C23,7.96875 22.8854,7.5625 22.6563,7.25 C22.4271,6.9375 22.0677,6.78125 21.5781,6.78125 M28.2656,6 C28.3698,6 28.487,6.00521 28.6172,6.01563 C28.7474,6.02604 28.8594,6.04167 28.9531,6.0625 L28.8281,6.95313 C28.7344,6.93229 28.6328,6.91406 28.5234,6.89844 C28.4141,6.88281 28.3073,6.875 28.2031,6.875 C27.901,6.875 27.6172,6.95833 27.3516,7.125 C27.0859,7.29167 26.875,7.52344 26.7188,7.82031 C26.5625,8.11719 26.4844,8.46354 26.4844,8.85938 L26.4844,12 L25.5156,12 L25.5156,6.10938 L26.3125,6.10938 L26.4219,7.1875 L26.4531,7.1875 C26.651,6.86458 26.8984,6.58594 27.1953,6.35156 C27.4922,6.11719 27.849,6 28.2656,6 M32.1094,6 C32.6094,6 33.0417,6.10938 33.4063,6.32813 C33.7708,6.54688 34.0495,6.85677 34.2422,7.25781 C34.4349,7.65885 34.5313,8.125 34.5313,8.65625 L34.5313,9.23438 L30.5,9.23438 C30.5104,9.90104 30.6797,10.4089 31.0078,10.7578 C31.3359,11.1068 31.7917,11.2813 32.375,11.2813 C32.75,11.2813 33.0833,11.2474 33.375,11.1797 C33.6667,11.112 33.9635,11.0104 34.2656,10.875 L34.2656,11.7188 C33.9635,11.8542 33.6667,11.9531 33.375,12.0156 C33.0833,12.0781 32.7344,12.1094 32.3281,12.1094 C31.776,12.1094 31.2839,11.9948 30.8516,11.7656 C30.4193,11.5365 30.0859,11.1979 29.8516,10.75 C29.6172,10.3021 29.5,9.75 29.5,9.09375 C29.5,8.44792 29.6068,7.89323 29.8203,7.42969 C30.0339,6.96615 30.3385,6.61198 30.7344,6.36719 C31.1302,6.1224 31.5885,6 32.1094,6 M32.0938,6.78125 C31.6354,6.78125 31.2708,6.92969 31,7.22656 C30.7292,7.52344 30.5677,7.9375 30.5156,8.46875 L33.5156,8.46875 C33.5156,7.96875 33.401,7.5625 33.1719,7.25 C32.9427,6.9375 32.5833,6.78125 32.0938,6.78125 M38.875,6 C39.5729,6 40.1016,6.16927 40.4609,6.50781 C40.8203,6.84635 41,7.39583 41,8.15625 L41,12 L40.0469,12 L40.0469,8.21875 C40.0469,7.28125 39.6042,6.8125 38.7188,6.8125 C38.0729,6.8125 37.625,6.99479 37.375,7.35938 C37.125,7.72396 37,8.25 37,8.9375 L37,12 L36.0313,12 L36.0313,6.10938 L36.8125,6.10938 L36.9531,6.90625 L37.0156,6.90625 C37.2031,6.59375 37.4661,6.36458 37.8047,6.21875 C38.1432,6.07292 38.5,6 38.875,6 M45.1875,12.1094 C44.6667,12.1094 44.2031,12.0026 43.7969,11.7891 C43.3906,11.5755 43.0729,11.2448 42.8438,10.7969 C42.6146,10.349 42.5,9.77604 42.5,9.07813 C42.5,8.35938 42.6198,7.77083 42.8594,7.3125 C43.099,6.85417 43.4271,6.52083 43.8438,6.3125 C44.2604,6.10417 44.7292,6 45.25,6 C45.5521,6 45.8438,6.03125 46.125,6.09375 C46.4063,6.15625 46.6354,6.22917 46.8125,6.3125 L46.5156,7.10938 C46.3385,7.04688 46.1328,6.98698 45.8984,6.92969 C45.6641,6.8724 45.4427,6.84375 45.2344,6.84375 C44.0781,6.84375 43.5,7.58854 43.5,9.07813 C43.5,9.78646 43.6406,10.3307 43.9219,10.7109 C44.2031,11.0911 44.625,11.2813 45.1875,11.2813 C45.5104,11.2813 45.7943,11.2474 46.0391,11.1797 C46.2839,11.112 46.5052,11.0313 46.7031,10.9375 L46.7031,11.7969 C46.5052,11.8906 46.2891,11.9661 46.0547,12.0234 C45.8203,12.0807 45.5313,12.1094 45.1875,12.1094 M50.375,6 C50.875,6 51.3073,6.10938 51.6719,6.32813 C52.0365,6.54688 52.3151,6.85677 52.5078,7.25781 C52.7005,7.65885 52.7969,8.125 52.7969,8.65625 L52.7969,9.23438 L48.7656,9.23438 C48.776,9.90104 48.9453,10.4089 49.2734,10.7578 C49.6016,11.1068 50.0573,11.2813 50.6406,11.2813 C51.0156,11.2813 51.349,11.2474 51.6406,11.1797 C51.9323,11.112 52.2292,11.0104 52.5313,10.875 L52.5313,11.7188 C52.2292,11.8542 51.9323,11.9531 51.6406,12.0156 C51.349,12.0781 51,12.1094 50.5938,12.1094 C50.0417,12.1094 49.5495,11.9948 49.1172,11.7656 C48.6849,11.5365 48.3516,11.1979 48.1172,10.75 C47.8828,10.3021 47.7656,9.75 47.7656,9.09375 C47.7656,8.44792 47.8724,7.89323 48.0859,7.42969 C48.2995,6.96615 48.6042,6.61198 49,6.36719 C49.3958,6.1224 49.8542,6 50.375,6 M50.3594,6.78125 C49.901,6.78125 49.5365,6.92969 49.2656,7.22656 C48.9948,7.52344 48.8333,7.9375 48.7813,8.46875 L51.7813,8.46875 C51.7813,7.96875 51.6667,7.5625 51.4375,7.25 C51.2083,6.9375 50.849,6.78125 50.3594,6.78125 "/>
</g>

<g fill="none" stroke="#000000" stroke-opacity="1" stroke-width="1" stroke-linecap="square" stroke-linejoin="bevel" transform="matrix(2,0,0,2,62.3302,80)"
font-family="sans" font-size="11" font-weight="100" font-style="normal" 
>
</g>

<g fill="none" stroke="#000000" stroke-opacity="1" stroke-width="1" stroke-linecap="square" stroke-linejoin="bevel" transform="matrix(2,0,0,2,62.3302,80)"
font-family="Ubuntu" font-size="10" font-weight="400" font-style="normal" 
>
</g>

<g fill="none" stroke="#000000" stroke-opacity="1" stroke-width="1" stroke-linecap="square" stroke-linejoin="bevel" transform="matrix(2,0,0,2,-0.0004,240)"
font-family="Ubuntu" font-size="10" font-weight="400" font-style="normal" 
>
</g>

<g fill="none" stroke="#000000" stroke-opacity="1" stroke-width="1" stroke-linecap="square" stroke-linejoin="bevel" transform="matrix(2,0,0,2,-0.0004,240)"
font-family="Ubuntu" font-size="10" font-weight="400" font-style="normal" 
>
</g>

<g fill="none" stroke="#000000" stroke-opacity="1" stroke-width="1" stroke-linecap="square" stroke-linejoin="bevel" transform="matrix(2,0,0,2,-0.0004,240)"
font-family="Ubuntu" font-size="10" font-weight="400" font-style="normal" 
>
</g>

<g fill="none" stroke="#000000" stroke-opacity="1" stroke-width="1" stroke-linecap="square" stroke-linejoin="round" transform="matrix(2,0,0,2,-0.0004,240)"
font-family="Ubuntu" font-size="10" font-weight="400" font-style="normal" 
>
<path vector-effect="none" fill-rule="evenodd" d="M190.86,-32.596 C200.83,-37.501 212.13,-43.056 222.76,-48.287 "/>
</g>

<g fill="none" stroke="#000000" stroke-opacity="1" stroke-width="1" stroke-linecap="square" stroke-linejoin="bevel" transform="matrix(2,0,0,2,-0.0004,240)"
font-family="Ubuntu" font-size="10" font-weight="400" font-style="normal" 
>
</g>

<g fill="none" stroke="#000000" stroke-opacity="1" stroke-width="1" stroke-linecap="square" stroke-linejoin="bevel" transform="matrix(2,0,0,2,-0.0004,240)"
font-family="Ubuntu" font-size="10" font-weight="400" font-style="normal" 
>
</g>

<g fill="#000000" fill-opacity="1" stroke="#000000" stroke-opacity="1" stroke-width="1" stroke-linecap="square" stroke-linejoin="round" transform="matrix(2,0,0,2,-0.0004,240)"
font-family="Ubuntu" font-size="10" font-weight="400" font-style="normal" 
>
<path vector-effect="none" fill-rule="evenodd" d="M222.76,-48.287 L224.332,-45.0915 L231.89,-52.777 L221.188,-51.4825 L222.76,-48.287"/>
</g>

<g fill="none" stroke="#000000" stroke-opacity="1" stroke-width="1" stroke-linecap="square" stroke-linejoin="bevel" transform="matrix(2,0,0,2,-0.0004,240)"
font-family="Ubuntu" font-size="10" font-weight="400" font-style="normal" 
>
</g>

<g fill="none" stroke="#000000" stroke-opacity="1" stroke-width="1" stroke-linecap="square" stroke-linejoin="bevel" transform="matrix(2,0,0,2,-0.0004,240)"
font-family="Ubuntu" font-size="10" font-weight="400" font-style="normal" 
>
</g>

<g fill="none" stroke="#000000" stroke-opacity="1" stroke-width="1" stroke-linecap="square" stroke-linejoin="bevel" transform="matrix(2,0,0,2,-0.0004,240)"
font-family="Ubuntu" font-size="10" font-weight="400" font-style="normal" 
>
</g>

<g fill="none" stroke="#000000" stroke-opacity="1" stroke-width="1" stroke-linecap="square" stroke-linejoin="bevel" transform="matrix(2,0,0,2,-0.0004,240)"
font-family="Ubuntu" font-size="10" font-weight="400" font-style="normal" 
>
</g>

<g fill="none" stroke="#000000" stroke-opacity="1" stroke-width="1" stroke-linecap="square" stroke-linejoin="round" transform="matrix(2,0,0,2,-0.0004,240)"
font-family="Ubuntu" font-size="10" font-weight="400" font-style="normal" 
>
<path vector-effect="none" fill-rule="evenodd" d="M187.37,-70.97 C189.78,-70.875 192.3,-70.776 194.89,-70.674 "/>
</g>

<g fill="none" stroke="#000000" stroke-opacity="1" stroke-width="1" stroke-linecap="square" stroke-linejoin="bevel" transform="matrix(2,0,0,2,-0.0004,240)"
font-family="Ubuntu" font-size="10" font-weight="400" font-style="normal" 
>
</g>

<g fill="none" stroke="#000000" stroke-opacity="1" stroke-width="1" stroke-linecap="square" stroke-linejoin="bevel" transform="matrix(2,0,0,2,-0.0004,240)"
font-family="Ubuntu" font-size="10" font-weight="400" font-style="normal" 
>
</g>

<g fill="#000000" fill-opacity="1" stroke="#000000" stroke-opacity="1" stroke-width="1" stroke-linecap="square" stroke-linejoin="round" transform="matrix(2,0,0,2,-0.0004,240)"
font-family="Ubuntu" font-size="10" font-weight="400" font-style="normal" 
>
<path vector-effect="none" fill-rule="evenodd" d="M194.89,-70.674 L194.749,-67.0935 L205.12,-70.271 L195.031,-74.2545 L194.89,-70.674"/>
</g>

<g fill="none" stroke="#000000" stroke-opacity="1" stroke-width="1" stroke-linecap="square" stroke-linejoin="bevel" transform="matrix(2,0,0,2,-0.0004,240)"
font-family="Ubuntu" font-size="10" font-weight="400" font-style="normal" 
>
</g>

<g fill="none" stroke="#000000" stroke-opacity="1" stroke-width="1" stroke-linecap="square" stroke-linejoin="bevel" transform="matrix(2,0,0,2,-0.0004,240)"
font-family="Ubuntu" font-size="10" font-weight="400" font-style="normal" 
>
</g>

<g fill="none" stroke="#000000" stroke-opacity="1" stroke-width="1" stroke-linecap="square" stroke-linejoin="bevel" transform="matrix(2,0,0,2,-0.0004,240)"
font-family="Ubuntu" font-size="10" font-weight="400" font-style="normal" 
>
</g>

<g fill="none" stroke="#000000" stroke-opacity="1" stroke-width="1" stroke-linecap="square" stroke-linejoin="bevel" transform="matrix(2,0,0,2,-0.0004,240)"
font-family="Ubuntu" font-size="10" font-weight="400" font-style="normal" 
>
</g>

<g fill="none" stroke="#000000" stroke-opacity="1" stroke-width="1" stroke-linecap="square" stroke-linejoin="round" transform="matrix(2,0,0,2,-0.0004,240)"
font-family="Ubuntu" font-size="10" font-weight="400" font-style="normal" 
>
<path vector-effect="none" fill-rule="evenodd" d="M391.37,-79.701 C395.8,-81.663 400.46,-83.729 405.09,-85.78 "/>
</g>

<g fill="none" stroke="#000000" stroke-opacity="1" stroke-width="1" stroke-linecap="square" stroke-linejoin="bevel" transform="matrix(2,0,0,2,-0.0004,240)"
font-family="Ubuntu" font-size="10" font-weight="400" font-style="normal" 
>
</g>

<g fill="none" stroke="#000000" stroke-opacity="1" stroke-width="1" stroke-linecap="square" stroke-linejoin="bevel" transform="matrix(2,0,0,2,-0.0004,240)"
font-family="Ubuntu" font-size="10" font-weight="400" font-style="normal" 
>
</g>

<g fill="#000000" fill-opacity="1" stroke="#000000" stroke-opacity="1" stroke-width="1" stroke-linecap="square" stroke-linejoin="round" transform="matrix(2,0,0,2,-0.0004,240)"
font-family="Ubuntu" font-size="10" font-weight="400" font-style="normal" 
>
<path vector-effect="none" fill-rule="evenodd" d="M405.09,-85.78 L406.543,-82.504 L414.45,-89.931 L403.637,-89.056 L405.09,-85.78"/>
</g>

<g fill="none" stroke="#000000" stroke-opacity="1" stroke-width="1" stroke-linecap="square" stroke-linejoin="bevel" transform="matrix(2,0,0,2,-0.0004,240)"
font-family="Ubuntu" font-size="10" font-weight="400" font-style="normal" 
>
</g>

<g fill="none" stroke="#000000" stroke-opacity="1" stroke-width="1" stroke-linecap="square" stroke-linejoin="bevel" transform="matrix(2,0,0,2,-0.0004,240)"
font-family="Ubuntu" font-size="10" font-weight="400" font-style="normal" 
>
</g>

<g fill="none" stroke="#000000" stroke-opacity="1" stroke-width="1" stroke-linecap="square" stroke-linejoin="bevel" transform="matrix(2,0,0,2,-0.0004,240)"
font-family="Ubuntu" font-size="10" font-weight="400" font-style="normal" 
>
</g>

<g fill="none" stroke="#000000" stroke-opacity="1" stroke-width="1" stroke-linecap="square" stroke-linejoin="bevel" transform="matrix(2,0,0,2,-0.0004,240)"
font-family="Ubuntu" font-size="10" font-weight="400" font-style="normal" 
>
</g>

<g fill="none" stroke="#000000" stroke-opacity="1" stroke-width="1" stroke-linecap="square" stroke-linejoin="round" transform="matrix(2,0,0,2,-0.0004,240)"
font-family="Ubuntu" font-size="10" font-weight="400" font-style="normal" 
>
<path vector-effect="none" fill-rule="evenodd" d="M391.07,-66.716 C429.35,-64.832 501.66,-61.273 552.42,-58.775 "/>
</g>

<g fill="none" stroke="#000000" stroke-opacity="1" stroke-width="1" stroke-linecap="square" stroke-linejoin="bevel" transform="matrix(2,0,0,2,-0.0004,240)"
font-family="Ubuntu" font-size="10" font-weight="400" font-style="normal" 
>
</g>

<g fill="none" stroke="#000000" stroke-opacity="1" stroke-width="1" stroke-linecap="square" stroke-linejoin="bevel" transform="matrix(2,0,0,2,-0.0004,240)"
font-family="Ubuntu" font-size="10" font-weight="400" font-style="normal" 
>
</g>

<g fill="#000000" fill-opacity="1" stroke="#000000" stroke-opacity="1" stroke-width="1" stroke-linecap="square" stroke-linejoin="round" transform="matrix(2,0,0,2,-0.0004,240)"
font-family="Ubuntu" font-size="10" font-weight="400" font-style="normal" 
>
<path vector-effect="none" fill-rule="evenodd" d="M552.42,-58.775 L552.245,-55.2155 L562.59,-58.275 L552.595,-62.3345 L552.42,-58.775"/>
</g>

<g fill="none" stroke="#000000" stroke-opacity="1" stroke-width="1" stroke-linecap="square" stroke-linejoin="bevel" transform="matrix(2,0,0,2,-0.0004,240)"
font-family="Ubuntu" font-size="10" font-weight="400" font-style="normal" 
>
</g>

<g fill="none" stroke="#000000" stroke-opacity="1" stroke-width="1" stroke-linecap="square" stroke-linejoin="bevel" transform="matrix(2,0,0,2,-0.0004,240)"
font-family="Ubuntu" font-size="10" font-weight="400" font-style="normal" 
>
</g>

<g fill="none" stroke="#000000" stroke-opacity="1" stroke-width="1" stroke-linecap="square" stroke-linejoin="bevel" transform="matrix(2,0,0,2,-0.0004,240)"
font-family="Ubuntu" font-size="10" font-weight="400" font-style="normal" 
>
</g>

<g fill="none" stroke="#000000" stroke-opacity="1" stroke-width="1" stroke-linecap="square" stroke-linejoin="bevel" transform="matrix(2,0,0,2,-0.0004,240)"
font-family="Ubuntu" font-size="10" font-weight="400" font-style="normal" 
>
</g>

<g fill="none" stroke="#000000" stroke-opacity="1" stroke-width="1" stroke-linecap="square" stroke-linejoin="round" transform="matrix(2,0,0,2,-0.0004,240)"
font-family="Ubuntu" font-size="10" font-weight="400" font-style="normal" 
>
<path vector-effect="none" fill-rule="evenodd" d="M548.78,-87.949 C556.2,-83.999 564.41,-79.631 572.31,-75.427 "/>
</g>

<g fill="none" stroke="#000000" stroke-opacity="1" stroke-width="1" stroke-linecap="square" stroke-linejoin="bevel" transform="matrix(2,0,0,2,-0.0004,240)"
font-family="Ubuntu" font-size="10" font-weight="400" font-style="normal" 
>
</g>

<g fill="none" stroke="#000000" stroke-opacity="1" stroke-width="1" stroke-linecap="square" stroke-linejoin="bevel" transform="matrix(2,0,0,2,-0.0004,240)"
font-family="Ubuntu" font-size="10" font-weight="400" font-style="normal" 
>
</g>

<g fill="#000000" fill-opacity="1" stroke="#000000" stroke-opacity="1" stroke-width="1" stroke-linecap="square" stroke-linejoin="round" transform="matrix(2,0,0,2,-0.0004,240)"
font-family="Ubuntu" font-size="10" font-weight="400" font-style="normal" 
>
<path vector-effect="none" fill-rule="evenodd" d="M572.31,-75.427 L570.621,-72.2525 L581.38,-70.602 L573.999,-78.6015 L572.31,-75.427"/>
</g>

<g fill="none" stroke="#000000" stroke-opacity="1" stroke-width="1" stroke-linecap="square" stroke-linejoin="bevel" transform="matrix(2,0,0,2,-0.0004,240)"
font-family="Ubuntu" font-size="10" font-weight="400" font-style="normal" 
>
</g>

<g fill="none" stroke="#000000" stroke-opacity="1" stroke-width="1" stroke-linecap="square" stroke-linejoin="bevel" transform="matrix(2,0,0,2,-0.0004,240)"
font-family="Ubuntu" font-size="10" font-weight="400" font-style="normal" 
>
</g>

<g fill="none" stroke="#000000" stroke-opacity="1" stroke-width="1" stroke-linecap="square" stroke-linejoin="bevel" transform="matrix(2,0,0,2,-0.0004,240)"
font-family="Ubuntu" font-size="10" font-weight="400" font-style="normal" 
>
</g>

<g fill="none" stroke="#000000" stroke-opacity="1" stroke-width="1" stroke-linecap="square" stroke-linejoin="bevel" transform="matrix(2,0,0,2,-0.0004,240)"
font-family="Ubuntu" font-size="10" font-weight="400" font-style="normal" 
>
</g>

<g fill="none" stroke="#000000" stroke-opacity="1" stroke-width="1" stroke-linecap="square" stroke-linejoin="round" transform="matrix(2,0,0,2,-0.0004,240)"
font-family="Ubuntu" font-size="10" font-weight="400" font-style="normal" 
>
<path vector-effect="none" fill-rule="evenodd" d="M323.06,-68 C324.26,-68 325.45,-68 326.63,-68 "/>
</g>

<g fill="none" stroke="#000000" stroke-opacity="1" stroke-width="1" stroke-linecap="square" stroke-linejoin="bevel" transform="matrix(2,0,0,2,-0.0004,240)"
font-family="Ubuntu" font-size="10" font-weight="400" font-style="normal" 
>
</g>

<g fill="none" stroke="#000000" stroke-opacity="1" stroke-width="1" stroke-linecap="square" stroke-linejoin="bevel" transform="matrix(2,0,0,2,-0.0004,240)"
font-family="Ubuntu" font-size="10" font-weight="400" font-style="normal" 
>
</g>

<g fill="#000000" fill-opacity="1" stroke="#000000" stroke-opacity="1" stroke-width="1" stroke-linecap="square" stroke-linejoin="round" transform="matrix(2,0,0,2,-0.0004,240)"
font-family="Ubuntu" font-size="10" font-weight="400" font-style="normal" 
>
<path vector-effect="none" fill-rule="evenodd" d="M326.63,-68 L326.63,-64.416 L336.87,-68 L326.63,-71.584 L326.63,-68"/>
</g>

<g fill="none" stroke="#000000" stroke-opacity="1" stroke-width="1" stroke-linecap="square" stroke-linejoin="bevel" transform="matrix(2,0,0,2,-0.0004,240)"
font-family="Ubuntu" font-size="10" font-weight="400" font-style="normal" 
>
</g>

<g fill="none" stroke="#000000" stroke-opacity="1" stroke-width="1" stroke-linecap="square" stroke-linejoin="bevel" transform="matrix(2,0,0,2,-0.0004,240)"
font-family="Ubuntu" font-size="10" font-weight="400" font-style="normal" 
>
</g>

<g fill="none" stroke="#000000" stroke-opacity="1" stroke-width="1" stroke-linecap="square" stroke-linejoin="bevel" transform="matrix(2,0,0,2,-0.0004,240)"
font-family="Ubuntu" font-size="10" font-weight="400" font-style="normal" 
>
</g>

<g fill="none" stroke="#000000" stroke-opacity="1" stroke-width="1" stroke-linecap="square" stroke-linejoin="bevel" transform="matrix(2,0,0,2,-0.0004,240)"
font-family="Ubuntu" font-size="10" font-weight="400" font-style="normal" 
>
</g>

<g fill="none" stroke="#000000" stroke-opacity="1" stroke-width="1" stroke-linecap="square" stroke-linejoin="round" transform="matrix(2,0,0,2,-0.0004,240)"
font-family="Ubuntu" font-size="10" font-weight="400" font-style="normal" 
>
<path vector-effect="none" fill-rule="evenodd" d="M115.76,-72 C118.2,-72 120.63,-72 123,-72 "/>
</g>

<g fill="none" stroke="#000000" stroke-opacity="1" stroke-width="1" stroke-linecap="square" stroke-linejoin="bevel" transform="matrix(2,0,0,2,-0.0004,240)"
font-family="Ubuntu" font-size="10" font-weight="400" font-style="normal" 
>
</g>

<g fill="none" stroke="#000000" stroke-opacity="1" stroke-width="1" stroke-linecap="square" stroke-linejoin="bevel" transform="matrix(2,0,0,2,-0.0004,240)"
font-family="Ubuntu" font-size="10" font-weight="400" font-style="normal" 
>
</g>

<g fill="#000000" fill-opacity="1" stroke="#000000" stroke-opacity="1" stroke-width="1" stroke-linecap="square" stroke-linejoin="round" transform="matrix(2,0,0,2,-0.0004,240)"
font-family="Ubuntu" font-size="10" font-weight="400" font-style="normal" 
>
<path vector-effect="none" fill-rule="evenodd" d="M123,-72 L123,-68.479 L133.06,-72 L123,-75.521 L123,-72"/>
</g>

<g fill="none" stroke="#000000" stroke-opacity="1" stroke-width="1" stroke-linecap="square" stroke-linejoin="bevel" transform="matrix(2,0,0,2,-0.0004,240)"
font-family="Ubuntu" font-size="10" font-weight="400" font-style="normal" 
>
</g>

<g fill="none" stroke="#000000" stroke-opacity="1" stroke-width="1" stroke-linecap="square" stroke-linejoin="bevel" transform="matrix(2,0,0,2,-0.0004,240)"
font-family="Ubuntu" font-size="10" font-weight="400" font-style="normal" 
>
</g>

<g fill="none" stroke="#000000" stroke-opacity="1" stroke-width="1" stroke-linecap="square" stroke-linejoin="bevel" transform="matrix(2,0,0,2,-0.0004,240)"
font-family="Ubuntu" font-size="10" font-weight="400" font-style="normal" 
>
</g>

<g fill="none" stroke="#000000" stroke-opacity="1" stroke-width="1" stroke-linecap="square" stroke-linejoin="bevel" transform="matrix(2,0,0,2,-0.0004,240)"
font-family="Ubuntu" font-size="10" font-weight="400" font-style="normal" 
>
</g>

<g fill="none" stroke="#000000" stroke-opacity="1" stroke-width="1" stroke-linecap="square" stroke-linejoin="round" transform="matrix(2,0,0,2,-0.0004,240)"
font-family="Ubuntu" font-size="10" font-weight="400" font-style="normal" 
>
<path vector-effect="none" fill-rule="evenodd" d="M480.68,-102 C481.83,-102 482.98,-102 484.12,-102 "/>
</g>

<g fill="none" stroke="#000000" stroke-opacity="1" stroke-width="1" stroke-linecap="square" stroke-linejoin="bevel" transform="matrix(2,0,0,2,-0.0004,240)"
font-family="Ubuntu" font-size="10" font-weight="400" font-style="normal" 
>
</g>

<g fill="none" stroke="#000000" stroke-opacity="1" stroke-width="1" stroke-linecap="square" stroke-linejoin="bevel" transform="matrix(2,0,0,2,-0.0004,240)"
font-family="Ubuntu" font-size="10" font-weight="400" font-style="normal" 
>
</g>

<g fill="#000000" fill-opacity="1" stroke="#000000" stroke-opacity="1" stroke-width="1" stroke-linecap="square" stroke-linejoin="round" transform="matrix(2,0,0,2,-0.0004,240)"
font-family="Ubuntu" font-size="10" font-weight="400" font-style="normal" 
>
<path vector-effect="none" fill-rule="evenodd" d="M484.12,-102 L484.12,-98.444 L494.28,-102 L484.12,-105.556 L484.12,-102"/>
</g>

<g fill="none" stroke="#000000" stroke-opacity="1" stroke-width="1" stroke-linecap="square" stroke-linejoin="bevel" transform="matrix(2,0,0,2,-0.0004,240)"
font-family="Ubuntu" font-size="10" font-weight="400" font-style="normal" 
>
</g>

<g fill="none" stroke="#000000" stroke-opacity="1" stroke-width="1" stroke-linecap="square" stroke-linejoin="bevel" transform="matrix(2,0,0,2,-0.0004,240)"
font-family="Ubuntu" font-size="10" font-weight="400" font-style="normal" 
>
</g>

<g fill="none" stroke="#000000" stroke-opacity="1" stroke-width="1" stroke-linecap="square" stroke-linejoin="bevel" transform="matrix(2,0,0,2,-0.0004,240)"
font-family="Ubuntu" font-size="10" font-weight="400" font-style="normal" 
>
</g>

<g fill="none" stroke="#000000" stroke-opacity="1" stroke-width="1" stroke-linecap="square" stroke-linejoin="bevel" transform="matrix(2,0,0,2,-0.0004,240)"
font-family="Ubuntu" font-size="10" font-weight="400" font-style="normal" 
>
</g>

<g fill="none" stroke="#000000" stroke-opacity="1" stroke-width="1" stroke-linecap="square" stroke-linejoin="round" transform="matrix(2,0,0,2,-0.0004,240)"
font-family="Ubuntu" font-size="10" font-weight="400" font-style="normal" 
>
<path vector-effect="none" fill-rule="evenodd" d="M575.18,-43.557 C542.17,-32.475 490.16,-18 443.68,-18 C362.98,-18 362.98,-18 362.98,-18 C306.74,-18 241.69,-18 200.99,-18 "/>
</g>

<g fill="none" stroke="#000000" stroke-opacity="1" stroke-width="1" stroke-linecap="square" stroke-linejoin="bevel" transform="matrix(2,0,0,2,-0.0004,240)"
font-family="Ubuntu" font-size="10" font-weight="400" font-style="normal" 
>
</g>

<g fill="none" stroke="#000000" stroke-opacity="1" stroke-width="1" stroke-linecap="square" stroke-linejoin="bevel" transform="matrix(2,0,0,2,-0.0004,240)"
font-family="Ubuntu" font-size="10" font-weight="400" font-style="normal" 
>
</g>

<g fill="#000000" fill-opacity="1" stroke="#000000" stroke-opacity="1" stroke-width="1" stroke-linecap="square" stroke-linejoin="round" transform="matrix(2,0,0,2,-0.0004,240)"
font-family="Ubuntu" font-size="10" font-weight="400" font-style="normal" 
>
<path vector-effect="none" fill-rule="evenodd" d="M200.99,-18 L200.99,-21.5175 L190.94,-18 L200.99,-14.4825 L200.99,-18"/>
</g>

<g fill="none" stroke="#000000" stroke-opacity="1" stroke-width="1" stroke-linecap="square" stroke-linejoin="bevel" transform="matrix(2,0,0,2,-0.0004,240)"
font-family="Ubuntu" font-size="10" font-weight="400" font-style="normal" 
>
</g>

<g fill="none" stroke="#000000" stroke-opacity="1" stroke-width="1" stroke-linecap="square" stroke-linejoin="bevel" transform="matrix(1,0,0,1,0,0)"
font-family="Ubuntu" font-size="10" font-weight="400" font-style="normal" 
>
</g>
</g>
</svg>
