<?xml version="1.0" encoding="UTF-8" standalone="no" ?>
<svg xmlns="http://www.w3.org/2000/svg" width="42.544px" height="18.024px" viewBox="0 -748 2350.7 996" xmlns:xlink="http://www.w3.org/1999/xlink" style=""><defs><path id="MJX-6-NCM-N-28" d="M318-248C327-248 332-243 332-234C332-231 330-227 327-223C275-183 233-117 202-26C175 53 161 131 161 208L161 292C161 369 175 447 202 526C233 617 275 683 327 723C330 726 332 730 332 734C332 743 327 748 318 748C317 748 314 747 311 745C251 699 201 631 160 540C121 453 101 371 101 292L101 208C101 129 121 47 160-40C201-131 251-199 311-245C314-247 317-248 318-248Z"/><path id="MJX-6-NCM-I-1D453" d="M552 633C552 677 509 705 462 705C400 705 357 665 334 586C329 568 318 517 302 433L237 433C215 433 204 432 204 411C204 400 214 395 235 395L295 395L222 8C211-49 201-91 192-119C180-156 163-175 141-175C126-175 114-171 103-164C135-159 151-140 151-108C151-82 138-69 111-69C77-69 53-99 53-133C53-177 94-205 141-205C166-205 189-195 208-174C240-141 265-94 283-31C294 8 304 46 311 84L369 395L451 395C474 395 484 396 484 419C484 428 474 433 454 433L377 433C383 474 411 625 420 644C430 665 444 675 462 675C477 675 490 671 501 664C470 657 454 639 454 608C454 582 467 569 494 569C528 569 552 599 552 633Z"/><path id="MJX-6-NCM-N-2C" d="M139 106C107 106 86 82 86 50C86 20 109-5 139-5C153-5 165-1 174 8L175 0C175-63 154-117 112-160C105-168 101-174 101-178C101-188 105-193 114-193C123-193 135-181 152-158C186-110 203-57 203 0C203 53 185 106 139 106Z"/><path id="MJX-6-NCM-I-210E" d="M512 138C489 59 457 19 415 19C402 19 395 28 395 47C395 62 401 85 413 116C453 223 473 296 473 335C473 406 427 445 356 445C303 445 257 423 218 380L291 679C289 688 287 694 274 694C241 694 168 685 155 684C140 682 132 675 132 660C132 650 141 645 159 645C180 645 203 646 205 632L59 43C56 32 55 25 55 21C55 0 66-11 87-11C107-11 121-1 128 18L168 182C180 231 189 268 196 293C199 300 207 314 220 334C256 388 300 415 353 415C386 415 402 393 402 350C402 309 382 236 342 130C333 107 329 89 329 74C329 26 365-11 413-11C457-11 492 14 517 65C536 105 546 132 546 145C546 154 541 159 530 159C527 159 512 150 512 138Z"/><path id="MJX-6-NCM-N-29" d="M78-245C138-199 188-131 229-40C268 47 288 129 288 208L288 292C288 371 268 453 229 540C188 631 138 699 78 745C75 747 72 748 71 748C62 748 57 743 57 734C57 730 59 726 62 723C114 683 156 617 187 526C214 447 228 369 228 292L228 208C228 131 214 53 187-26C156-117 114-183 62-223C59-227 57-231 57-234C57-243 62-248 71-248C72-248 75-247 78-245Z"/></defs><g stroke="#000000" fill="#000000" stroke-width="0" transform="scale(1,-1)"><g data-mml-node="math" data-latex="(f,h)" data-semantic-type="fenced" data-semantic-role="leftright" data-semantic-annotation="depth:1" data-semantic-id="6" data-semantic-children="5" data-semantic-content="0,4" data-semantic-attributes="latex:(f,h)" data-semantic-owns="0 5 4" aria-level="0" data-speech-node="true" data-semantic-structure="(6 0 (5 1 2 3) 4)"><g data-mml-node="mo" data-latex="(" data-semantic-type="fence" data-semantic-role="open" data-semantic-annotation="depth:2" data-semantic-id="0" data-semantic-parent="6" data-semantic-attributes="latex:(" data-semantic-operator="fenced" aria-level="1" data-speech-node="true"><use data-c="28" xmlns:xlink="http://www.w3.org/1999/xlink" xlink:href="#MJX-6-NCM-N-28"/></g><g data-mml-node="mrow" data-semantic-added="true" data-semantic-type="punctuated" data-semantic-role="sequence" data-semantic-annotation="depth:2" data-semantic-id="5" data-semantic-children="1,2,3" data-semantic-content="2" data-semantic-parent="6" data-semantic-owns="1 2 3" aria-level="1" data-speech-node="true" transform="translate(389,0)"><g data-mml-node="mi" data-latex="f" data-semantic-type="identifier" data-semantic-role="simple function" data-semantic-font="italic" data-semantic-annotation="clearspeak:simple;depth:3" data-semantic-id="1" data-semantic-parent="5" data-semantic-attributes="latex:f" aria-level="2" data-speech-node="true"><use data-c="1D453" xmlns:xlink="http://www.w3.org/1999/xlink" xlink:href="#MJX-6-NCM-I-1D453"/></g><g data-mml-node="mo" data-latex="," data-semantic-type="punctuation" data-semantic-role="comma" data-semantic-annotation="depth:3" data-semantic-id="2" data-semantic-parent="5" data-semantic-attributes="latex:," data-semantic-operator="punctuated" aria-level="2" data-speech-node="true" transform="translate(552,0)"><use data-c="2C" xmlns:xlink="http://www.w3.org/1999/xlink" xlink:href="#MJX-6-NCM-N-2C"/></g><g data-mml-node="mi" data-latex="h" data-semantic-type="identifier" data-semantic-role="simple function" data-semantic-font="italic" data-semantic-annotation="clearspeak:simple;depth:3" data-semantic-id="3" data-semantic-parent="5" data-semantic-attributes="latex:h" aria-level="2" data-speech-node="true" transform="translate(996.7,0)"><use data-c="210E" xmlns:xlink="http://www.w3.org/1999/xlink" xlink:href="#MJX-6-NCM-I-210E"/></g></g><g data-mml-node="mo" data-latex=")" data-semantic-type="fence" data-semantic-role="close" data-semantic-annotation="depth:2" data-semantic-id="4" data-semantic-parent="6" data-semantic-attributes="latex:)" data-semantic-operator="fenced" aria-level="1" data-speech-node="true" transform="translate(1961.7,0)"><use data-c="29" xmlns:xlink="http://www.w3.org/1999/xlink" xlink:href="#MJX-6-NCM-N-29"/></g></g></g></svg>