<?xml version="1.0" encoding="UTF-8"?>
<svg xmlns="http://www.w3.org/2000/svg" xmlns:xlink="http://www.w3.org/1999/xlink" width="260.624986" height="139.204282" viewBox="0 0 260.624986 139.204282">
<defs>
<g>
<g id="glyph-0-0">
<path d="M 2.640625 0.109375 C 2.003906 0.109375 1.484375 -0.140625 1.078125 -0.640625 C 0.671875 -1.140625 0.46875 -1.878906 0.46875 -2.859375 C 0.46875 -3.835938 0.671875 -4.578125 1.078125 -5.078125 C 1.484375 -5.585938 2.015625 -5.84375 2.671875 -5.84375 C 3.085938 -5.84375 3.425781 -5.757812 3.6875 -5.59375 C 3.957031 -5.4375 4.171875 -5.238281 4.328125 -5 L 4.375 -5 C 4.351562 -5.113281 4.328125 -5.273438 4.296875 -5.484375 C 4.273438 -5.703125 4.265625 -5.921875 4.265625 -6.140625 L 4.265625 -7.984375 L 5.828125 -7.984375 L 5.828125 0 L 4.625 0 L 4.328125 -0.75 L 4.265625 -0.75 C 4.109375 -0.507812 3.898438 -0.304688 3.640625 -0.140625 C 3.378906 0.0234375 3.046875 0.109375 2.640625 0.109375 Z M 3.1875 -1.140625 C 3.613281 -1.140625 3.914062 -1.265625 4.09375 -1.515625 C 4.269531 -1.773438 4.363281 -2.160156 4.375 -2.671875 L 4.375 -2.84375 C 4.375 -3.40625 4.285156 -3.832031 4.109375 -4.125 C 3.941406 -4.414062 3.625 -4.5625 3.15625 -4.5625 C 2.8125 -4.5625 2.539062 -4.410156 2.34375 -4.109375 C 2.15625 -3.816406 2.0625 -3.390625 2.0625 -2.828125 C 2.0625 -2.273438 2.15625 -1.851562 2.34375 -1.5625 C 2.539062 -1.28125 2.820312 -1.140625 3.1875 -1.140625 Z M 3.1875 -1.140625 "/>
</g>
<g id="glyph-0-1">
<path d="M 0 -5.734375 L 1.71875 -5.734375 L 2.796875 -2.515625 C 2.847656 -2.359375 2.890625 -2.195312 2.921875 -2.03125 C 2.953125 -1.863281 2.972656 -1.691406 2.984375 -1.515625 L 3.015625 -1.515625 C 3.035156 -1.691406 3.0625 -1.863281 3.09375 -2.03125 C 3.132812 -2.195312 3.179688 -2.359375 3.234375 -2.515625 L 4.296875 -5.734375 L 5.96875 -5.734375 L 3.546875 0.734375 C 3.328125 1.328125 3.007812 1.769531 2.59375 2.0625 C 2.175781 2.363281 1.695312 2.515625 1.15625 2.515625 C 0.976562 2.515625 0.820312 2.503906 0.6875 2.484375 C 0.5625 2.472656 0.453125 2.457031 0.359375 2.4375 L 0.359375 1.203125 C 0.429688 1.210938 0.519531 1.222656 0.625 1.234375 C 0.738281 1.253906 0.851562 1.265625 0.96875 1.265625 C 1.300781 1.265625 1.5625 1.160156 1.75 0.953125 C 1.945312 0.753906 2.09375 0.515625 2.1875 0.234375 L 2.28125 -0.046875 Z M 0 -5.734375 "/>
</g>
<g id="glyph-0-2">
<path d="M 4.078125 -5.84375 C 4.691406 -5.84375 5.179688 -5.675781 5.546875 -5.34375 C 5.921875 -5.007812 6.109375 -4.472656 6.109375 -3.734375 L 6.109375 0 L 4.546875 0 L 4.546875 -3.34375 C 4.546875 -3.757812 4.472656 -4.070312 4.328125 -4.28125 C 4.179688 -4.488281 3.945312 -4.59375 3.625 -4.59375 C 3.144531 -4.59375 2.816406 -4.425781 2.640625 -4.09375 C 2.472656 -3.769531 2.390625 -3.304688 2.390625 -2.703125 L 2.390625 0 L 0.8125 0 L 0.8125 -5.734375 L 2.015625 -5.734375 L 2.21875 -5 L 2.3125 -5 C 2.488281 -5.289062 2.734375 -5.503906 3.046875 -5.640625 C 3.367188 -5.773438 3.710938 -5.84375 4.078125 -5.84375 Z M 4.078125 -5.84375 "/>
</g>
<g id="glyph-0-3">
<path d="M 3.171875 -5.84375 C 3.941406 -5.84375 4.53125 -5.675781 4.9375 -5.34375 C 5.34375 -5.007812 5.546875 -4.503906 5.546875 -3.828125 L 5.546875 0 L 4.46875 0 L 4.15625 -0.78125 L 4.109375 -0.78125 C 3.867188 -0.46875 3.609375 -0.238281 3.328125 -0.09375 C 3.054688 0.0390625 2.6875 0.109375 2.21875 0.109375 C 1.707031 0.109375 1.28125 -0.0351562 0.9375 -0.328125 C 0.601562 -0.628906 0.4375 -1.09375 0.4375 -1.71875 C 0.4375 -2.320312 0.648438 -2.769531 1.078125 -3.0625 C 1.503906 -3.351562 2.144531 -3.507812 3 -3.53125 L 4 -3.5625 L 4 -3.828125 C 4 -4.128906 3.921875 -4.347656 3.765625 -4.484375 C 3.609375 -4.617188 3.390625 -4.6875 3.109375 -4.6875 C 2.828125 -4.6875 2.550781 -4.644531 2.28125 -4.5625 C 2.019531 -4.488281 1.753906 -4.394531 1.484375 -4.28125 L 0.96875 -5.328125 C 1.28125 -5.492188 1.625 -5.617188 2 -5.703125 C 2.375 -5.796875 2.765625 -5.84375 3.171875 -5.84375 Z M 3.390625 -2.640625 C 2.890625 -2.617188 2.539062 -2.523438 2.34375 -2.359375 C 2.144531 -2.191406 2.046875 -1.972656 2.046875 -1.703125 C 2.046875 -1.460938 2.113281 -1.289062 2.25 -1.1875 C 2.394531 -1.09375 2.578125 -1.046875 2.796875 -1.046875 C 3.140625 -1.046875 3.425781 -1.144531 3.65625 -1.34375 C 3.882812 -1.539062 4 -1.820312 4 -2.1875 L 4 -2.65625 Z M 3.390625 -2.640625 "/>
</g>
<g id="glyph-0-4">
<path d="M 7.546875 -5.84375 C 8.203125 -5.84375 8.695312 -5.675781 9.03125 -5.34375 C 9.363281 -5.007812 9.53125 -4.472656 9.53125 -3.734375 L 9.53125 0 L 7.953125 0 L 7.953125 -3.34375 C 7.953125 -4.175781 7.664062 -4.59375 7.09375 -4.59375 C 6.6875 -4.59375 6.394531 -4.441406 6.21875 -4.140625 C 6.039062 -3.847656 5.953125 -3.425781 5.953125 -2.875 L 5.953125 0 L 4.390625 0 L 4.390625 -3.34375 C 4.390625 -4.175781 4.101562 -4.59375 3.53125 -4.59375 C 3.09375 -4.59375 2.789062 -4.425781 2.625 -4.09375 C 2.46875 -3.769531 2.390625 -3.304688 2.390625 -2.703125 L 2.390625 0 L 0.8125 0 L 0.8125 -5.734375 L 2.015625 -5.734375 L 2.21875 -5 L 2.3125 -5 C 2.488281 -5.289062 2.726562 -5.503906 3.03125 -5.640625 C 3.332031 -5.773438 3.648438 -5.84375 3.984375 -5.84375 C 4.398438 -5.84375 4.753906 -5.769531 5.046875 -5.625 C 5.335938 -5.488281 5.5625 -5.28125 5.71875 -5 L 5.859375 -5 C 6.035156 -5.289062 6.28125 -5.503906 6.59375 -5.640625 C 6.90625 -5.773438 7.222656 -5.84375 7.546875 -5.84375 Z M 7.546875 -5.84375 "/>
</g>
<g id="glyph-0-5">
<path d="M 1.609375 -7.984375 C 1.835938 -7.984375 2.035156 -7.925781 2.203125 -7.8125 C 2.367188 -7.707031 2.453125 -7.507812 2.453125 -7.21875 C 2.453125 -6.925781 2.367188 -6.722656 2.203125 -6.609375 C 2.035156 -6.503906 1.835938 -6.453125 1.609375 -6.453125 C 1.367188 -6.453125 1.164062 -6.503906 1 -6.609375 C 0.832031 -6.722656 0.75 -6.925781 0.75 -7.21875 C 0.75 -7.507812 0.832031 -7.707031 1 -7.8125 C 1.164062 -7.925781 1.367188 -7.984375 1.609375 -7.984375 Z M 2.390625 -5.734375 L 2.390625 0 L 0.8125 0 L 0.8125 -5.734375 Z M 2.390625 -5.734375 "/>
</g>
<g id="glyph-0-6">
<path d="M 3.15625 0.109375 C 2.300781 0.109375 1.640625 -0.125 1.171875 -0.59375 C 0.703125 -1.070312 0.46875 -1.816406 0.46875 -2.828125 C 0.46875 -3.535156 0.585938 -4.109375 0.828125 -4.546875 C 1.066406 -4.984375 1.394531 -5.304688 1.8125 -5.515625 C 2.238281 -5.734375 2.726562 -5.84375 3.28125 -5.84375 C 3.675781 -5.84375 4.019531 -5.800781 4.3125 -5.71875 C 4.601562 -5.644531 4.859375 -5.554688 5.078125 -5.453125 L 4.609375 -4.234375 C 4.359375 -4.335938 4.125 -4.421875 3.90625 -4.484375 C 3.695312 -4.546875 3.488281 -4.578125 3.28125 -4.578125 C 2.46875 -4.578125 2.0625 -4 2.0625 -2.84375 C 2.0625 -2.269531 2.164062 -1.847656 2.375 -1.578125 C 2.59375 -1.304688 2.894531 -1.171875 3.28125 -1.171875 C 3.613281 -1.171875 3.90625 -1.210938 4.15625 -1.296875 C 4.40625 -1.378906 4.648438 -1.5 4.890625 -1.65625 L 4.890625 -0.328125 C 4.648438 -0.171875 4.398438 -0.0625 4.140625 0 C 3.878906 0.0703125 3.550781 0.109375 3.15625 0.109375 Z M 3.15625 0.109375 "/>
</g>
<g id="glyph-0-7">
<path d="M 2.390625 0 L 0.8125 0 L 0.8125 -7.984375 L 2.390625 -7.984375 Z M 2.390625 0 "/>
</g>
<g id="glyph-0-8">
<path d="M 6.03125 -2.875 C 6.03125 -1.925781 5.78125 -1.191406 5.28125 -0.671875 C 4.78125 -0.148438 4.097656 0.109375 3.234375 0.109375 C 2.703125 0.109375 2.226562 -0.00390625 1.8125 -0.234375 C 1.394531 -0.472656 1.066406 -0.8125 0.828125 -1.25 C 0.585938 -1.695312 0.46875 -2.238281 0.46875 -2.875 C 0.46875 -3.832031 0.71875 -4.566406 1.21875 -5.078125 C 1.71875 -5.585938 2.398438 -5.84375 3.265625 -5.84375 C 3.804688 -5.84375 4.28125 -5.722656 4.6875 -5.484375 C 5.101562 -5.253906 5.429688 -4.921875 5.671875 -4.484375 C 5.910156 -4.046875 6.03125 -3.507812 6.03125 -2.875 Z M 2.0625 -2.875 C 2.0625 -2.3125 2.15625 -1.882812 2.34375 -1.59375 C 2.53125 -1.300781 2.832031 -1.15625 3.25 -1.15625 C 3.664062 -1.15625 3.96875 -1.300781 4.15625 -1.59375 C 4.34375 -1.882812 4.4375 -2.3125 4.4375 -2.875 C 4.4375 -3.445312 4.34375 -3.875 4.15625 -4.15625 C 3.96875 -4.4375 3.664062 -4.578125 3.25 -4.578125 C 2.832031 -4.578125 2.53125 -4.4375 2.34375 -4.15625 C 2.15625 -3.875 2.0625 -3.445312 2.0625 -2.875 Z M 2.0625 -2.875 "/>
</g>
<g id="glyph-0-9">
<path d="M 3.1875 -5.84375 C 3.976562 -5.84375 4.601562 -5.613281 5.0625 -5.15625 C 5.519531 -4.707031 5.75 -4.066406 5.75 -3.234375 L 5.75 -2.484375 L 2.0625 -2.484375 C 2.070312 -2.035156 2.203125 -1.6875 2.453125 -1.4375 C 2.703125 -1.1875 3.046875 -1.0625 3.484375 -1.0625 C 3.859375 -1.0625 4.195312 -1.097656 4.5 -1.171875 C 4.800781 -1.242188 5.109375 -1.359375 5.421875 -1.515625 L 5.421875 -0.296875 C 5.148438 -0.160156 4.859375 -0.0625 4.546875 0 C 4.234375 0.0703125 3.851562 0.109375 3.40625 0.109375 C 2.832031 0.109375 2.328125 0.00390625 1.890625 -0.203125 C 1.453125 -0.421875 1.101562 -0.75 0.84375 -1.1875 C 0.59375 -1.625 0.46875 -2.171875 0.46875 -2.828125 C 0.46875 -3.492188 0.582031 -4.050781 0.8125 -4.5 C 1.039062 -4.945312 1.359375 -5.28125 1.765625 -5.5 C 2.171875 -5.726562 2.644531 -5.84375 3.1875 -5.84375 Z M 3.1875 -4.71875 C 2.882812 -4.71875 2.632812 -4.617188 2.4375 -4.421875 C 2.238281 -4.234375 2.125 -3.929688 2.09375 -3.515625 L 4.28125 -3.515625 C 4.28125 -3.867188 4.191406 -4.15625 4.015625 -4.375 C 3.835938 -4.601562 3.5625 -4.71875 3.1875 -4.71875 Z M 3.1875 -4.71875 "/>
</g>
<g id="glyph-0-10">
<path d="M 4.8125 -1.703125 C 4.8125 -1.117188 4.609375 -0.671875 4.203125 -0.359375 C 3.796875 -0.046875 3.1875 0.109375 2.375 0.109375 C 1.976562 0.109375 1.632812 0.0820312 1.34375 0.03125 C 1.050781 -0.0195312 0.765625 -0.109375 0.484375 -0.234375 L 0.484375 -1.515625 C 0.785156 -1.378906 1.113281 -1.265625 1.46875 -1.171875 C 1.832031 -1.085938 2.148438 -1.046875 2.421875 -1.046875 C 2.734375 -1.046875 2.953125 -1.085938 3.078125 -1.171875 C 3.210938 -1.265625 3.28125 -1.382812 3.28125 -1.53125 C 3.28125 -1.632812 3.253906 -1.722656 3.203125 -1.796875 C 3.148438 -1.867188 3.035156 -1.953125 2.859375 -2.046875 C 2.679688 -2.148438 2.40625 -2.28125 2.03125 -2.4375 C 1.675781 -2.59375 1.382812 -2.742188 1.15625 -2.890625 C 0.925781 -3.046875 0.753906 -3.226562 0.640625 -3.4375 C 0.523438 -3.65625 0.46875 -3.921875 0.46875 -4.234375 C 0.46875 -4.773438 0.675781 -5.175781 1.09375 -5.4375 C 1.507812 -5.707031 2.054688 -5.84375 2.734375 -5.84375 C 3.097656 -5.84375 3.4375 -5.804688 3.75 -5.734375 C 4.070312 -5.660156 4.40625 -5.546875 4.75 -5.390625 L 4.28125 -4.265625 C 4 -4.378906 3.734375 -4.476562 3.484375 -4.5625 C 3.234375 -4.644531 2.976562 -4.6875 2.71875 -4.6875 C 2.257812 -4.6875 2.03125 -4.5625 2.03125 -4.3125 C 2.03125 -4.21875 2.054688 -4.132812 2.109375 -4.0625 C 2.171875 -3.988281 2.285156 -3.910156 2.453125 -3.828125 C 2.628906 -3.742188 2.882812 -3.628906 3.21875 -3.484375 C 3.550781 -3.347656 3.835938 -3.207031 4.078125 -3.0625 C 4.316406 -2.925781 4.5 -2.75 4.625 -2.53125 C 4.75 -2.320312 4.8125 -2.046875 4.8125 -1.703125 Z M 4.8125 -1.703125 "/>
</g>
<g id="glyph-1-0">
<path d="M 5.953125 -3.75 C 5.953125 -2.96875 5.847656 -2.332031 5.640625 -1.84375 C 5.441406 -1.351562 5.175781 -0.972656 4.84375 -0.703125 C 4.519531 -0.441406 4.160156 -0.257812 3.765625 -0.15625 C 3.367188 -0.0507812 2.976562 0 2.59375 0 L 0.90625 0 L 0.90625 -7.421875 L 2.484375 -7.421875 C 2.921875 -7.421875 3.34375 -7.367188 3.75 -7.265625 C 4.15625 -7.171875 4.523438 -6.992188 4.859375 -6.734375 C 5.191406 -6.472656 5.457031 -6.101562 5.65625 -5.625 C 5.851562 -5.144531 5.953125 -4.519531 5.953125 -3.75 Z M 4.953125 -3.75 C 4.953125 -4.394531 4.882812 -4.910156 4.75 -5.296875 C 4.613281 -5.679688 4.429688 -5.96875 4.203125 -6.15625 C 3.984375 -6.351562 3.738281 -6.484375 3.46875 -6.546875 C 3.207031 -6.617188 2.953125 -6.65625 2.703125 -6.65625 L 1.828125 -6.65625 L 1.828125 -0.75 L 2.71875 -0.75 C 2.976562 -0.75 3.238281 -0.789062 3.5 -0.875 C 3.769531 -0.957031 4.015625 -1.101562 4.234375 -1.3125 C 4.453125 -1.53125 4.625 -1.835938 4.75 -2.234375 C 4.882812 -2.628906 4.953125 -3.132812 4.953125 -3.75 Z M 4.953125 -3.75 "/>
</g>
<g id="glyph-1-1">
<path d="M 5.796875 -5.671875 L 3.8125 0.03125 C 3.675781 0.414062 3.503906 0.769531 3.296875 1.09375 C 3.097656 1.414062 2.835938 1.679688 2.515625 1.890625 C 2.191406 2.097656 1.78125 2.226562 1.28125 2.28125 L 1.140625 1.5625 C 1.523438 1.488281 1.832031 1.382812 2.0625 1.25 C 2.289062 1.125 2.46875 0.957031 2.59375 0.75 C 2.726562 0.539062 2.847656 0.289062 2.953125 0 L 2.640625 0 L 0.65625 -5.671875 L 1.625 -5.671875 L 3.25 -0.6875 L 4.859375 -5.671875 Z M 5.796875 -5.671875 "/>
</g>
<g id="glyph-1-2">
<path d="M 1.078125 0 L 1.078125 -5.671875 L 1.859375 -5.671875 L 1.921875 -4.890625 C 2.148438 -5.171875 2.4375 -5.390625 2.78125 -5.546875 C 3.125 -5.703125 3.460938 -5.78125 3.796875 -5.78125 C 4.347656 -5.78125 4.75 -5.632812 5 -5.34375 C 5.257812 -5.050781 5.390625 -4.644531 5.390625 -4.125 L 5.390625 0 L 4.484375 0 L 4.484375 -3.453125 C 4.484375 -3.835938 4.460938 -4.148438 4.421875 -4.390625 C 4.378906 -4.628906 4.285156 -4.800781 4.140625 -4.90625 C 4.003906 -5.019531 3.796875 -5.078125 3.515625 -5.078125 C 3.296875 -5.078125 3.085938 -5.023438 2.890625 -4.921875 C 2.691406 -4.828125 2.515625 -4.707031 2.359375 -4.5625 C 2.210938 -4.414062 2.085938 -4.269531 1.984375 -4.125 L 1.984375 0 Z M 1.078125 0 "/>
</g>
<g id="glyph-1-3">
<path d="M 5.140625 -1.234375 C 5.140625 -1.003906 5.175781 -0.835938 5.25 -0.734375 C 5.332031 -0.628906 5.453125 -0.554688 5.609375 -0.515625 L 5.390625 0.125 C 5.140625 0.09375 4.921875 0.015625 4.734375 -0.109375 C 4.554688 -0.234375 4.425781 -0.421875 4.34375 -0.671875 C 4.132812 -0.410156 3.878906 -0.210938 3.578125 -0.078125 C 3.273438 0.0546875 2.9375 0.125 2.5625 0.125 C 2 0.125 1.550781 -0.03125 1.21875 -0.34375 C 0.894531 -0.664062 0.734375 -1.09375 0.734375 -1.625 C 0.734375 -2.207031 0.960938 -2.65625 1.421875 -2.96875 C 1.878906 -3.28125 2.535156 -3.4375 3.390625 -3.4375 L 4.234375 -3.4375 L 4.234375 -3.921875 C 4.234375 -4.328125 4.113281 -4.613281 3.875 -4.78125 C 3.632812 -4.957031 3.300781 -5.046875 2.875 -5.046875 C 2.6875 -5.046875 2.46875 -5.019531 2.21875 -4.96875 C 1.96875 -4.925781 1.695312 -4.851562 1.40625 -4.75 L 1.171875 -5.4375 C 1.515625 -5.5625 1.835938 -5.648438 2.140625 -5.703125 C 2.453125 -5.753906 2.742188 -5.78125 3.015625 -5.78125 C 3.722656 -5.78125 4.253906 -5.613281 4.609375 -5.28125 C 4.960938 -4.957031 5.140625 -4.515625 5.140625 -3.953125 Z M 2.796875 -0.5625 C 3.078125 -0.5625 3.34375 -0.628906 3.59375 -0.765625 C 3.851562 -0.910156 4.066406 -1.113281 4.234375 -1.375 L 4.234375 -2.828125 L 3.40625 -2.828125 C 2.789062 -2.828125 2.351562 -2.71875 2.09375 -2.5 C 1.832031 -2.289062 1.703125 -2.003906 1.703125 -1.640625 C 1.703125 -0.921875 2.066406 -0.5625 2.796875 -0.5625 Z M 2.796875 -0.5625 "/>
</g>
<g id="glyph-1-4">
<path d="M 4.8125 -5.78125 C 5 -5.78125 5.175781 -5.738281 5.34375 -5.65625 C 5.507812 -5.582031 5.644531 -5.429688 5.75 -5.203125 C 5.863281 -4.984375 5.921875 -4.65625 5.921875 -4.21875 L 5.921875 0 L 5.078125 0 L 5.078125 -4.078125 C 5.078125 -4.429688 5.054688 -4.6875 5.015625 -4.84375 C 4.972656 -5 4.847656 -5.078125 4.640625 -5.078125 C 4.472656 -5.078125 4.300781 -5.023438 4.125 -4.921875 C 3.957031 -4.816406 3.800781 -4.644531 3.65625 -4.40625 L 3.65625 0 L 2.8125 0 L 2.8125 -4.078125 C 2.8125 -4.429688 2.785156 -4.6875 2.734375 -4.84375 C 2.691406 -5 2.570312 -5.078125 2.375 -5.078125 C 2.195312 -5.078125 2.023438 -5.023438 1.859375 -4.921875 C 1.691406 -4.816406 1.53125 -4.644531 1.375 -4.40625 L 1.375 0 L 0.546875 0 L 0.546875 -5.671875 L 1.25 -5.671875 L 1.3125 -5.015625 C 1.46875 -5.234375 1.640625 -5.414062 1.828125 -5.5625 C 2.015625 -5.707031 2.253906 -5.78125 2.546875 -5.78125 C 2.753906 -5.78125 2.953125 -5.726562 3.140625 -5.625 C 3.335938 -5.53125 3.476562 -5.335938 3.5625 -5.046875 C 3.71875 -5.265625 3.894531 -5.441406 4.09375 -5.578125 C 4.289062 -5.710938 4.53125 -5.78125 4.8125 -5.78125 Z M 4.8125 -5.78125 "/>
</g>
<g id="glyph-1-5">
<path d="M 3.234375 -8.328125 C 3.429688 -8.328125 3.585938 -8.265625 3.703125 -8.140625 C 3.828125 -8.015625 3.890625 -7.863281 3.890625 -7.6875 C 3.890625 -7.507812 3.828125 -7.359375 3.703125 -7.234375 C 3.585938 -7.109375 3.429688 -7.046875 3.234375 -7.046875 C 3.046875 -7.046875 2.890625 -7.109375 2.765625 -7.234375 C 2.640625 -7.359375 2.578125 -7.507812 2.578125 -7.6875 C 2.578125 -7.863281 2.640625 -8.015625 2.765625 -8.140625 C 2.890625 -8.265625 3.046875 -8.328125 3.234375 -8.328125 Z M 3.953125 -5.671875 L 3.953125 -0.71875 L 5.546875 -0.71875 L 5.546875 0 L 1.296875 0 L 1.296875 -0.71875 L 3.046875 -0.71875 L 3.046875 -4.953125 L 1.34375 -4.953125 L 1.34375 -5.671875 Z M 3.953125 -5.671875 "/>
</g>
<g id="glyph-1-6">
<path d="M 3.640625 -0.65625 C 3.929688 -0.65625 4.195312 -0.703125 4.4375 -0.796875 C 4.6875 -0.890625 4.914062 -1.007812 5.125 -1.15625 L 5.5625 -0.5625 C 5.3125 -0.351562 5.007812 -0.1875 4.65625 -0.0625 C 4.3125 0.0625 3.972656 0.125 3.640625 0.125 C 3.078125 0.125 2.597656 0.00390625 2.203125 -0.234375 C 1.804688 -0.484375 1.503906 -0.828125 1.296875 -1.265625 C 1.085938 -1.703125 0.984375 -2.21875 0.984375 -2.8125 C 0.984375 -3.375 1.085938 -3.878906 1.296875 -4.328125 C 1.503906 -4.773438 1.804688 -5.128906 2.203125 -5.390625 C 2.609375 -5.648438 3.09375 -5.78125 3.65625 -5.78125 C 4.375 -5.78125 5.003906 -5.5625 5.546875 -5.125 L 5.109375 -4.53125 C 4.617188 -4.863281 4.128906 -5.03125 3.640625 -5.03125 C 3.148438 -5.03125 2.75 -4.847656 2.4375 -4.484375 C 2.125 -4.117188 1.96875 -3.5625 1.96875 -2.8125 C 1.96875 -2.050781 2.125 -1.5 2.4375 -1.15625 C 2.75 -0.820312 3.148438 -0.65625 3.640625 -0.65625 Z M 3.640625 -0.65625 "/>
</g>
<g id="glyph-1-7">
<path d="M 3.296875 -7.953125 L 3.296875 -1.40625 C 3.296875 -1.125 3.378906 -0.921875 3.546875 -0.796875 C 3.722656 -0.679688 3.953125 -0.625 4.234375 -0.625 C 4.398438 -0.625 4.5625 -0.640625 4.71875 -0.671875 C 4.875 -0.710938 5.03125 -0.765625 5.1875 -0.828125 L 5.421875 -0.171875 C 5.265625 -0.0859375 5.070312 -0.0195312 4.84375 0.03125 C 4.613281 0.09375 4.359375 0.125 4.078125 0.125 C 3.578125 0.125 3.171875 -0.0078125 2.859375 -0.28125 C 2.546875 -0.5625 2.390625 -0.953125 2.390625 -1.453125 L 2.390625 -7.234375 L 0.640625 -7.234375 L 0.640625 -7.953125 Z M 3.296875 -7.953125 "/>
</g>
<g id="glyph-1-8">
<path d="M 5.78125 -2.046875 C 5.78125 -1.617188 5.671875 -1.242188 5.453125 -0.921875 C 5.242188 -0.597656 4.9375 -0.34375 4.53125 -0.15625 C 4.132812 0.03125 3.644531 0.125 3.0625 0.125 C 2.519531 0.125 2.03125 0.0390625 1.59375 -0.125 C 1.15625 -0.289062 0.78125 -0.523438 0.46875 -0.828125 L 1.015625 -1.453125 C 1.273438 -1.210938 1.570312 -1.019531 1.90625 -0.875 C 2.238281 -0.726562 2.628906 -0.65625 3.078125 -0.65625 C 3.378906 -0.65625 3.660156 -0.703125 3.921875 -0.796875 C 4.191406 -0.898438 4.40625 -1.050781 4.5625 -1.25 C 4.726562 -1.457031 4.8125 -1.71875 4.8125 -2.03125 C 4.8125 -2.269531 4.765625 -2.472656 4.671875 -2.640625 C 4.578125 -2.816406 4.410156 -2.96875 4.171875 -3.09375 C 3.929688 -3.226562 3.601562 -3.359375 3.1875 -3.484375 C 2.695312 -3.628906 2.269531 -3.789062 1.90625 -3.96875 C 1.550781 -4.15625 1.273438 -4.378906 1.078125 -4.640625 C 0.890625 -4.898438 0.796875 -5.226562 0.796875 -5.625 C 0.796875 -6 0.894531 -6.328125 1.09375 -6.609375 C 1.300781 -6.898438 1.582031 -7.125 1.9375 -7.28125 C 2.300781 -7.445312 2.71875 -7.53125 3.1875 -7.53125 C 3.707031 -7.53125 4.15625 -7.457031 4.53125 -7.3125 C 4.90625 -7.164062 5.25 -6.957031 5.5625 -6.6875 L 5.015625 -6.078125 C 4.742188 -6.304688 4.457031 -6.472656 4.15625 -6.578125 C 3.851562 -6.691406 3.539062 -6.75 3.21875 -6.75 C 2.8125 -6.75 2.460938 -6.660156 2.171875 -6.484375 C 1.890625 -6.304688 1.75 -6.03125 1.75 -5.65625 C 1.75 -5.445312 1.804688 -5.265625 1.921875 -5.109375 C 2.035156 -4.953125 2.226562 -4.804688 2.5 -4.671875 C 2.769531 -4.546875 3.140625 -4.414062 3.609375 -4.28125 C 3.992188 -4.175781 4.347656 -4.039062 4.671875 -3.875 C 5.003906 -3.707031 5.269531 -3.476562 5.46875 -3.1875 C 5.675781 -2.90625 5.78125 -2.523438 5.78125 -2.046875 Z M 5.78125 -2.046875 "/>
</g>
<g id="glyph-1-9">
<path d="M 3.015625 -0.625 C 3.453125 -0.625 3.796875 -0.703125 4.046875 -0.859375 C 4.296875 -1.023438 4.421875 -1.25 4.421875 -1.53125 C 4.421875 -1.695312 4.390625 -1.84375 4.328125 -1.96875 C 4.265625 -2.09375 4.132812 -2.203125 3.9375 -2.296875 C 3.75 -2.398438 3.453125 -2.503906 3.046875 -2.609375 C 2.648438 -2.703125 2.304688 -2.8125 2.015625 -2.9375 C 1.734375 -3.070312 1.507812 -3.238281 1.34375 -3.4375 C 1.1875 -3.644531 1.109375 -3.914062 1.109375 -4.25 C 1.109375 -4.71875 1.304688 -5.085938 1.703125 -5.359375 C 2.109375 -5.640625 2.628906 -5.78125 3.265625 -5.78125 C 3.722656 -5.78125 4.117188 -5.71875 4.453125 -5.59375 C 4.796875 -5.476562 5.085938 -5.332031 5.328125 -5.15625 L 4.921875 -4.546875 C 4.710938 -4.691406 4.476562 -4.8125 4.21875 -4.90625 C 3.957031 -5.007812 3.644531 -5.0625 3.28125 -5.0625 C 2.832031 -5.0625 2.515625 -4.988281 2.328125 -4.84375 C 2.140625 -4.707031 2.046875 -4.53125 2.046875 -4.3125 C 2.046875 -4.144531 2.09375 -4.003906 2.1875 -3.890625 C 2.28125 -3.785156 2.4375 -3.6875 2.65625 -3.59375 C 2.875 -3.507812 3.175781 -3.414062 3.5625 -3.3125 C 3.925781 -3.21875 4.242188 -3.097656 4.515625 -2.953125 C 4.796875 -2.816406 5.015625 -2.640625 5.171875 -2.421875 C 5.328125 -2.203125 5.40625 -1.914062 5.40625 -1.5625 C 5.40625 -1.164062 5.289062 -0.84375 5.0625 -0.59375 C 4.832031 -0.34375 4.535156 -0.160156 4.171875 -0.046875 C 3.804688 0.0664062 3.421875 0.125 3.015625 0.125 C 2.492188 0.125 2.050781 0.0507812 1.6875 -0.09375 C 1.332031 -0.25 1.035156 -0.429688 0.796875 -0.640625 L 1.3125 -1.234375 C 1.53125 -1.054688 1.785156 -0.910156 2.078125 -0.796875 C 2.367188 -0.679688 2.679688 -0.625 3.015625 -0.625 Z M 3.015625 -0.625 "/>
</g>
<g id="glyph-1-10">
<path d="M 5.578125 -0.28125 C 5.390625 -0.15625 5.15625 -0.0546875 4.875 0.015625 C 4.601562 0.0859375 4.332031 0.125 4.0625 0.125 C 3.457031 0.125 2.988281 -0.03125 2.65625 -0.34375 C 2.320312 -0.664062 2.15625 -1.082031 2.15625 -1.59375 L 2.15625 -4.96875 L 0.859375 -4.96875 L 0.859375 -5.671875 L 2.15625 -5.671875 L 2.15625 -6.953125 L 3.0625 -7.0625 L 3.0625 -5.671875 L 5.03125 -5.671875 L 4.921875 -4.96875 L 3.0625 -4.96875 L 3.0625 -1.59375 C 3.0625 -1.28125 3.144531 -1.039062 3.3125 -0.875 C 3.476562 -0.707031 3.753906 -0.625 4.140625 -0.625 C 4.359375 -0.625 4.554688 -0.648438 4.734375 -0.703125 C 4.910156 -0.753906 5.078125 -0.820312 5.234375 -0.90625 Z M 5.578125 -0.28125 "/>
</g>
<g id="glyph-1-11">
<path d="M 1.796875 -2.515625 C 1.816406 -1.859375 1.988281 -1.378906 2.3125 -1.078125 C 2.632812 -0.773438 3.015625 -0.625 3.453125 -0.625 C 3.742188 -0.625 4.003906 -0.664062 4.234375 -0.75 C 4.472656 -0.84375 4.71875 -0.972656 4.96875 -1.140625 L 5.390625 -0.546875 C 5.128906 -0.335938 4.828125 -0.171875 4.484375 -0.046875 C 4.140625 0.0664062 3.789062 0.125 3.4375 0.125 C 2.882812 0.125 2.414062 0 2.03125 -0.25 C 1.644531 -0.5 1.347656 -0.84375 1.140625 -1.28125 C 0.941406 -1.726562 0.84375 -2.242188 0.84375 -2.828125 C 0.84375 -3.398438 0.941406 -3.910156 1.140625 -4.359375 C 1.347656 -4.804688 1.632812 -5.15625 2 -5.40625 C 2.375 -5.65625 2.816406 -5.78125 3.328125 -5.78125 C 4.035156 -5.78125 4.59375 -5.53125 5 -5.03125 C 5.414062 -4.539062 5.625 -3.867188 5.625 -3.015625 C 5.625 -2.910156 5.617188 -2.816406 5.609375 -2.734375 C 5.609375 -2.648438 5.609375 -2.578125 5.609375 -2.515625 Z M 3.328125 -5.046875 C 2.910156 -5.046875 2.5625 -4.894531 2.28125 -4.59375 C 2 -4.300781 1.835938 -3.84375 1.796875 -3.21875 L 4.75 -3.21875 C 4.738281 -3.820312 4.601562 -4.273438 4.34375 -4.578125 C 4.09375 -4.890625 3.753906 -5.046875 3.328125 -5.046875 Z M 3.328125 -5.046875 "/>
</g>
<g id="glyph-1-12">
<path d="M 5.78125 -5.34375 C 5.78125 -4.78125 5.609375 -4.328125 5.265625 -3.984375 C 4.921875 -3.640625 4.492188 -3.410156 3.984375 -3.296875 L 6.171875 0 L 5.0625 0 L 3.03125 -3.1875 L 2.03125 -3.1875 L 2.03125 0 L 1.09375 0 L 1.09375 -7.421875 L 3 -7.421875 C 3.914062 -7.421875 4.609375 -7.242188 5.078125 -6.890625 C 5.546875 -6.535156 5.78125 -6.019531 5.78125 -5.34375 Z M 4.78125 -5.34375 C 4.78125 -5.8125 4.644531 -6.148438 4.375 -6.359375 C 4.101562 -6.566406 3.679688 -6.671875 3.109375 -6.671875 L 2.03125 -6.671875 L 2.03125 -3.921875 L 3.109375 -3.921875 C 3.640625 -3.921875 4.050781 -4.023438 4.34375 -4.234375 C 4.632812 -4.453125 4.78125 -4.820312 4.78125 -5.34375 Z M 4.78125 -5.34375 "/>
</g>
<g id="glyph-1-13">
<path d="M 5.953125 -3.703125 C 5.953125 -2.953125 5.847656 -2.285156 5.640625 -1.703125 C 5.441406 -1.128906 5.140625 -0.679688 4.734375 -0.359375 C 4.335938 -0.0351562 3.835938 0.125 3.234375 0.125 C 2.628906 0.125 2.125 -0.03125 1.71875 -0.34375 C 1.3125 -0.664062 1.003906 -1.113281 0.796875 -1.6875 C 0.597656 -2.257812 0.5 -2.925781 0.5 -3.6875 C 0.5 -4.4375 0.597656 -5.097656 0.796875 -5.671875 C 1.003906 -6.253906 1.3125 -6.707031 1.71875 -7.03125 C 2.125 -7.363281 2.628906 -7.53125 3.234375 -7.53125 C 3.835938 -7.53125 4.335938 -7.367188 4.734375 -7.046875 C 5.140625 -6.734375 5.441406 -6.285156 5.640625 -5.703125 C 5.847656 -5.128906 5.953125 -4.460938 5.953125 -3.703125 Z M 4.984375 -3.703125 C 4.984375 -4.691406 4.847656 -5.445312 4.578125 -5.96875 C 4.304688 -6.488281 3.859375 -6.75 3.234375 -6.75 C 2.609375 -6.75 2.160156 -6.484375 1.890625 -5.953125 C 1.617188 -5.429688 1.484375 -4.675781 1.484375 -3.6875 C 1.484375 -2.695312 1.625 -1.941406 1.90625 -1.421875 C 2.1875 -0.910156 2.628906 -0.65625 3.234375 -0.65625 C 3.859375 -0.65625 4.304688 -0.914062 4.578125 -1.4375 C 4.847656 -1.957031 4.984375 -2.710938 4.984375 -3.703125 Z M 4.984375 -3.703125 "/>
</g>
<g id="glyph-1-14">
<path d="M 4.25 0 L 1.640625 -6.515625 C 1.640625 -6.410156 1.648438 -6.207031 1.671875 -5.90625 C 1.703125 -5.601562 1.722656 -5.257812 1.734375 -4.875 C 1.753906 -4.488281 1.765625 -4.101562 1.765625 -3.71875 L 1.765625 0 L 0.90625 0 L 0.90625 -7.421875 L 2.171875 -7.421875 L 4.8125 -0.859375 C 4.8125 -0.960938 4.800781 -1.15625 4.78125 -1.4375 C 4.757812 -1.71875 4.738281 -2.050781 4.71875 -2.4375 C 4.707031 -2.832031 4.703125 -3.253906 4.703125 -3.703125 L 4.703125 -7.421875 L 5.5625 -7.421875 L 5.5625 0 Z M 4.25 0 "/>
</g>
<g id="glyph-1-15">
<path d="M 3.234375 -5.78125 C 4.035156 -5.78125 4.640625 -5.515625 5.046875 -4.984375 C 5.460938 -4.453125 5.671875 -3.738281 5.671875 -2.84375 C 5.671875 -2.257812 5.578125 -1.742188 5.390625 -1.296875 C 5.203125 -0.859375 4.925781 -0.507812 4.5625 -0.25 C 4.195312 0 3.753906 0.125 3.234375 0.125 C 2.429688 0.125 1.820312 -0.140625 1.40625 -0.671875 C 1 -1.210938 0.796875 -1.929688 0.796875 -2.828125 C 0.796875 -3.410156 0.882812 -3.925781 1.0625 -4.375 C 1.25 -4.820312 1.523438 -5.164062 1.890625 -5.40625 C 2.253906 -5.65625 2.703125 -5.78125 3.234375 -5.78125 Z M 3.234375 -5.046875 C 2.753906 -5.046875 2.390625 -4.863281 2.140625 -4.5 C 1.890625 -4.144531 1.765625 -3.585938 1.765625 -2.828125 C 1.765625 -2.078125 1.882812 -1.519531 2.125 -1.15625 C 2.375 -0.800781 2.742188 -0.625 3.234375 -0.625 C 3.722656 -0.625 4.085938 -0.800781 4.328125 -1.15625 C 4.578125 -1.519531 4.703125 -2.082031 4.703125 -2.84375 C 4.703125 -3.59375 4.578125 -4.144531 4.328125 -4.5 C 4.085938 -4.863281 3.722656 -5.046875 3.234375 -5.046875 Z M 3.234375 -5.046875 "/>
</g>
<g id="glyph-1-16">
<path d="M 4.46875 -8.0625 L 5.375 -7.953125 L 5.375 0 L 4.59375 0 L 4.5 -0.75 C 4.289062 -0.445312 4.046875 -0.222656 3.765625 -0.078125 C 3.492188 0.0546875 3.203125 0.125 2.890625 0.125 C 2.398438 0.125 1.992188 0 1.671875 -0.25 C 1.359375 -0.5 1.125 -0.84375 0.96875 -1.28125 C 0.8125 -1.726562 0.734375 -2.242188 0.734375 -2.828125 C 0.734375 -3.390625 0.820312 -3.894531 1 -4.34375 C 1.175781 -4.789062 1.425781 -5.140625 1.75 -5.390625 C 2.082031 -5.648438 2.484375 -5.78125 2.953125 -5.78125 C 3.585938 -5.78125 4.09375 -5.5625 4.46875 -5.125 Z M 3.1875 -5.0625 C 2.71875 -5.0625 2.351562 -4.875 2.09375 -4.5 C 1.84375 -4.132812 1.71875 -3.578125 1.71875 -2.828125 C 1.71875 -1.347656 2.171875 -0.609375 3.078125 -0.609375 C 3.398438 -0.609375 3.675781 -0.695312 3.90625 -0.875 C 4.132812 -1.0625 4.320312 -1.269531 4.46875 -1.5 L 4.46875 -4.328125 C 4.320312 -4.554688 4.140625 -4.734375 3.921875 -4.859375 C 3.703125 -4.992188 3.457031 -5.0625 3.1875 -5.0625 Z M 3.1875 -5.0625 "/>
</g>
<g id="glyph-2-0">
<path d="M 5.875 0 L 5.875 -0.265625 L 5.65625 -0.28125 C 5.25 -0.328125 5.09375 -0.546875 5.09375 -1.03125 L 5.09375 -4.359375 L 4.78125 -4.359375 C 4.3125 -4.25 4.140625 -4.234375 3.421875 -4.1875 L 3.421875 -3.921875 L 3.640625 -3.890625 C 4.109375 -3.859375 4.234375 -3.6875 4.234375 -3.15625 L 4.234375 -1.140625 C 3.640625 -0.609375 3.109375 -0.34375 2.65625 -0.34375 C 2.09375 -0.34375 1.84375 -0.65625 1.84375 -1.34375 L 1.84375 -4.359375 L 1.53125 -4.359375 C 1.078125 -4.25 0.875 -4.234375 0.1875 -4.1875 L 0.1875 -3.921875 L 0.390625 -3.890625 C 0.859375 -3.859375 0.984375 -3.6875 0.984375 -3.15625 L 0.984375 -1.265625 C 0.984375 -0.1875 1.6875 0.078125 2.328125 0.078125 C 2.984375 0.078125 3.46875 -0.140625 4.234375 -0.75 L 4.234375 0 Z M 5.875 0 "/>
</g>
<g id="glyph-2-1">
<path d="M 4.390625 -1.375 C 4.390625 -1.984375 4.015625 -2.34375 3.234375 -2.53125 L 1.984375 -2.84375 C 1.6875 -2.921875 1.28125 -3.015625 1.28125 -3.40625 C 1.28125 -3.796875 1.671875 -4.09375 2.203125 -4.09375 C 2.875 -4.09375 3.46875 -3.65625 3.765625 -2.9375 L 4.0625 -2.9375 L 3.765625 -4.328125 L 3.515625 -4.328125 L 3.421875 -4 C 3.046875 -4.3125 2.640625 -4.453125 2.140625 -4.453125 C 1.21875 -4.453125 0.5 -3.875 0.5 -3.125 C 0.5 -2.5625 0.875 -2.234375 1.84375 -1.984375 L 2.984375 -1.703125 C 3.4375 -1.578125 3.640625 -1.390625 3.640625 -1.109375 C 3.640625 -0.640625 3.140625 -0.28125 2.484375 -0.28125 C 1.921875 -0.28125 1.375 -0.515625 1.046875 -0.921875 C 0.875 -1.109375 0.796875 -1.296875 0.671875 -1.640625 L 0.359375 -1.640625 L 0.671875 -0.03125 L 0.96875 -0.03125 L 1.0625 -0.40625 C 1.546875 -0.046875 1.921875 0.078125 2.515625 0.078125 C 3.59375 0.078125 4.390625 -0.546875 4.390625 -1.375 Z M 4.390625 -1.375 "/>
</g>
<g id="glyph-2-2">
<path d="M 4.421875 -1.046875 L 4.125 -1.1875 C 3.796875 -0.59375 3.390625 -0.328125 2.828125 -0.328125 C 1.609375 -0.328125 1.296875 -1.28125 1.296875 -2.59375 L 4.421875 -2.59375 C 4.421875 -4.0625 3.125 -4.453125 2.453125 -4.453125 C 1.21875 -4.453125 0.328125 -3.515625 0.328125 -2.21875 C 0.328125 -1.21875 0.96875 0.078125 2.5625 0.078125 C 3.390625 0.078125 3.953125 -0.265625 4.421875 -1.046875 Z M 3.484375 -2.96875 L 1.328125 -2.96875 C 1.421875 -3.5625 1.671875 -4.09375 2.421875 -4.09375 C 3.34375 -4.09375 3.5 -3.21875 3.484375 -2.984375 Z M 3.484375 -2.96875 "/>
</g>
<g id="glyph-2-3">
<path d="M 5.3125 0 L 5.3125 -0.265625 L 5.21875 -0.28125 C 4.796875 -0.375 4.65625 -0.5625 4.65625 -1.03125 L 4.65625 -6.453125 L 4.296875 -6.453125 C 3.859375 -6.265625 3.640625 -6.21875 3.03125 -6.140625 L 3.03125 -5.875 L 3.21875 -5.84375 C 3.703125 -5.8125 3.8125 -5.640625 3.8125 -4.84375 L 3.8125 -3.96875 C 3.328125 -4.296875 2.859375 -4.453125 2.3125 -4.453125 C 1.1875 -4.453125 0.328125 -3.46875 0.328125 -2.171875 C 0.328125 -1.09375 0.96875 0.078125 2.25 0.078125 C 3.1875 0.078125 3.6875 -0.46875 3.8125 -0.609375 L 3.8125 0 Z M 3.8125 -1.0625 C 3.40625 -0.5625 3.015625 -0.34375 2.515625 -0.34375 C 1.5 -0.34375 1.25 -1.46875 1.25 -2.1875 C 1.25 -2.828125 1.46875 -4.046875 2.578125 -4.046875 C 3.015625 -4.046875 3.328125 -3.90625 3.8125 -3.5 Z M 3.8125 -1.0625 "/>
</g>
<g id="glyph-2-4">
</g>
<g id="glyph-2-5">
<path d="M 5.234375 -2.234375 C 5.234375 -3.515625 4.390625 -4.453125 3.1875 -4.453125 C 2.5625 -4.453125 2.125 -4.265625 1.625 -3.796875 L 1.625 -6.453125 L 1.265625 -6.453125 C 0.796875 -6.265625 0.59375 -6.21875 -0.015625 -6.140625 L -0.015625 -5.875 L 0.1875 -5.84375 C 0.671875 -5.8125 0.765625 -5.640625 0.765625 -4.84375 L 0.765625 0 L 1.265625 0 L 1.484375 -0.515625 C 2.078125 -0.078125 2.484375 0.078125 3.0625 0.078125 C 4.34375 0.078125 5.234375 -0.875 5.234375 -2.234375 Z M 4.3125 -2.203125 C 4.3125 -1.078125 3.75 -0.34375 2.859375 -0.34375 C 2.359375 -0.34375 1.96875 -0.515625 1.625 -0.859375 L 1.625 -3.3125 C 2.078125 -3.828125 2.4375 -4.015625 2.953125 -4.015625 C 3.796875 -4.015625 4.3125 -3.328125 4.3125 -2.203125 Z M 4.3125 -2.203125 "/>
</g>
<g id="glyph-2-6">
<path d="M 4.9375 -4.09375 L 4.9375 -4.359375 L 2.96875 -4.359375 L 2.96875 -4.09375 C 3.53125 -3.984375 3.765625 -3.890625 3.40625 -2.96875 L 2.5625 -0.84375 L 1.4375 -3.578125 C 1.328125 -3.84375 1.4375 -4.046875 1.890625 -4.09375 L 1.890625 -4.359375 L -0.203125 -4.359375 L -0.203125 -4.09375 C 0.234375 -4.015625 0.34375 -3.9375 0.515625 -3.515625 L 2.125 0.25 L 1.90625 0.765625 C 1.703125 1.25 1.390625 1.578125 1.140625 1.578125 C 1.046875 1.578125 0.96875 1.53125 0.84375 1.40625 C 0.625 1.171875 0.53125 1.109375 0.34375 1.109375 C 0.09375 1.109375 -0.125 1.328125 -0.125 1.5625 C -0.125 1.90625 0.234375 2.171875 0.71875 2.171875 C 1.765625 2.171875 2.265625 0.875 2.46875 0.390625 L 4.015625 -3.265625 C 4.234375 -3.765625 4.453125 -3.96875 4.9375 -4.09375 Z M 4.9375 -4.09375 "/>
</g>
<g id="glyph-3-0">
<path d="M 1.96875 -3.234375 C 1.96875 -2.585938 2.039062 -2.03125 2.1875 -1.5625 C 2.332031 -1.101562 2.550781 -0.679688 2.84375 -0.296875 C 3.132812 0.0859375 3.5 0.476562 3.9375 0.875 L 3.53125 1.296875 C 3.03125 0.890625 2.601562 0.472656 2.25 0.046875 C 1.894531 -0.378906 1.625 -0.851562 1.4375 -1.375 C 1.25 -1.90625 1.15625 -2.523438 1.15625 -3.234375 C 1.15625 -3.929688 1.25 -4.539062 1.4375 -5.0625 C 1.625 -5.59375 1.894531 -6.070312 2.25 -6.5 C 2.601562 -6.925781 3.03125 -7.34375 3.53125 -7.75 L 3.9375 -7.328125 C 3.601562 -7.035156 3.3125 -6.742188 3.0625 -6.453125 C 2.820312 -6.171875 2.617188 -5.875 2.453125 -5.5625 C 2.285156 -5.25 2.160156 -4.898438 2.078125 -4.515625 C 2.003906 -4.140625 1.96875 -3.710938 1.96875 -3.234375 Z M 1.96875 -3.234375 "/>
</g>
<g id="glyph-3-1">
<path d="M 3.796875 -6.90625 C 4.054688 -6.90625 4.289062 -6.882812 4.5 -6.84375 C 4.71875 -6.800781 4.921875 -6.738281 5.109375 -6.65625 L 4.859375 -6.078125 C 4.703125 -6.140625 4.535156 -6.1875 4.359375 -6.21875 C 4.179688 -6.257812 4.003906 -6.28125 3.828125 -6.28125 C 3.140625 -6.28125 2.796875 -6.007812 2.796875 -5.46875 L 2.796875 -4.484375 L 4.453125 -4.484375 L 4.359375 -3.875 L 2.796875 -3.875 L 2.796875 0 L 2.03125 0 L 2.03125 -3.875 L 0.875 -3.875 L 0.875 -4.484375 L 2.03125 -4.484375 L 2.03125 -5.453125 C 2.03125 -5.753906 2.109375 -6.015625 2.265625 -6.234375 C 2.421875 -6.453125 2.628906 -6.617188 2.890625 -6.734375 C 3.160156 -6.847656 3.460938 -6.90625 3.796875 -6.90625 Z M 3.796875 -6.90625 "/>
</g>
<g id="glyph-3-2">
<path d="M 2.765625 -1.515625 C 2.984375 -1.515625 3.160156 -1.441406 3.296875 -1.296875 C 3.441406 -1.148438 3.515625 -0.976562 3.515625 -0.78125 C 3.515625 -0.664062 3.5 -0.550781 3.46875 -0.4375 C 3.445312 -0.320312 3.40625 -0.195312 3.34375 -0.0625 L 2.59375 1.65625 L 1.890625 1.65625 L 2.328125 -0.171875 C 2.128906 -0.316406 2.03125 -0.519531 2.03125 -0.78125 C 2.03125 -0.976562 2.097656 -1.148438 2.234375 -1.296875 C 2.378906 -1.441406 2.554688 -1.515625 2.765625 -1.515625 Z M 2.765625 -1.515625 "/>
</g>
<g id="glyph-3-3">
<path d="M 1.703125 -6.890625 L 1.703125 -4.203125 C 1.890625 -4.453125 2.125 -4.640625 2.40625 -4.765625 C 2.6875 -4.898438 2.96875 -4.96875 3.25 -4.96875 C 3.726562 -4.96875 4.078125 -4.835938 4.296875 -4.578125 C 4.515625 -4.328125 4.625 -3.976562 4.625 -3.53125 L 4.625 0 L 3.84375 0 L 3.84375 -3.515625 C 3.84375 -3.804688 3.773438 -4.019531 3.640625 -4.15625 C 3.503906 -4.289062 3.289062 -4.359375 3 -4.359375 C 2.820312 -4.359375 2.648438 -4.316406 2.484375 -4.234375 C 2.316406 -4.148438 2.164062 -4.046875 2.03125 -3.921875 C 1.894531 -3.796875 1.785156 -3.671875 1.703125 -3.546875 L 1.703125 0 L 0.921875 0 L 0.921875 -6.8125 Z M 1.703125 -6.890625 "/>
</g>
<g id="glyph-3-4">
<path d="M 3.578125 -3.234375 C 3.578125 -3.710938 3.535156 -4.140625 3.453125 -4.515625 C 3.367188 -4.898438 3.242188 -5.25 3.078125 -5.5625 C 2.921875 -5.875 2.71875 -6.171875 2.46875 -6.453125 C 2.21875 -6.742188 1.925781 -7.035156 1.59375 -7.328125 L 2 -7.75 C 2.5 -7.34375 2.925781 -6.925781 3.28125 -6.5 C 3.644531 -6.070312 3.921875 -5.59375 4.109375 -5.0625 C 4.296875 -4.539062 4.390625 -3.929688 4.390625 -3.234375 C 4.390625 -2.523438 4.296875 -1.90625 4.109375 -1.375 C 3.921875 -0.851562 3.644531 -0.378906 3.28125 0.046875 C 2.925781 0.472656 2.5 0.890625 2 1.296875 L 1.59375 0.875 C 2.039062 0.476562 2.410156 0.0859375 2.703125 -0.296875 C 2.992188 -0.679688 3.210938 -1.101562 3.359375 -1.5625 C 3.503906 -2.03125 3.578125 -2.585938 3.578125 -3.234375 Z M 3.578125 -3.234375 "/>
</g>
<g id="glyph-4-0">
<path d="M 1.125 -3.21875 L 1.125 -0.9375 C 1.125 -0.726562 1.164062 -0.578125 1.25 -0.484375 C 1.34375 -0.390625 1.484375 -0.34375 1.671875 -0.34375 C 1.847656 -0.34375 2.015625 -0.390625 2.171875 -0.484375 C 2.328125 -0.585938 2.453125 -0.707031 2.546875 -0.84375 L 2.546875 -3.21875 L 3.0625 -3.21875 L 3.0625 0 L 2.625 0 L 2.578125 -0.4375 C 2.453125 -0.269531 2.296875 -0.140625 2.109375 -0.046875 C 1.921875 0.0351562 1.734375 0.078125 1.546875 0.078125 C 1.234375 0.078125 1 -0.00390625 0.84375 -0.171875 C 0.6875 -0.335938 0.609375 -0.570312 0.609375 -0.875 L 0.609375 -3.21875 Z M 1.125 -3.21875 "/>
</g>
<g id="glyph-4-1">
<path d="M 0.3125 1.109375 L 0.3125 0.65625 L 3.359375 0.65625 L 3.359375 1.109375 Z M 0.3125 1.109375 "/>
</g>
<g id="glyph-4-2">
<path d="M 1.15625 -4.578125 L 1.15625 0 L 0.65625 0 L 0.65625 -4.515625 Z M 3.3125 -3.21875 L 1.859375 -1.765625 L 3.484375 0 L 2.8125 0 L 1.21875 -1.765625 L 2.640625 -3.21875 Z M 3.3125 -3.21875 "/>
</g>
<g id="glyph-4-3">
<path d="M 3.296875 -3.21875 L 2.15625 0.015625 C 2.082031 0.234375 1.988281 0.429688 1.875 0.609375 C 1.757812 0.796875 1.609375 0.945312 1.421875 1.0625 C 1.242188 1.1875 1.007812 1.265625 0.71875 1.296875 L 0.640625 0.890625 C 0.867188 0.847656 1.046875 0.789062 1.171875 0.71875 C 1.296875 0.644531 1.394531 0.546875 1.46875 0.421875 C 1.550781 0.304688 1.617188 0.164062 1.671875 0 L 1.5 0 L 0.375 -3.21875 L 0.921875 -3.21875 L 1.859375 -0.390625 L 2.765625 -3.21875 Z M 3.296875 -3.21875 "/>
</g>
<g id="glyph-5-0">
<path d="M 0.625 0.546875 L 0.28125 0.375 L 2.515625 -4.234375 L 2.875 -4.0625 Z M 0.625 0.546875 "/>
</g>
<g id="glyph-5-1">
<path d="M 2.828125 -2.765625 L 1.859375 0.015625 C 1.785156 0.203125 1.695312 0.375 1.59375 0.53125 C 1.5 0.6875 1.375 0.816406 1.21875 0.921875 C 1.0625 1.023438 0.863281 1.085938 0.625 1.109375 L 0.546875 0.75 C 0.742188 0.71875 0.894531 0.671875 1 0.609375 C 1.113281 0.546875 1.203125 0.460938 1.265625 0.359375 C 1.328125 0.265625 1.382812 0.144531 1.4375 0 L 1.28125 0 L 0.328125 -2.765625 L 0.796875 -2.765625 L 1.578125 -0.328125 L 2.359375 -2.765625 Z M 2.828125 -2.765625 "/>
</g>
<g id="glyph-5-2">
<path d="M 0.265625 0.953125 L 0.265625 0.5625 L 2.875 0.5625 L 2.875 0.953125 Z M 0.265625 0.953125 "/>
</g>
<g id="glyph-5-3">
<path d="M 1 -3.921875 L 1 0 L 0.5625 0 L 0.5625 -3.875 Z M 2.84375 -2.765625 L 1.59375 -1.515625 L 2.984375 0 L 2.40625 0 L 1.046875 -1.5 L 2.265625 -2.765625 Z M 2.84375 -2.765625 "/>
</g>
<g id="glyph-5-4">
<path d="M 0.96875 -2.765625 L 0.96875 -0.796875 C 0.96875 -0.617188 1.003906 -0.488281 1.078125 -0.40625 C 1.148438 -0.332031 1.269531 -0.296875 1.4375 -0.296875 C 1.582031 -0.296875 1.722656 -0.335938 1.859375 -0.421875 C 1.992188 -0.503906 2.097656 -0.609375 2.171875 -0.734375 L 2.171875 -2.765625 L 2.625 -2.765625 L 2.625 0 L 2.25 0 L 2.203125 -0.375 C 2.097656 -0.226562 1.960938 -0.117188 1.796875 -0.046875 C 1.640625 0.0234375 1.484375 0.0625 1.328125 0.0625 C 1.054688 0.0625 0.851562 -0.00390625 0.71875 -0.140625 C 0.59375 -0.285156 0.53125 -0.488281 0.53125 -0.75 L 0.53125 -2.765625 Z M 0.96875 -2.765625 "/>
</g>
<g id="glyph-6-0">
<path d="M 1.484375 -2.453125 C 1.484375 -1.960938 1.535156 -1.539062 1.640625 -1.1875 C 1.753906 -0.832031 1.921875 -0.507812 2.140625 -0.21875 C 2.367188 0.0703125 2.648438 0.363281 2.984375 0.65625 L 2.671875 0.984375 C 2.296875 0.671875 1.972656 0.351562 1.703125 0.03125 C 1.429688 -0.289062 1.222656 -0.648438 1.078125 -1.046875 C 0.941406 -1.453125 0.875 -1.921875 0.875 -2.453125 C 0.875 -2.972656 0.941406 -3.429688 1.078125 -3.828125 C 1.222656 -4.234375 1.429688 -4.597656 1.703125 -4.921875 C 1.972656 -5.242188 2.296875 -5.5625 2.671875 -5.875 L 2.984375 -5.546875 C 2.734375 -5.328125 2.515625 -5.109375 2.328125 -4.890625 C 2.140625 -4.671875 1.984375 -4.441406 1.859375 -4.203125 C 1.734375 -3.972656 1.640625 -3.710938 1.578125 -3.421875 C 1.515625 -3.140625 1.484375 -2.816406 1.484375 -2.453125 Z M 1.484375 -2.453125 "/>
</g>
<g id="glyph-6-1">
<path d="M 2.875 -5.234375 C 3.070312 -5.234375 3.25 -5.210938 3.40625 -5.171875 C 3.570312 -5.140625 3.726562 -5.09375 3.875 -5.03125 L 3.6875 -4.59375 C 3.5625 -4.644531 3.429688 -4.679688 3.296875 -4.703125 C 3.171875 -4.734375 3.035156 -4.75 2.890625 -4.75 C 2.378906 -4.75 2.125 -4.546875 2.125 -4.140625 L 2.125 -3.390625 L 3.375 -3.390625 L 3.3125 -2.9375 L 2.125 -2.9375 L 2.125 0 L 1.53125 0 L 1.53125 -2.9375 L 0.65625 -2.9375 L 0.65625 -3.390625 L 1.53125 -3.390625 L 1.53125 -4.125 C 1.53125 -4.351562 1.585938 -4.550781 1.703125 -4.71875 C 1.828125 -4.882812 1.988281 -5.007812 2.1875 -5.09375 C 2.394531 -5.1875 2.625 -5.234375 2.875 -5.234375 Z M 2.875 -5.234375 "/>
</g>
<g id="glyph-6-2">
<path d="M 2.09375 -1.15625 C 2.257812 -1.15625 2.394531 -1.097656 2.5 -0.984375 C 2.601562 -0.878906 2.65625 -0.75 2.65625 -0.59375 C 2.65625 -0.507812 2.644531 -0.421875 2.625 -0.328125 C 2.613281 -0.242188 2.582031 -0.148438 2.53125 -0.046875 L 1.953125 1.25 L 1.421875 1.25 L 1.765625 -0.125 C 1.609375 -0.238281 1.53125 -0.394531 1.53125 -0.59375 C 1.53125 -0.75 1.582031 -0.878906 1.6875 -0.984375 C 1.800781 -1.097656 1.9375 -1.15625 2.09375 -1.15625 Z M 2.09375 -1.15625 "/>
</g>
<g id="glyph-6-3">
<path d="M 1.296875 -5.21875 L 1.296875 -3.171875 C 1.429688 -3.367188 1.601562 -3.515625 1.8125 -3.609375 C 2.03125 -3.703125 2.25 -3.75 2.46875 -3.75 C 2.820312 -3.75 3.082031 -3.65625 3.25 -3.46875 C 3.414062 -3.28125 3.5 -3.015625 3.5 -2.671875 L 3.5 0 L 2.90625 0 L 2.90625 -2.65625 C 2.90625 -2.875 2.851562 -3.035156 2.75 -3.140625 C 2.65625 -3.242188 2.5 -3.296875 2.28125 -3.296875 C 2.132812 -3.296875 2 -3.265625 1.875 -3.203125 C 1.75 -3.140625 1.632812 -3.0625 1.53125 -2.96875 C 1.4375 -2.875 1.359375 -2.773438 1.296875 -2.671875 L 1.296875 0 L 0.703125 0 L 0.703125 -5.15625 Z M 1.296875 -5.21875 "/>
</g>
<g id="glyph-6-4">
<path d="M 2.703125 -2.453125 C 2.703125 -2.816406 2.671875 -3.140625 2.609375 -3.421875 C 2.546875 -3.710938 2.453125 -3.972656 2.328125 -4.203125 C 2.210938 -4.441406 2.0625 -4.671875 1.875 -4.890625 C 1.6875 -5.109375 1.46875 -5.328125 1.21875 -5.546875 L 1.515625 -5.875 C 1.890625 -5.5625 2.210938 -5.242188 2.484375 -4.921875 C 2.753906 -4.597656 2.960938 -4.234375 3.109375 -3.828125 C 3.253906 -3.429688 3.328125 -2.972656 3.328125 -2.453125 C 3.328125 -1.921875 3.253906 -1.453125 3.109375 -1.046875 C 2.960938 -0.648438 2.753906 -0.289062 2.484375 0.03125 C 2.210938 0.351562 1.890625 0.671875 1.515625 0.984375 L 1.21875 0.65625 C 1.550781 0.363281 1.828125 0.0703125 2.046875 -0.21875 C 2.265625 -0.507812 2.425781 -0.832031 2.53125 -1.1875 C 2.644531 -1.539062 2.703125 -1.960938 2.703125 -2.453125 Z M 2.703125 -2.453125 "/>
</g>
</g>
<clipPath id="clip-0">
<path clip-rule="nonzero" d="M 0 0 L 260.625 0 L 260.625 139.203125 L 0 139.203125 Z M 0 0 "/>
</clipPath>
</defs>
<g clip-path="url(#clip-0)">
<path fill="none" stroke-width="0.852242" stroke-linecap="butt" stroke-linejoin="miter" stroke="rgb(0%, 0%, 0%)" stroke-opacity="1" stroke-miterlimit="4" d="M 2.304688 0.425781 L 99.101562 0.425781 C 100 0.582031 100.703125 0.984375 100.976562 1.5 L 106.234375 10.011719 L 258.320312 10.011719 C 259.359375 10.011719 260.199219 10.492188 260.199219 11.085938 L 260.199219 137.703125 C 260.199219 138.296875 259.359375 138.777344 258.320312 138.777344 L 2.304688 138.777344 C 1.265625 138.777344 0.425781 138.296875 0.425781 137.703125 L 0.425781 1.5 C 0.425781 0.90625 1.265625 0.425781 2.304688 0.425781 "/>
</g>
<path fill="none" stroke-width="1.125" stroke-linecap="butt" stroke-linejoin="miter" stroke="rgb(0%, 0%, 0%)" stroke-opacity="1" stroke-miterlimit="4" d="M 0.5625 17.285156 L 106.257812 17.285156 "/>
<g fill="rgb(0%, 0%, 0%)" fill-opacity="1">
<use xlink:href="#glyph-0-0" x="3.562507" y="11.808826"/>
</g>
<g fill="rgb(0%, 0%, 0%)" fill-opacity="1">
<use xlink:href="#glyph-0-1" x="10.986007" y="11.808826"/>
</g>
<g fill="rgb(0%, 0%, 0%)" fill-opacity="1">
<use xlink:href="#glyph-0-2" x="17.748007" y="11.808826"/>
</g>
<g fill="rgb(0%, 0%, 0%)" fill-opacity="1">
<use xlink:href="#glyph-0-3" x="25.423507" y="11.808826"/>
</g>
<g fill="rgb(0%, 0%, 0%)" fill-opacity="1">
<use xlink:href="#glyph-0-4" x="32.553007" y="11.808826"/>
</g>
<g fill="rgb(0%, 0%, 0%)" fill-opacity="1">
<use xlink:href="#glyph-0-5" x="43.641007" y="11.808826"/>
</g>
<g fill="rgb(0%, 0%, 0%)" fill-opacity="1">
<use xlink:href="#glyph-0-6" x="47.631007" y="11.808826"/>
</g>
<g fill="rgb(0%, 0%, 0%)" fill-opacity="1">
<use xlink:href="#glyph-0-3" x="53.805007" y="11.808826"/>
</g>
<g fill="rgb(0%, 0%, 0%)" fill-opacity="1">
<use xlink:href="#glyph-0-7" x="60.934507" y="11.808826"/>
</g>
<g fill="rgb(0%, 0%, 0%)" fill-opacity="1">
<use xlink:href="#glyph-0-2" x="64.914007" y="11.808826"/>
</g>
<g fill="rgb(0%, 0%, 0%)" fill-opacity="1">
<use xlink:href="#glyph-0-8" x="72.589507" y="11.808826"/>
</g>
<g fill="rgb(0%, 0%, 0%)" fill-opacity="1">
<use xlink:href="#glyph-0-0" x="79.876507" y="11.808826"/>
</g>
<g fill="rgb(0%, 0%, 0%)" fill-opacity="1">
<use xlink:href="#glyph-0-9" x="87.300007" y="11.808826"/>
</g>
<g fill="rgb(0%, 0%, 0%)" fill-opacity="1">
<use xlink:href="#glyph-0-10" x="94.293007" y="11.808826"/>
</g>
<path fill-rule="nonzero" fill="rgb(94.508362%, 94.508362%, 94.508362%)" fill-opacity="1" stroke-width="0.212966" stroke-linecap="butt" stroke-linejoin="miter" stroke="rgb(9.411621%, 9.411621%, 9.411621%)" stroke-opacity="1" stroke-miterlimit="4" d="M 14.203125 26.363281 L 129.421875 26.363281 C 130.460938 26.363281 131.296875 26.632812 131.296875 26.96875 L 131.296875 49.164062 C 131.296875 49.5 130.460938 49.769531 129.421875 49.769531 L 14.203125 49.769531 C 13.160156 49.769531 12.324219 49.5 12.324219 49.164062 L 12.324219 26.96875 C 12.324219 26.632812 13.160156 26.363281 14.203125 26.363281 Z M 14.203125 26.363281 "/>
<path fill-rule="nonzero" fill="rgb(0%, 100%, 100%)" fill-opacity="1" stroke-width="0.749999" stroke-linecap="butt" stroke-linejoin="miter" stroke="rgb(9.411621%, 9.411621%, 9.411621%)" stroke-opacity="1" stroke-miterlimit="4" d="M 31.90625 37.453125 C 31.90625 42.011719 28.210938 45.703125 23.65625 45.703125 C 19.097656 45.703125 15.40625 42.011719 15.40625 37.453125 C 15.40625 32.898438 19.097656 29.203125 23.65625 29.203125 C 28.210938 29.203125 31.90625 32.898438 31.90625 37.453125 Z M 31.90625 37.453125 "/>
<path fill-rule="nonzero" fill="rgb(0%, 0%, 0%)" fill-opacity="1" d="M 25.882812 41.683594 C 25.59375 41.832031 25.289062 41.941406 24.96875 42.011719 C 24.648438 42.089844 24.3125 42.128906 23.960938 42.128906 C 22.710938 42.128906 21.753906 41.71875 21.089844 40.898438 C 20.433594 40.070312 20.105469 38.875 20.105469 37.3125 C 20.105469 35.75 20.433594 34.554688 21.089844 33.726562 C 21.753906 32.898438 22.710938 32.484375 23.960938 32.484375 C 24.3125 32.484375 24.648438 32.523438 24.96875 32.601562 C 25.296875 32.679688 25.601562 32.792969 25.882812 32.941406 L 25.882812 34.980469 C 25.570312 34.691406 25.265625 34.480469 24.96875 34.347656 C 24.671875 34.207031 24.367188 34.136719 24.054688 34.136719 C 23.382812 34.136719 22.875 34.40625 22.53125 34.945312 C 22.1875 35.476562 22.015625 36.265625 22.015625 37.3125 C 22.015625 38.359375 22.1875 39.152344 22.53125 39.691406 C 22.875 40.222656 23.382812 40.488281 24.054688 40.488281 C 24.367188 40.488281 24.671875 40.421875 24.96875 40.289062 C 25.265625 40.148438 25.570312 39.933594 25.882812 39.644531 Z M 25.882812 41.683594 "/>
<g fill="rgb(0%, 0%, 79.998779%)" fill-opacity="1">
<use xlink:href="#glyph-1-0" x="34.154981" y="41.089585"/>
</g>
<g fill="rgb(0%, 0%, 79.998779%)" fill-opacity="1">
<use xlink:href="#glyph-1-1" x="40.469519" y="41.089585"/>
</g>
<g fill="rgb(0%, 0%, 79.998779%)" fill-opacity="1">
<use xlink:href="#glyph-1-2" x="46.773558" y="41.089585"/>
</g>
<g fill="rgb(0%, 0%, 79.998779%)" fill-opacity="1">
<use xlink:href="#glyph-1-3" x="53.088096" y="41.089585"/>
</g>
<g fill="rgb(0%, 0%, 79.998779%)" fill-opacity="1">
<use xlink:href="#glyph-1-4" x="59.402635" y="41.089585"/>
</g>
<g fill="rgb(0%, 0%, 79.998779%)" fill-opacity="1">
<use xlink:href="#glyph-1-5" x="65.706673" y="41.089585"/>
</g>
<g fill="rgb(0%, 0%, 79.998779%)" fill-opacity="1">
<use xlink:href="#glyph-1-6" x="72.021212" y="41.089585"/>
</g>
<g fill="rgb(0%, 0%, 79.998779%)" fill-opacity="1">
<use xlink:href="#glyph-1-3" x="78.33575" y="41.089585"/>
</g>
<g fill="rgb(0%, 0%, 79.998779%)" fill-opacity="1">
<use xlink:href="#glyph-1-7" x="84.639789" y="41.089585"/>
</g>
<g fill="rgb(0%, 0%, 79.998779%)" fill-opacity="1">
<use xlink:href="#glyph-1-8" x="90.954327" y="41.089585"/>
</g>
<g fill="rgb(0%, 0%, 79.998779%)" fill-opacity="1">
<use xlink:href="#glyph-1-1" x="97.258366" y="41.089585"/>
</g>
<g fill="rgb(0%, 0%, 79.998779%)" fill-opacity="1">
<use xlink:href="#glyph-1-9" x="103.572904" y="41.089585"/>
</g>
<g fill="rgb(0%, 0%, 79.998779%)" fill-opacity="1">
<use xlink:href="#glyph-1-10" x="109.887442" y="41.089585"/>
</g>
<g fill="rgb(0%, 0%, 79.998779%)" fill-opacity="1">
<use xlink:href="#glyph-1-11" x="116.191481" y="41.089585"/>
</g>
<g fill="rgb(0%, 0%, 79.998779%)" fill-opacity="1">
<use xlink:href="#glyph-1-4" x="122.506019" y="41.089585"/>
</g>
<path fill-rule="nonzero" fill="rgb(94.508362%, 94.508362%, 94.508362%)" fill-opacity="1" stroke-width="0.212966" stroke-linecap="butt" stroke-linejoin="miter" stroke="rgb(9.411621%, 9.411621%, 9.411621%)" stroke-opacity="1" stroke-miterlimit="4" d="M 14.203125 107.964844 L 129.421875 107.964844 C 130.460938 107.964844 131.296875 108.234375 131.296875 108.570312 L 131.296875 130.765625 C 131.296875 131.101562 130.460938 131.371094 129.421875 131.371094 L 14.203125 131.371094 C 13.160156 131.371094 12.324219 131.101562 12.324219 130.765625 L 12.324219 108.570312 C 12.324219 108.234375 13.160156 107.964844 14.203125 107.964844 Z M 14.203125 107.964844 "/>
<path fill-rule="nonzero" fill="rgb(0%, 100%, 100%)" fill-opacity="1" stroke-width="0.749999" stroke-linecap="butt" stroke-linejoin="miter" stroke="rgb(9.411621%, 9.411621%, 9.411621%)" stroke-opacity="1" stroke-miterlimit="4" d="M 52.289062 119.621094 C 52.289062 124.179688 48.59375 127.871094 44.039062 127.871094 C 39.484375 127.871094 35.789062 124.179688 35.789062 119.621094 C 35.789062 115.066406 39.484375 111.371094 44.039062 111.371094 C 48.59375 111.371094 52.289062 115.066406 52.289062 119.621094 Z M 52.289062 119.621094 "/>
<path fill-rule="nonzero" fill="rgb(0%, 0%, 0%)" fill-opacity="1" d="M 46.265625 123.851562 C 45.976562 124 45.671875 124.109375 45.351562 124.179688 C 45.03125 124.257812 44.695312 124.296875 44.34375 124.296875 C 43.09375 124.296875 42.136719 123.886719 41.472656 123.066406 C 40.816406 122.238281 40.488281 121.042969 40.488281 119.480469 C 40.488281 117.917969 40.816406 116.722656 41.472656 115.894531 C 42.136719 115.066406 43.09375 114.652344 44.34375 114.652344 C 44.695312 114.652344 45.03125 114.691406 45.351562 114.769531 C 45.679688 114.847656 45.984375 114.960938 46.265625 115.109375 L 46.265625 117.148438 C 45.953125 116.859375 45.648438 116.648438 45.351562 116.515625 C 45.054688 116.375 44.75 116.304688 44.4375 116.304688 C 43.765625 116.304688 43.257812 116.574219 42.914062 117.113281 C 42.570312 117.644531 42.398438 118.433594 42.398438 119.480469 C 42.398438 120.527344 42.570312 121.320312 42.914062 121.859375 C 43.257812 122.390625 43.765625 122.65625 44.4375 122.65625 C 44.75 122.65625 45.054688 122.589844 45.351562 122.457031 C 45.648438 122.316406 45.953125 122.101562 46.265625 121.8125 Z M 46.265625 123.851562 "/>
<g fill="rgb(0%, 0%, 79.998779%)" fill-opacity="1">
<use xlink:href="#glyph-1-12" x="59.414223" y="123.256725"/>
</g>
<g fill="rgb(0%, 0%, 79.998779%)" fill-opacity="1">
<use xlink:href="#glyph-1-13" x="66.610761" y="123.256725"/>
</g>
<g fill="rgb(0%, 0%, 79.998779%)" fill-opacity="1">
<use xlink:href="#glyph-1-8" x="73.8073" y="123.256725"/>
</g>
<g fill="rgb(0%, 0%, 79.998779%)" fill-opacity="1">
<use xlink:href="#glyph-1-14" x="80.993338" y="123.256725"/>
</g>
<g fill="rgb(0%, 0%, 79.998779%)" fill-opacity="1">
<use xlink:href="#glyph-1-15" x="88.189877" y="123.256725"/>
</g>
<g fill="rgb(0%, 0%, 79.998779%)" fill-opacity="1">
<use xlink:href="#glyph-1-16" x="95.386415" y="123.256725"/>
</g>
<g fill="rgb(0%, 0%, 79.998779%)" fill-opacity="1">
<use xlink:href="#glyph-1-11" x="102.582954" y="123.256725"/>
</g>
<g fill="rgb(0%, 0%, 0%)" fill-opacity="1">
<use xlink:href="#glyph-2-0" x="77.624843" y="78.495008"/>
<use xlink:href="#glyph-2-1" x="83.744843" y="78.495008"/>
<use xlink:href="#glyph-2-2" x="88.424843" y="78.495008"/>
<use xlink:href="#glyph-2-3" x="93.104843" y="78.495008"/>
<use xlink:href="#glyph-2-4" x="98.684843" y="78.495008"/>
<use xlink:href="#glyph-2-5" x="101.564843" y="78.495008"/>
<use xlink:href="#glyph-2-6" x="107.144843" y="78.495008"/>
</g>
<path fill="none" stroke-width="0.749999" stroke-linecap="butt" stroke-linejoin="miter" stroke="rgb(9.411621%, 9.411621%, 9.411621%)" stroke-opacity="1" stroke-miterlimit="4" d="M 71.8125 49.875 C 71.8125 67.679688 71.8125 84.628906 71.8125 102.433594 "/>
<path fill-rule="nonzero" fill="rgb(9.411621%, 9.411621%, 9.411621%)" fill-opacity="1" stroke-width="0.75" stroke-linecap="butt" stroke-linejoin="miter" stroke="rgb(9.411621%, 9.411621%, 9.411621%)" stroke-opacity="1" stroke-miterlimit="4" d="M 74.8125 100.183594 L 71.8125 103.183594 L 68.8125 100.183594 L 71.8125 106.933594 Z M 74.8125 100.183594 "/>
<path fill-rule="nonzero" fill="rgb(9.411621%, 9.411621%, 9.411621%)" fill-opacity="1" stroke-width="0.75" stroke-linecap="butt" stroke-linejoin="miter" stroke="rgb(9.411621%, 9.411621%, 9.411621%)" stroke-opacity="1" stroke-miterlimit="4" d="M -38.066406 246.199219 L -41.066406 243.199219 L -38.066406 249.949219 L -35.066406 243.199219 Z M -38.066406 246.199219 " transform="matrix(0, -1, 1, 0, 0, 0)"/>
<path fill="none" stroke-width="0.397548" stroke-linecap="butt" stroke-linejoin="miter" stroke="rgb(9.411621%, 9.411621%, 9.411621%)" stroke-opacity="1" stroke-miterlimit="4" d="M 231.167969 38.066406 C 236.167969 38.066406 240.933594 38.066406 245.933594 38.066406 "/>
<path fill="none" stroke-width="0.609449" stroke-linecap="butt" stroke-linejoin="miter" stroke="rgb(0%, 0%, 0%)" stroke-opacity="1" stroke-miterlimit="4" d="M 164.738281 26.636719 L 230.863281 26.636719 L 230.863281 49.496094 L 164.738281 49.496094 Z M 164.738281 26.636719 "/>
<path fill="none" stroke-width="0.397548" stroke-linecap="butt" stroke-linejoin="miter" stroke="rgb(9.411621%, 9.411621%, 9.411621%)" stroke-opacity="1" stroke-miterlimit="4" d="M 144.726562 38.066406 C 149.730469 38.066406 154.492188 38.066406 159.496094 38.066406 "/>
<path fill-rule="nonzero" fill="rgb(9.411621%, 9.411621%, 9.411621%)" fill-opacity="1" stroke-width="0.75" stroke-linecap="butt" stroke-linejoin="miter" stroke="rgb(9.411621%, 9.411621%, 9.411621%)" stroke-opacity="1" stroke-miterlimit="4" d="M -41.066406 156.761719 L -38.066406 163.511719 L -35.066406 156.761719 L -38.066406 159.761719 Z M -41.066406 156.761719 " transform="matrix(0, -1, 1, 0, 0, 0)"/>
<g fill="rgb(0%, 0%, 0%)" fill-opacity="1">
<use xlink:href="#glyph-3-0" x="182.154565" y="41.114588"/>
</g>
<path fill="none" stroke-width="0.564094" stroke-linecap="butt" stroke-linejoin="miter" stroke="rgb(0%, 0%, 0%)" stroke-opacity="1" stroke-miterlimit="4" d="M 184.125 37.878906 C 184.125 38.527344 184.195312 39.082031 184.34375 39.550781 C 184.488281 40.011719 184.707031 40.433594 185 40.816406 C 185.289062 41.199219 185.65625 41.589844 186.09375 41.988281 L 185.6875 42.410156 C 185.1875 42.003906 184.757812 41.585938 184.40625 41.160156 C 184.050781 40.734375 183.78125 40.261719 183.59375 39.738281 C 183.40625 39.207031 183.3125 38.589844 183.3125 37.878906 C 183.3125 37.183594 183.40625 36.574219 183.59375 36.050781 C 183.78125 35.519531 184.050781 35.042969 184.40625 34.613281 C 184.757812 34.1875 185.1875 33.769531 185.6875 33.363281 L 186.09375 33.785156 C 185.757812 34.078125 185.46875 34.371094 185.21875 34.660156 C 184.976562 34.941406 184.773438 35.238281 184.609375 35.550781 C 184.441406 35.863281 184.316406 36.214844 184.234375 36.597656 C 184.160156 36.972656 184.125 37.402344 184.125 37.878906 Z M 184.125 37.878906 "/>
<g fill="rgb(0%, 0%, 0%)" fill-opacity="1">
<use xlink:href="#glyph-3-1" x="187.69303" y="41.114588"/>
</g>
<path fill="none" stroke-width="0.564094" stroke-linecap="butt" stroke-linejoin="miter" stroke="rgb(0%, 0%, 0%)" stroke-opacity="1" stroke-miterlimit="4" d="M 191.488281 34.207031 C 191.746094 34.207031 191.980469 34.230469 192.191406 34.269531 C 192.410156 34.3125 192.613281 34.375 192.800781 34.457031 L 192.550781 35.035156 C 192.394531 34.972656 192.226562 34.925781 192.050781 34.894531 C 191.871094 34.855469 191.695312 34.832031 191.519531 34.832031 C 190.832031 34.832031 190.488281 35.105469 190.488281 35.644531 L 190.488281 36.628906 L 192.144531 36.628906 L 192.050781 37.238281 L 190.488281 37.238281 L 190.488281 41.113281 L 189.722656 41.113281 L 189.722656 37.238281 L 188.566406 37.238281 L 188.566406 36.628906 L 189.722656 36.628906 L 189.722656 35.660156 C 189.722656 35.359375 189.800781 35.097656 189.957031 34.878906 C 190.113281 34.660156 190.320312 34.496094 190.582031 34.378906 C 190.851562 34.265625 191.152344 34.207031 191.488281 34.207031 Z M 191.488281 34.207031 "/>
<g fill="rgb(0%, 0%, 0%)" fill-opacity="1">
<use xlink:href="#glyph-3-2" x="193.231496" y="41.114588"/>
</g>
<path fill="none" stroke-width="0.564094" stroke-linecap="butt" stroke-linejoin="miter" stroke="rgb(0%, 0%, 0%)" stroke-opacity="1" stroke-miterlimit="4" d="M 195.996094 39.597656 C 196.214844 39.597656 196.390625 39.671875 196.527344 39.816406 C 196.671875 39.964844 196.746094 40.136719 196.746094 40.332031 C 196.746094 40.449219 196.730469 40.5625 196.699219 40.675781 C 196.675781 40.792969 196.636719 40.917969 196.574219 41.050781 L 195.824219 42.769531 L 195.121094 42.769531 L 195.558594 40.941406 C 195.359375 40.796875 195.261719 40.59375 195.261719 40.332031 C 195.261719 40.136719 195.328125 39.964844 195.464844 39.816406 C 195.609375 39.671875 195.785156 39.597656 195.996094 39.597656 Z M 195.996094 39.597656 "/>
<g fill="rgb(0%, 0%, 0%)" fill-opacity="1">
<use xlink:href="#glyph-3-3" x="198.769962" y="41.114588"/>
</g>
<path fill="none" stroke-width="0.564094" stroke-linecap="butt" stroke-linejoin="miter" stroke="rgb(0%, 0%, 0%)" stroke-opacity="1" stroke-miterlimit="4" d="M 200.472656 34.222656 L 200.472656 36.910156 C 200.660156 36.660156 200.894531 36.472656 201.175781 36.347656 C 201.457031 36.214844 201.738281 36.144531 202.019531 36.144531 C 202.496094 36.144531 202.847656 36.277344 203.066406 36.535156 C 203.285156 36.785156 203.394531 37.136719 203.394531 37.582031 L 203.394531 41.113281 L 202.613281 41.113281 L 202.613281 37.597656 C 202.613281 37.308594 202.542969 37.09375 202.410156 36.957031 C 202.273438 36.824219 202.058594 36.753906 201.769531 36.753906 C 201.589844 36.753906 201.417969 36.796875 201.253906 36.878906 C 201.085938 36.964844 200.933594 37.066406 200.800781 37.191406 C 200.664062 37.316406 200.554688 37.441406 200.472656 37.566406 L 200.472656 41.113281 L 199.691406 41.113281 L 199.691406 34.300781 Z M 200.472656 34.222656 "/>
<g fill="rgb(0%, 0%, 0%)" fill-opacity="1">
<use xlink:href="#glyph-3-4" x="204.308427" y="41.114588"/>
</g>
<path fill="none" stroke-width="0.564094" stroke-linecap="butt" stroke-linejoin="miter" stroke="rgb(0%, 0%, 0%)" stroke-opacity="1" stroke-miterlimit="4" d="M 207.886719 37.878906 C 207.886719 37.402344 207.84375 36.972656 207.761719 36.597656 C 207.675781 36.214844 207.550781 35.863281 207.386719 35.550781 C 207.230469 35.238281 207.027344 34.941406 206.777344 34.660156 C 206.527344 34.371094 206.234375 34.078125 205.902344 33.785156 L 206.308594 33.363281 C 206.808594 33.769531 207.234375 34.1875 207.589844 34.613281 C 207.953125 35.042969 208.230469 35.519531 208.417969 36.050781 C 208.605469 36.574219 208.699219 37.183594 208.699219 37.878906 C 208.699219 38.589844 208.605469 39.207031 208.417969 39.738281 C 208.230469 40.261719 207.953125 40.734375 207.589844 41.160156 C 207.234375 41.585938 206.808594 42.003906 206.308594 42.410156 L 205.902344 41.988281 C 206.347656 41.589844 206.71875 41.199219 207.011719 40.816406 C 207.300781 40.433594 207.519531 40.011719 207.667969 39.550781 C 207.8125 39.082031 207.886719 38.527344 207.886719 37.878906 Z M 207.886719 37.878906 "/>
<g fill="rgb(0%, 0%, 0%)" fill-opacity="1">
<use xlink:href="#glyph-4-0" x="145.224585" y="33.621675"/>
</g>
<path fill="none" stroke-width="0.373873" stroke-linecap="butt" stroke-linejoin="miter" stroke="rgb(0%, 0%, 0%)" stroke-opacity="1" stroke-miterlimit="4" d="M 146.347656 30.402344 L 146.347656 32.683594 C 146.347656 32.894531 146.386719 33.042969 146.472656 33.136719 C 146.566406 33.230469 146.707031 33.277344 146.894531 33.277344 C 147.070312 33.277344 147.238281 33.230469 147.394531 33.136719 C 147.550781 33.035156 147.675781 32.914062 147.769531 32.777344 L 147.769531 30.402344 L 148.285156 30.402344 L 148.285156 33.621094 L 147.847656 33.621094 L 147.800781 33.183594 C 147.675781 33.351562 147.519531 33.480469 147.332031 33.574219 C 147.144531 33.65625 146.957031 33.699219 146.769531 33.699219 C 146.457031 33.699219 146.222656 33.617188 146.066406 33.449219 C 145.910156 33.285156 145.832031 33.050781 145.832031 32.746094 L 145.832031 30.402344 Z M 146.347656 30.402344 "/>
<g fill="rgb(0%, 0%, 0%)" fill-opacity="1">
<use xlink:href="#glyph-4-1" x="148.895411" y="33.621675"/>
</g>
<path fill="none" stroke-width="0.373873" stroke-linecap="butt" stroke-linejoin="miter" stroke="rgb(0%, 0%, 0%)" stroke-opacity="1" stroke-miterlimit="4" d="M 149.207031 34.277344 L 152.253906 34.277344 L 152.253906 34.730469 L 149.207031 34.730469 Z M 149.207031 34.277344 "/>
<g fill="rgb(0%, 0%, 0%)" fill-opacity="1">
<use xlink:href="#glyph-4-2" x="152.566236" y="33.621675"/>
</g>
<path fill="none" stroke-width="0.373873" stroke-linecap="butt" stroke-linejoin="miter" stroke="rgb(0%, 0%, 0%)" stroke-opacity="1" stroke-miterlimit="4" d="M 153.722656 29.042969 L 153.722656 33.621094 L 153.222656 33.621094 L 153.222656 29.105469 Z M 155.878906 30.402344 L 154.425781 31.855469 L 156.050781 33.621094 L 155.378906 33.621094 L 153.785156 31.855469 L 155.207031 30.402344 Z M 155.878906 30.402344 "/>
<g fill="rgb(0%, 0%, 0%)" fill-opacity="1">
<use xlink:href="#glyph-4-3" x="232.831988" y="33.621675"/>
</g>
<path fill="none" stroke-width="0.373873" stroke-linecap="butt" stroke-linejoin="miter" stroke="rgb(0%, 0%, 0%)" stroke-opacity="1" stroke-miterlimit="4" d="M 236.128906 30.402344 L 234.988281 33.636719 C 234.914062 33.855469 234.820312 34.050781 234.707031 34.230469 C 234.589844 34.417969 234.441406 34.566406 234.253906 34.683594 C 234.074219 34.808594 233.839844 34.886719 233.550781 34.917969 L 233.472656 34.511719 C 233.699219 34.46875 233.878906 34.410156 234.003906 34.339844 C 234.128906 34.265625 234.226562 34.167969 234.300781 34.042969 C 234.382812 33.925781 234.449219 33.785156 234.503906 33.621094 L 234.332031 33.621094 L 233.207031 30.402344 L 233.753906 30.402344 L 234.691406 33.230469 L 235.597656 30.402344 Z M 236.128906 30.402344 "/>
<g fill="rgb(0%, 0%, 0%)" fill-opacity="1">
<use xlink:href="#glyph-4-1" x="236.502813" y="33.621675"/>
</g>
<path fill="none" stroke-width="0.373873" stroke-linecap="butt" stroke-linejoin="miter" stroke="rgb(0%, 0%, 0%)" stroke-opacity="1" stroke-miterlimit="4" d="M 236.816406 34.277344 L 239.863281 34.277344 L 239.863281 34.730469 L 236.816406 34.730469 Z M 236.816406 34.277344 "/>
<g fill="rgb(0%, 0%, 0%)" fill-opacity="1">
<use xlink:href="#glyph-4-2" x="240.173639" y="33.621675"/>
</g>
<path fill="none" stroke-width="0.373873" stroke-linecap="butt" stroke-linejoin="miter" stroke="rgb(0%, 0%, 0%)" stroke-opacity="1" stroke-miterlimit="4" d="M 241.328125 29.042969 L 241.328125 33.621094 L 240.828125 33.621094 L 240.828125 29.105469 Z M 243.484375 30.402344 L 242.03125 31.855469 L 243.65625 33.621094 L 242.984375 33.621094 L 241.390625 31.855469 L 242.8125 30.402344 Z M 243.484375 30.402344 "/>
<path fill="none" stroke-width="0.748979" stroke-linecap="butt" stroke-linejoin="miter" stroke="rgb(0%, 0%, 0%)" stroke-opacity="1" stroke-miterlimit="4" d="M 238.855469 105.941406 L 254.308594 105.941406 L 254.308594 121.394531 L 238.855469 121.394531 Z M 238.855469 105.941406 "/>
<g fill="rgb(0%, 0%, 0%)" fill-opacity="1">
<use xlink:href="#glyph-5-0" x="240.002743" y="115.314721"/>
</g>
<path fill="none" stroke-width="0.320635" stroke-linecap="butt" stroke-linejoin="miter" stroke="rgb(0%, 0%, 0%)" stroke-opacity="1" stroke-miterlimit="4" d="M 240.628906 115.863281 L 240.285156 115.691406 L 242.519531 111.082031 L 242.878906 111.253906 Z M 240.628906 115.863281 "/>
<g fill="rgb(0%, 0%, 0%)" fill-opacity="1">
<use xlink:href="#glyph-5-1" x="243.150859" y="115.314721"/>
</g>
<path fill="none" stroke-width="0.320635" stroke-linecap="butt" stroke-linejoin="miter" stroke="rgb(0%, 0%, 0%)" stroke-opacity="1" stroke-miterlimit="4" d="M 245.980469 112.550781 L 245.011719 115.332031 C 244.9375 115.519531 244.847656 115.691406 244.746094 115.847656 C 244.652344 116.003906 244.527344 116.132812 244.371094 116.238281 C 244.214844 116.339844 244.015625 116.402344 243.777344 116.425781 L 243.699219 116.066406 C 243.894531 116.035156 244.046875 115.988281 244.152344 115.925781 C 244.265625 115.863281 244.355469 115.777344 244.417969 115.675781 C 244.480469 115.582031 244.535156 115.460938 244.589844 115.316406 L 244.433594 115.316406 L 243.480469 112.550781 L 243.949219 112.550781 L 244.730469 114.988281 L 245.511719 112.550781 Z M 245.980469 112.550781 "/>
<g fill="rgb(0%, 0%, 0%)" fill-opacity="1">
<use xlink:href="#glyph-5-2" x="246.298975" y="115.314721"/>
</g>
<path fill="none" stroke-width="0.320635" stroke-linecap="butt" stroke-linejoin="miter" stroke="rgb(0%, 0%, 0%)" stroke-opacity="1" stroke-miterlimit="4" d="M 246.566406 115.878906 L 249.175781 115.878906 L 249.175781 116.269531 L 246.566406 116.269531 Z M 246.566406 115.878906 "/>
<g fill="rgb(0%, 0%, 0%)" fill-opacity="1">
<use xlink:href="#glyph-5-3" x="249.447091" y="115.314721"/>
</g>
<path fill="none" stroke-width="0.320635" stroke-linecap="butt" stroke-linejoin="miter" stroke="rgb(0%, 0%, 0%)" stroke-opacity="1" stroke-miterlimit="4" d="M 250.445312 111.394531 L 250.445312 115.316406 L 250.007812 115.316406 L 250.007812 111.441406 Z M 252.289062 112.550781 L 251.039062 113.800781 L 252.429688 115.316406 L 251.851562 115.316406 L 250.492188 113.816406 L 251.710938 112.550781 Z M 252.289062 112.550781 "/>
<path fill="none" stroke-width="0.564094" stroke-linecap="butt" stroke-linejoin="miter" stroke="rgb(0%, 0%, 0%)" stroke-opacity="1" stroke-miterlimit="4" d="M 218.492188 113.667969 C 218.492188 125.09375 209.230469 134.359375 197.800781 134.359375 C 186.375 134.359375 177.109375 125.09375 177.109375 113.667969 C 177.109375 102.238281 186.375 92.976562 197.800781 92.976562 C 209.230469 92.976562 218.492188 102.238281 218.492188 113.667969 Z M 218.492188 113.667969 "/>
<path fill="none" stroke-width="0.397548" stroke-linecap="butt" stroke-linejoin="miter" stroke="rgb(9.411621%, 9.411621%, 9.411621%)" stroke-opacity="1" stroke-miterlimit="4" d="M 218.773438 113.667969 C 223.777344 113.667969 228.539062 113.667969 233.542969 113.667969 "/>
<path fill-rule="nonzero" fill="rgb(9.411621%, 9.411621%, 9.411621%)" fill-opacity="1" stroke-width="0.75" stroke-linecap="butt" stroke-linejoin="miter" stroke="rgb(9.411621%, 9.411621%, 9.411621%)" stroke-opacity="1" stroke-miterlimit="4" d="M -113.667969 237.558594 L -110.667969 230.808594 L -113.667969 233.808594 L -116.667969 230.808594 Z M -113.667969 237.558594 " transform="matrix(0, -1, 1, 0, 0, 0)"/>
<path fill="none" stroke-width="0.397548" stroke-linecap="butt" stroke-linejoin="miter" stroke="rgb(9.411621%, 9.411621%, 9.411621%)" stroke-opacity="1" stroke-miterlimit="4" d="M 157.121094 113.667969 C 162.125 113.667969 166.886719 113.667969 171.886719 113.667969 "/>
<path fill-rule="nonzero" fill="rgb(9.411621%, 9.411621%, 9.411621%)" fill-opacity="1" stroke-width="0.75" stroke-linecap="butt" stroke-linejoin="miter" stroke="rgb(9.411621%, 9.411621%, 9.411621%)" stroke-opacity="1" stroke-miterlimit="4" d="M -116.667969 169.152344 L -113.667969 175.902344 L -110.667969 169.152344 L -113.667969 172.152344 Z M -116.667969 169.152344 " transform="matrix(0, -1, 1, 0, 0, 0)"/>
<g fill="rgb(0%, 0%, 0%)" fill-opacity="1">
<use xlink:href="#glyph-6-0" x="187.315803" y="115.975666"/>
</g>
<path fill="none" stroke-width="0.427161" stroke-linecap="butt" stroke-linejoin="miter" stroke="rgb(0%, 0%, 0%)" stroke-opacity="1" stroke-miterlimit="4" d="M 188.800781 113.523438 C 188.800781 114.015625 188.851562 114.4375 188.957031 114.789062 C 189.070312 115.144531 189.238281 115.46875 189.457031 115.757812 C 189.683594 116.046875 189.964844 116.339844 190.300781 116.632812 L 189.988281 116.960938 C 189.613281 116.648438 189.289062 116.328125 189.019531 116.007812 C 188.746094 115.6875 188.539062 115.328125 188.394531 114.929688 C 188.257812 114.523438 188.191406 114.054688 188.191406 113.523438 C 188.191406 113.003906 188.257812 112.546875 188.394531 112.148438 C 188.539062 111.742188 188.746094 111.378906 189.019531 111.054688 C 189.289062 110.734375 189.613281 110.414062 189.988281 110.101562 L 190.300781 110.429688 C 190.050781 110.648438 189.832031 110.867188 189.644531 111.085938 C 189.457031 111.304688 189.300781 111.535156 189.175781 111.773438 C 189.050781 112.003906 188.957031 112.265625 188.894531 112.554688 C 188.832031 112.835938 188.800781 113.160156 188.800781 113.523438 Z M 188.800781 113.523438 "/>
<g fill="rgb(0%, 0%, 0%)" fill-opacity="1">
<use xlink:href="#glyph-6-1" x="191.509809" y="115.975666"/>
</g>
<path fill="none" stroke-width="0.427161" stroke-linecap="butt" stroke-linejoin="miter" stroke="rgb(0%, 0%, 0%)" stroke-opacity="1" stroke-miterlimit="4" d="M 194.386719 110.742188 C 194.582031 110.742188 194.761719 110.765625 194.917969 110.804688 C 195.082031 110.835938 195.238281 110.882812 195.386719 110.945312 L 195.199219 111.382812 C 195.074219 111.332031 194.941406 111.296875 194.808594 111.273438 C 194.683594 111.242188 194.546875 111.226562 194.402344 111.226562 C 193.890625 111.226562 193.636719 111.429688 193.636719 111.835938 L 193.636719 112.585938 L 194.886719 112.585938 L 194.824219 113.039062 L 193.636719 113.039062 L 193.636719 115.976562 L 193.042969 115.976562 L 193.042969 113.039062 L 192.167969 113.039062 L 192.167969 112.585938 L 193.042969 112.585938 L 193.042969 111.851562 C 193.042969 111.625 193.097656 111.425781 193.214844 111.257812 C 193.339844 111.09375 193.5 110.96875 193.699219 110.882812 C 193.90625 110.789062 194.136719 110.742188 194.386719 110.742188 Z M 194.386719 110.742188 "/>
<g fill="rgb(0%, 0%, 0%)" fill-opacity="1">
<use xlink:href="#glyph-6-2" x="195.703814" y="115.975666"/>
</g>
<path fill="none" stroke-width="0.427161" stroke-linecap="butt" stroke-linejoin="miter" stroke="rgb(0%, 0%, 0%)" stroke-opacity="1" stroke-miterlimit="4" d="M 197.796875 114.820312 C 197.960938 114.820312 198.097656 114.878906 198.203125 114.992188 C 198.304688 115.097656 198.359375 115.226562 198.359375 115.382812 C 198.359375 115.46875 198.347656 115.554688 198.328125 115.648438 C 198.316406 115.734375 198.285156 115.828125 198.234375 115.929688 L 197.65625 117.226562 L 197.125 117.226562 L 197.46875 115.851562 C 197.3125 115.738281 197.234375 115.582031 197.234375 115.382812 C 197.234375 115.226562 197.285156 115.097656 197.390625 114.992188 C 197.503906 114.878906 197.640625 114.820312 197.796875 114.820312 Z M 197.796875 114.820312 "/>
<g fill="rgb(0%, 0%, 0%)" fill-opacity="1">
<use xlink:href="#glyph-6-3" x="199.897819" y="115.975666"/>
</g>
<path fill="none" stroke-width="0.427161" stroke-linecap="butt" stroke-linejoin="miter" stroke="rgb(0%, 0%, 0%)" stroke-opacity="1" stroke-miterlimit="4" d="M 201.195312 110.757812 L 201.195312 112.804688 C 201.328125 112.609375 201.5 112.460938 201.710938 112.367188 C 201.929688 112.273438 202.148438 112.226562 202.367188 112.226562 C 202.71875 112.226562 202.980469 112.320312 203.148438 112.507812 C 203.3125 112.695312 203.398438 112.960938 203.398438 113.304688 L 203.398438 115.976562 L 202.804688 115.976562 L 202.804688 113.320312 C 202.804688 113.101562 202.75 112.941406 202.648438 112.835938 C 202.554688 112.734375 202.398438 112.679688 202.179688 112.679688 C 202.03125 112.679688 201.898438 112.710938 201.773438 112.773438 C 201.648438 112.835938 201.53125 112.914062 201.429688 113.007812 C 201.335938 113.101562 201.257812 113.203125 201.195312 113.304688 L 201.195312 115.976562 L 200.601562 115.976562 L 200.601562 110.820312 Z M 201.195312 110.757812 "/>
<g fill="rgb(0%, 0%, 0%)" fill-opacity="1">
<use xlink:href="#glyph-6-4" x="204.091824" y="115.975666"/>
</g>
<path fill="none" stroke-width="0.427161" stroke-linecap="butt" stroke-linejoin="miter" stroke="rgb(0%, 0%, 0%)" stroke-opacity="1" stroke-miterlimit="4" d="M 206.796875 113.523438 C 206.796875 113.160156 206.765625 112.835938 206.703125 112.554688 C 206.640625 112.265625 206.546875 112.003906 206.421875 111.773438 C 206.304688 111.535156 206.15625 111.304688 205.96875 111.085938 C 205.78125 110.867188 205.5625 110.648438 205.3125 110.429688 L 205.609375 110.101562 C 205.984375 110.414062 206.304688 110.734375 206.578125 111.054688 C 206.847656 111.378906 207.054688 111.742188 207.203125 112.148438 C 207.347656 112.546875 207.421875 113.003906 207.421875 113.523438 C 207.421875 114.054688 207.347656 114.523438 207.203125 114.929688 C 207.054688 115.328125 206.847656 115.6875 206.578125 116.007812 C 206.304688 116.328125 205.984375 116.648438 205.609375 116.960938 L 205.3125 116.632812 C 205.644531 116.339844 205.921875 116.046875 206.140625 115.757812 C 206.359375 115.46875 206.519531 115.144531 206.625 114.789062 C 206.738281 114.4375 206.796875 114.015625 206.796875 113.523438 Z M 206.796875 113.523438 "/>
<path fill="none" stroke-width="0.748979" stroke-linecap="butt" stroke-linejoin="miter" stroke="rgb(0%, 0%, 0%)" stroke-opacity="1" stroke-miterlimit="4" d="M 141.292969 105.941406 L 156.746094 105.941406 L 156.746094 121.394531 L 141.292969 121.394531 Z M 141.292969 105.941406 "/>
<g fill="rgb(0%, 0%, 0%)" fill-opacity="1">
<use xlink:href="#glyph-5-0" x="142.440903" y="115.314721"/>
</g>
<path fill="none" stroke-width="0.320635" stroke-linecap="butt" stroke-linejoin="miter" stroke="rgb(0%, 0%, 0%)" stroke-opacity="1" stroke-miterlimit="4" d="M 143.066406 115.863281 L 142.722656 115.691406 L 144.957031 111.082031 L 145.316406 111.253906 Z M 143.066406 115.863281 "/>
<g fill="rgb(0%, 0%, 0%)" fill-opacity="1">
<use xlink:href="#glyph-5-4" x="145.589019" y="115.314721"/>
</g>
<path fill="none" stroke-width="0.320635" stroke-linecap="butt" stroke-linejoin="miter" stroke="rgb(0%, 0%, 0%)" stroke-opacity="1" stroke-miterlimit="4" d="M 146.558594 112.550781 L 146.558594 114.519531 C 146.558594 114.699219 146.59375 114.828125 146.667969 114.910156 C 146.738281 114.984375 146.859375 115.019531 147.027344 115.019531 C 147.171875 115.019531 147.3125 114.980469 147.449219 114.894531 C 147.582031 114.8125 147.6875 114.707031 147.761719 114.582031 L 147.761719 112.550781 L 148.214844 112.550781 L 148.214844 115.316406 L 147.839844 115.316406 L 147.792969 114.941406 C 147.6875 115.089844 147.550781 115.199219 147.386719 115.269531 C 147.230469 115.339844 147.074219 115.378906 146.917969 115.378906 C 146.644531 115.378906 146.441406 115.3125 146.308594 115.175781 C 146.183594 115.03125 146.121094 114.828125 146.121094 114.566406 L 146.121094 112.550781 Z M 146.558594 112.550781 "/>
<g fill="rgb(0%, 0%, 0%)" fill-opacity="1">
<use xlink:href="#glyph-5-2" x="148.737136" y="115.314721"/>
</g>
<path fill="none" stroke-width="0.320635" stroke-linecap="butt" stroke-linejoin="miter" stroke="rgb(0%, 0%, 0%)" stroke-opacity="1" stroke-miterlimit="4" d="M 149.003906 115.878906 L 151.613281 115.878906 L 151.613281 116.269531 L 149.003906 116.269531 Z M 149.003906 115.878906 "/>
<g fill="rgb(0%, 0%, 0%)" fill-opacity="1">
<use xlink:href="#glyph-5-3" x="151.885252" y="115.314721"/>
</g>
<path fill="none" stroke-width="0.320635" stroke-linecap="butt" stroke-linejoin="miter" stroke="rgb(0%, 0%, 0%)" stroke-opacity="1" stroke-miterlimit="4" d="M 152.886719 111.394531 L 152.886719 115.316406 L 152.449219 115.316406 L 152.449219 111.441406 Z M 154.730469 112.550781 L 153.480469 113.800781 L 154.871094 115.316406 L 154.292969 115.316406 L 152.933594 113.816406 L 154.152344 112.550781 Z M 154.730469 112.550781 "/>
<path fill="none" stroke-width="0.564094" stroke-linecap="butt" stroke-linejoin="miter" stroke="rgb(39.99939%, 39.99939%, 39.99939%)" stroke-opacity="1" stroke-miterlimit="4" d="M 181.707031 105.59375 L 213.894531 105.59375 L 213.894531 121.46875 L 181.707031 121.46875 Z M 181.707031 105.59375 "/>
<path fill-rule="nonzero" fill="rgb(30.195618%, 30.195618%, 30.195618%)" fill-opacity="1" stroke-width="0.598637" stroke-linecap="butt" stroke-linejoin="miter" stroke="rgb(39.99939%, 39.99939%, 39.99939%)" stroke-opacity="1" stroke-dasharray="4.789105 4.789105" stroke-miterlimit="4" d="M 181.613281 105.710938 L 164.359375 50.011719 "/>
<path fill-rule="nonzero" fill="rgb(30.195618%, 30.195618%, 30.195618%)" fill-opacity="1" stroke-width="0.597821" stroke-linecap="butt" stroke-linejoin="miter" stroke="rgb(39.99939%, 39.99939%, 39.99939%)" stroke-opacity="1" stroke-dasharray="4.782558 4.782558" stroke-miterlimit="4" d="M 213.769531 105.566406 L 230.898438 49.617188 "/>
</svg>
