<?xml version="1.0" encoding="UTF-8" standalone="no"?>
<svg width="214.842mm" height="63.5mm"
 xmlns="http://www.w3.org/2000/svg" xmlns:xlink="http://www.w3.org/1999/xlink"  version="1.2" baseProfile="tiny">
<title>Qt SVG Document</title>
<desc>Generated with Qt</desc>
<defs>
</defs>
<g fill="none" stroke="black" stroke-width="1" fill-rule="evenodd" stroke-linecap="square" stroke-linejoin="bevel" >

<g fill="none" stroke="#000000" stroke-opacity="1" stroke-width="1" stroke-linecap="square" stroke-linejoin="bevel" transform="matrix(1,0,0,1,0,0)"
font-family="Ubuntu" font-size="10" font-weight="400" font-style="normal" 
>
</g>

<g fill="none" stroke="#000000" stroke-opacity="1" stroke-width="1" stroke-linecap="square" stroke-linejoin="bevel" transform="matrix(1,0,0,1,0,0)"
font-family="Ubuntu" font-size="10" font-weight="400" font-style="normal" 
>
</g>

<g fill="none" stroke="#000000" stroke-opacity="1" stroke-width="1" stroke-linecap="square" stroke-linejoin="bevel" transform="matrix(2,0,0,2,0.00048,180)"
font-family="Ubuntu" font-size="10" font-weight="400" font-style="normal" 
>
</g>

<g fill="#ffffff" fill-opacity="1" stroke="none" transform="matrix(2,0,0,2,0.00048,180)"
font-family="Ubuntu" font-size="10" font-weight="400" font-style="normal" 
>
<rect x="-0.00024" y="-90" width="304.282" height="90"/>
</g>

<g fill="none" stroke="#000000" stroke-opacity="1" stroke-width="1" stroke-linecap="square" stroke-linejoin="bevel" transform="matrix(2,0,0,2,0.00048,180)"
font-family="Ubuntu" font-size="10" font-weight="400" font-style="normal" 
>
</g>

<g fill="none" stroke="#000000" stroke-opacity="1" stroke-width="1" stroke-linecap="square" stroke-linejoin="bevel" transform="matrix(2,0,0,2,0.00048,180)"
font-family="Ubuntu" font-size="10" font-weight="400" font-style="normal" 
>
</g>

<g fill="none" stroke="#000000" stroke-opacity="1" stroke-width="1" stroke-linecap="square" stroke-linejoin="bevel" transform="matrix(2,0,0,2,0.00048,180)"
font-family="Ubuntu" font-size="10" font-weight="400" font-style="normal" 
>
</g>

<g fill="none" stroke="#000000" stroke-opacity="1" stroke-width="1" stroke-linecap="square" stroke-linejoin="bevel" transform="matrix(2,0,0,2,0.00048,180)"
font-family="Ubuntu" font-size="10" font-weight="400" font-style="normal" 
>
</g>

<g fill="none" stroke="#000000" stroke-opacity="1" stroke-width="1" stroke-linecap="square" stroke-linejoin="round" transform="matrix(2,0,0,2,0.00048,180)"
font-family="Ubuntu" font-size="10" font-weight="400" font-style="normal" 
>
<rect x="76.89" y="-89.5" width="53" height="35"/>
</g>

<g fill="none" stroke="#000000" stroke-opacity="1" stroke-width="1" stroke-linecap="square" stroke-linejoin="bevel" transform="matrix(2,0,0,2,0.00048,180)"
font-family="Ubuntu" font-size="10" font-weight="400" font-style="normal" 
>
</g>

<g fill="none" stroke="#000000" stroke-opacity="1" stroke-width="1" stroke-linecap="square" stroke-linejoin="bevel" transform="matrix(2,0,0,2,182.796,20)"
font-family="Ubuntu" font-size="10" font-weight="400" font-style="normal" 
>
</g>

<g fill="none" stroke="#000000" stroke-opacity="1" stroke-width="1" stroke-linecap="square" stroke-linejoin="bevel" transform="matrix(2,0,0,2,182.796,20)"
font-family="sans" font-size="11" font-weight="100" font-style="normal" 
>
</g>

<g fill="#000000" fill-opacity="1" stroke="#000000" stroke-opacity="1" stroke-width="1" stroke-linecap="square" stroke-linejoin="round" transform="matrix(2,0,0,2,182.796,20)"
font-family="sans" font-size="11" font-weight="100" font-style="normal" 
>
<path vector-effect="none" fill-rule="nonzero" d="M3.98438,4.14063 L1.0625,12 L0.109375,12 L3.03125,4.14063 L3.98438,4.14063 M5.51563,3.89063 C5.66146,3.89063 5.78906,3.9401 5.89844,4.03906 C6.00781,4.13802 6.0625,4.29688 6.0625,4.51563 C6.0625,4.71354 6.00781,4.86458 5.89844,4.96875 C5.78906,5.07292 5.66146,5.125 5.51563,5.125 C5.34896,5.125 5.21094,5.07292 5.10156,4.96875 C4.99219,4.86458 4.9375,4.71354 4.9375,4.51563 C4.9375,4.29688 4.99219,4.13802 5.10156,4.03906 C5.21094,3.9401 5.34896,3.89063 5.51563,3.89063 M5.98438,6.10938 L5.98438,12 L5.01563,12 L5.01563,6.10938 L5.98438,6.10938 M14.3125,6 C14.9792,6 15.4766,6.16927 15.8047,6.50781 C16.1328,6.84635 16.2969,7.39583 16.2969,8.15625 L16.2969,12 L15.3438,12 L15.3438,8.20313 C15.3438,7.27604 14.9427,6.8125 14.1406,6.8125 C13.5677,6.8125 13.1589,6.97656 12.9141,7.30469 C12.6693,7.63281 12.5469,8.11458 12.5469,8.75 L12.5469,12 L11.5938,12 L11.5938,8.20313 C11.5938,7.27604 11.1875,6.8125 10.375,6.8125 C9.78125,6.8125 9.3724,6.99479 9.14844,7.35938 C8.92448,7.72396 8.8125,8.25 8.8125,8.9375 L8.8125,12 L7.84375,12 L7.84375,6.10938 L8.625,6.10938 L8.76563,6.90625 L8.82813,6.90625 C9.00521,6.59375 9.25,6.36458 9.5625,6.21875 C9.875,6.07292 10.2083,6 10.5625,6 C11.4792,6 12.0781,6.32813 12.3594,6.98438 L12.4219,6.98438 C12.6198,6.65104 12.888,6.40365 13.2266,6.24219 C13.5651,6.08073 13.9271,6 14.3125,6 M23.0469,6.10938 L23.0469,12 L22.2656,12 L22.1094,11.2188 L22.0781,11.2188 C21.8802,11.5313 21.6146,11.7578 21.2813,11.8984 C20.9479,12.0391 20.5885,12.1094 20.2031,12.1094 C19.4948,12.1094 18.9609,11.9401 18.6016,11.6016 C18.2422,11.263 18.0625,10.7188 18.0625,9.96875 L18.0625,6.10938 L19.0313,6.10938 L19.0313,9.90625 C19.0313,10.8438 19.4688,11.3125 20.3438,11.3125 C21,11.3125 21.4531,11.1276 21.7031,10.7578 C21.9531,10.388 22.0781,9.85938 22.0781,9.17188 L22.0781,6.10938 L23.0469,6.10938"/>
</g>

<g fill="none" stroke="#000000" stroke-opacity="1" stroke-width="1" stroke-linecap="square" stroke-linejoin="bevel" transform="matrix(2,0,0,2,182.796,20)"
font-family="sans" font-size="11" font-weight="100" font-style="normal" 
>
</g>

<g fill="none" stroke="#000000" stroke-opacity="1" stroke-width="1" stroke-linecap="square" stroke-linejoin="bevel" transform="matrix(2,0,0,2,182.796,20)"
font-family="Ubuntu" font-size="10" font-weight="400" font-style="normal" 
>
</g>

<g fill="none" stroke="#000000" stroke-opacity="1" stroke-width="1" stroke-linecap="square" stroke-linejoin="bevel" transform="matrix(2,0,0,2,0.00048,180)"
font-family="Ubuntu" font-size="10" font-weight="400" font-style="normal" 
>
</g>

<g fill="none" stroke="#000000" stroke-opacity="1" stroke-width="1" stroke-linecap="square" stroke-linejoin="bevel" transform="matrix(2,0,0,2,0.00048,180)"
font-family="Ubuntu" font-size="10" font-weight="400" font-style="normal" 
>
</g>

<g fill="none" stroke="#000000" stroke-opacity="1" stroke-width="1" stroke-linecap="square" stroke-linejoin="bevel" transform="matrix(2,0,0,2,0.00048,180)"
font-family="Ubuntu" font-size="10" font-weight="400" font-style="normal" 
>
</g>

<g fill="none" stroke="#000000" stroke-opacity="1" stroke-width="1" stroke-linecap="square" stroke-linejoin="round" transform="matrix(2,0,0,2,0.00048,180)"
font-family="Ubuntu" font-size="10" font-weight="400" font-style="normal" 
>
<ellipse cx="224.34" cy="-72" rx="70.9924" ry="17.5"/>
</g>

<g fill="none" stroke="#000000" stroke-opacity="1" stroke-width="1" stroke-linecap="square" stroke-linejoin="bevel" transform="matrix(2,0,0,2,0.00048,180)"
font-family="Ubuntu" font-size="10" font-weight="400" font-style="normal" 
>
</g>

<g fill="none" stroke="#000000" stroke-opacity="1" stroke-width="1" stroke-linecap="square" stroke-linejoin="bevel" transform="matrix(2,0,0,2,380.243,20)"
font-family="Ubuntu" font-size="10" font-weight="400" font-style="normal" 
>
</g>

<g fill="none" stroke="#000000" stroke-opacity="1" stroke-width="1" stroke-linecap="square" stroke-linejoin="bevel" transform="matrix(2,0,0,2,380.243,20)"
font-family="sans" font-size="11" font-weight="100" font-style="normal" 
>
</g>

<g fill="#000000" fill-opacity="1" stroke="#000000" stroke-opacity="1" stroke-width="1" stroke-linecap="square" stroke-linejoin="round" transform="matrix(2,0,0,2,380.243,20)"
font-family="sans" font-size="11" font-weight="100" font-style="normal" 
>
<path vector-effect="none" fill-rule="nonzero" d="M3.98438,4.14063 L1.0625,12 L0.109375,12 L3.03125,4.14063 L3.98438,4.14063 M5.96875,8 C5.96875,8.125 5.96354,8.28125 5.95313,8.46875 C5.94271,8.65625 5.93229,8.82292 5.92188,8.96875 L5.96875,8.96875 C6.01042,8.90625 6.07552,8.82031 6.16406,8.71094 C6.2526,8.60156 6.34375,8.48958 6.4375,8.375 C6.53125,8.26042 6.60938,8.16667 6.67188,8.09375 L8.5625,6.10938 L9.6875,6.10938 L7.29688,8.625 L9.85938,12 L8.6875,12 L6.64063,9.25 L5.96875,9.82813 L5.96875,12 L5.01563,12 L5.01563,3.64063 L5.96875,3.64063 L5.96875,8 M13.5938,6.84375 L12.1094,6.84375 L12.1094,12 L11.1406,12 L11.1406,6.84375 L10.1094,6.84375 L10.1094,6.40625 L11.1406,6.0625 L11.1406,5.73438 C11.1406,4.96354 11.3099,4.41146 11.6484,4.07813 C11.987,3.74479 12.4531,3.57813 13.0469,3.57813 C13.2865,3.57813 13.5026,3.59896 13.6953,3.64063 C13.888,3.68229 14.0521,3.72917 14.1875,3.78125 L13.9375,4.54688 C13.8229,4.50521 13.6875,4.46615 13.5313,4.42969 C13.375,4.39323 13.2188,4.375 13.0625,4.375 C12.7396,4.375 12.5,4.48438 12.3438,4.70313 C12.1875,4.92188 12.1094,5.26042 12.1094,5.71875 L12.1094,6.10938 L13.5938,6.10938 L13.5938,6.84375 M18.625,13.6875 L13.7031,13.6875 L13.7031,12.9844 L18.625,12.9844 L18.625,13.6875 M21.8125,6 C22.3125,6 22.7448,6.10938 23.1094,6.32813 C23.474,6.54688 23.7526,6.85677 23.9453,7.25781 C24.138,7.65885 24.2344,8.125 24.2344,8.65625 L24.2344,9.23438 L20.2031,9.23438 C20.2135,9.90104 20.3828,10.4089 20.7109,10.7578 C21.0391,11.1068 21.4948,11.2813 22.0781,11.2813 C22.4531,11.2813 22.7865,11.2474 23.0781,11.1797 C23.3698,11.112 23.6667,11.0104 23.9688,10.875 L23.9688,11.7188 C23.6667,11.8542 23.3698,11.9531 23.0781,12.0156 C22.7865,12.0781 22.4375,12.1094 22.0313,12.1094 C21.4792,12.1094 20.987,11.9948 20.5547,11.7656 C20.1224,11.5365 19.7891,11.1979 19.5547,10.75 C19.3203,10.3021 19.2031,9.75 19.2031,9.09375 C19.2031,8.44792 19.3099,7.89323 19.5234,7.42969 C19.737,6.96615 20.0417,6.61198 20.4375,6.36719 C20.8333,6.1224 21.2917,6 21.8125,6 M21.7969,6.78125 C21.3385,6.78125 20.974,6.92969 20.7031,7.22656 C20.4323,7.52344 20.2708,7.9375 20.2188,8.46875 L23.2188,8.46875 C23.2188,7.96875 23.1042,7.5625 22.875,7.25 C22.6458,6.9375 22.2865,6.78125 21.7969,6.78125 M29.5781,10.375 C29.5781,10.9479 29.3646,11.3802 28.9375,11.6719 C28.5104,11.9635 27.9375,12.1094 27.2188,12.1094 C26.8021,12.1094 26.4453,12.0755 26.1484,12.0078 C25.8516,11.9401 25.5938,11.849 25.375,11.7344 L25.375,10.8594 C25.6042,10.974 25.8854,11.0807 26.2188,11.1797 C26.5521,11.2786 26.8906,11.3281 27.2344,11.3281 C27.724,11.3281 28.0807,11.25 28.3047,11.0938 C28.5286,10.9375 28.6406,10.724 28.6406,10.4531 C28.6406,10.3073 28.599,10.1771 28.5156,10.0625 C28.4323,9.94792 28.2865,9.83073 28.0781,9.71094 C27.8698,9.59115 27.5729,9.45833 27.1875,9.3125 C26.8021,9.16667 26.474,9.02083 26.2031,8.875 C25.9323,8.72917 25.724,8.55469 25.5781,8.35156 C25.4323,8.14844 25.3594,7.88542 25.3594,7.5625 C25.3594,7.0625 25.5625,6.67708 25.9688,6.40625 C26.375,6.13542 26.9063,6 27.5625,6 C27.9271,6 28.2656,6.03385 28.5781,6.10156 C28.8906,6.16927 29.1823,6.26563 29.4531,6.39063 L29.125,7.15625 C28.875,7.05208 28.6146,6.96354 28.3438,6.89063 C28.0729,6.81771 27.7917,6.78125 27.5,6.78125 C27.1042,6.78125 26.8021,6.84635 26.5938,6.97656 C26.3854,7.10677 26.2813,7.28125 26.2813,7.5 C26.2813,7.66667 26.3281,7.80469 26.4219,7.91406 C26.5156,8.02344 26.6745,8.13281 26.8984,8.24219 C27.1224,8.35156 27.4219,8.47917 27.7969,8.625 C28.1719,8.76042 28.4922,8.90104 28.7578,9.04688 C29.0234,9.19271 29.2266,9.3724 29.3672,9.58594 C29.5078,9.79948 29.5781,10.0625 29.5781,10.375 M32.9688,11.3125 C33.1146,11.3125 33.2656,11.2995 33.4219,11.2734 C33.5781,11.2474 33.7031,11.224 33.7969,11.2031 L33.7969,11.9375 C33.6927,11.9896 33.5443,12.0313 33.3516,12.0625 C33.1589,12.0938 32.974,12.1094 32.7969,12.1094 C32.4948,12.1094 32.2135,12.0573 31.9531,11.9531 C31.6927,11.849 31.4818,11.6641 31.3203,11.3984 C31.1589,11.1328 31.0781,10.7604 31.0781,10.2813 L31.0781,6.84375 L30.2344,6.84375 L30.2344,6.39063 L31.0781,6 L31.4688,4.75 L32.0469,4.75 L32.0469,6.10938 L33.75,6.10938 L33.75,6.84375 L32.0469,6.84375 L32.0469,10.2656 C32.0469,10.6198 32.1328,10.8828 32.3047,11.0547 C32.4766,11.2266 32.6979,11.3125 32.9688,11.3125 M35.4688,3.89063 C35.6146,3.89063 35.7422,3.9401 35.8516,4.03906 C35.9609,4.13802 36.0156,4.29688 36.0156,4.51563 C36.0156,4.71354 35.9609,4.86458 35.8516,4.96875 C35.7422,5.07292 35.6146,5.125 35.4688,5.125 C35.3021,5.125 35.1641,5.07292 35.0547,4.96875 C34.9453,4.86458 34.8906,4.71354 34.8906,4.51563 C34.8906,4.29688 34.9453,4.13802 35.0547,4.03906 C35.1641,3.9401 35.3021,3.89063 35.4688,3.89063 M35.9375,6.10938 L35.9375,12 L34.9688,12 L34.9688,6.10938 L35.9375,6.10938 M44.2656,6 C44.9323,6 45.4297,6.16927 45.7578,6.50781 C46.0859,6.84635 46.25,7.39583 46.25,8.15625 L46.25,12 L45.2969,12 L45.2969,8.20313 C45.2969,7.27604 44.8958,6.8125 44.0938,6.8125 C43.5208,6.8125 43.112,6.97656 42.8672,7.30469 C42.6224,7.63281 42.5,8.11458 42.5,8.75 L42.5,12 L41.5469,12 L41.5469,8.20313 C41.5469,7.27604 41.1406,6.8125 40.3281,6.8125 C39.7344,6.8125 39.3255,6.99479 39.1016,7.35938 C38.8776,7.72396 38.7656,8.25 38.7656,8.9375 L38.7656,12 L37.7969,12 L37.7969,6.10938 L38.5781,6.10938 L38.7188,6.90625 L38.7813,6.90625 C38.9583,6.59375 39.2031,6.36458 39.5156,6.21875 C39.8281,6.07292 40.1615,6 40.5156,6 C41.4323,6 42.0313,6.32813 42.3125,6.98438 L42.375,6.98438 C42.5729,6.65104 42.8411,6.40365 43.1797,6.24219 C43.5182,6.08073 43.8802,6 44.2656,6 M50.3125,6 C51.0313,6 51.5625,6.15885 51.9063,6.47656 C52.25,6.79427 52.4219,7.29688 52.4219,7.98438 L52.4219,12 L51.7188,12 L51.5313,11.1563 L51.4844,11.1563 C51.224,11.4792 50.9531,11.7188 50.6719,11.875 C50.3906,12.0313 50,12.1094 49.5,12.1094 C48.9688,12.1094 48.526,11.9688 48.1719,11.6875 C47.8177,11.4063 47.6406,10.9635 47.6406,10.3594 C47.6406,9.77604 47.8724,9.32552 48.3359,9.00781 C48.7995,8.6901 49.5104,8.51563 50.4688,8.48438 L51.4688,8.45313 L51.4688,8.09375 C51.4688,7.60417 51.3646,7.26302 51.1563,7.07031 C50.9479,6.8776 50.6458,6.78125 50.25,6.78125 C49.9479,6.78125 49.6563,6.82813 49.375,6.92188 C49.0938,7.01563 48.8333,7.11979 48.5938,7.23438 L48.2969,6.51563 C48.5573,6.36979 48.862,6.2474 49.2109,6.14844 C49.5599,6.04948 49.9271,6 50.3125,6 M50.5938,9.15625 C49.8646,9.17708 49.3568,9.29167 49.0703,9.5 C48.7839,9.70833 48.6406,10 48.6406,10.375 C48.6406,10.6979 48.7422,10.9375 48.9453,11.0938 C49.1484,11.25 49.4063,11.3281 49.7188,11.3281 C50.2188,11.3281 50.6354,11.1901 50.9688,10.9141 C51.3021,10.638 51.4688,10.2135 51.4688,9.64063 L51.4688,9.125 L50.5938,9.15625 M56.2031,11.3125 C56.349,11.3125 56.5,11.2995 56.6563,11.2734 C56.8125,11.2474 56.9375,11.224 57.0313,11.2031 L57.0313,11.9375 C56.9271,11.9896 56.7786,12.0313 56.5859,12.0625 C56.3932,12.0938 56.2083,12.1094 56.0313,12.1094 C55.7292,12.1094 55.4479,12.0573 55.1875,11.9531 C54.9271,11.849 54.7161,11.6641 54.5547,11.3984 C54.3932,11.1328 54.3125,10.7604 54.3125,10.2813 L54.3125,6.84375 L53.4688,6.84375 L53.4688,6.39063 L54.3125,6 L54.7031,4.75 L55.2813,4.75 L55.2813,6.10938 L56.9844,6.10938 L56.9844,6.84375 L55.2813,6.84375 L55.2813,10.2656 C55.2813,10.6198 55.3672,10.8828 55.5391,11.0547 C55.7109,11.2266 55.9323,11.3125 56.2031,11.3125 M63.3281,9.04688 C63.3281,10.0156 63.0807,10.7682 62.5859,11.3047 C62.0911,11.8411 61.4219,12.1094 60.5781,12.1094 C60.0573,12.1094 59.5938,11.9896 59.1875,11.75 C58.7813,11.5104 58.4609,11.1615 58.2266,10.7031 C57.9922,10.2448 57.875,9.69271 57.875,9.04688 C57.875,8.06771 58.1198,7.3151 58.6094,6.78906 C59.099,6.26302 59.7656,6 60.6094,6 C61.1406,6 61.612,6.11719 62.0234,6.35156 C62.4349,6.58594 62.7552,6.92969 62.9844,7.38281 C63.2135,7.83594 63.3281,8.39063 63.3281,9.04688 M58.875,9.04688 C58.875,9.73438 59.013,10.2839 59.2891,10.6953 C59.5651,11.1068 60,11.3125 60.5938,11.3125 C61.1875,11.3125 61.625,11.1068 61.9063,10.6953 C62.1875,10.2839 62.3281,9.73438 62.3281,9.04688 C62.3281,8.34896 62.1875,7.80208 61.9063,7.40625 C61.625,7.01042 61.1875,6.8125 60.5938,6.8125 C59.9896,6.8125 59.5521,7.01042 59.2813,7.40625 C59.0104,7.80208 58.875,8.34896 58.875,9.04688 M67.5938,6 C67.6979,6 67.8151,6.00521 67.9453,6.01563 C68.0755,6.02604 68.1875,6.04167 68.2813,6.0625 L68.1563,6.95313 C68.0625,6.93229 67.9609,6.91406 67.8516,6.89844 C67.7422,6.88281 67.6354,6.875 67.5313,6.875 C67.2292,6.875 66.9453,6.95833 66.6797,7.125 C66.4141,7.29167 66.2031,7.52344 66.0469,7.82031 C65.8906,8.11719 65.8125,8.46354 65.8125,8.85938 L65.8125,12 L64.8438,12 L64.8438,6.10938 L65.6406,6.10938 L65.75,7.1875 L65.7813,7.1875 C65.9792,6.86458 66.2266,6.58594 66.5234,6.35156 C66.8203,6.11719 67.1771,6 67.5938,6 "/>
</g>

<g fill="none" stroke="#000000" stroke-opacity="1" stroke-width="1" stroke-linecap="square" stroke-linejoin="bevel" transform="matrix(2,0,0,2,380.243,20)"
font-family="sans" font-size="11" font-weight="100" font-style="normal" 
>
</g>

<g fill="none" stroke="#000000" stroke-opacity="1" stroke-width="1" stroke-linecap="square" stroke-linejoin="bevel" transform="matrix(2,0,0,2,380.243,20)"
font-family="Ubuntu" font-size="10" font-weight="400" font-style="normal" 
>
</g>

<g fill="none" stroke="#000000" stroke-opacity="1" stroke-width="1" stroke-linecap="square" stroke-linejoin="bevel" transform="matrix(2,0,0,2,0.00048,180)"
font-family="Ubuntu" font-size="10" font-weight="400" font-style="normal" 
>
</g>

<g fill="none" stroke="#000000" stroke-opacity="1" stroke-width="1" stroke-linecap="square" stroke-linejoin="bevel" transform="matrix(2,0,0,2,0.00048,180)"
font-family="Ubuntu" font-size="10" font-weight="400" font-style="normal" 
>
</g>

<g fill="none" stroke="#000000" stroke-opacity="1" stroke-width="1" stroke-linecap="square" stroke-linejoin="bevel" transform="matrix(2,0,0,2,0.00048,180)"
font-family="Ubuntu" font-size="10" font-weight="400" font-style="normal" 
>
</g>

<g fill="none" stroke="#000000" stroke-opacity="1" stroke-width="1" stroke-linecap="square" stroke-linejoin="round" transform="matrix(2,0,0,2,0.00048,180)"
font-family="Ubuntu" font-size="10" font-weight="400" font-style="normal" 
>
<ellipse cx="224.34" cy="-18" rx="79.4416" ry="17.5"/>
</g>

<g fill="none" stroke="#000000" stroke-opacity="1" stroke-width="1" stroke-linecap="square" stroke-linejoin="bevel" transform="matrix(2,0,0,2,0.00048,180)"
font-family="Ubuntu" font-size="10" font-weight="400" font-style="normal" 
>
</g>

<g fill="none" stroke="#000000" stroke-opacity="1" stroke-width="1" stroke-linecap="square" stroke-linejoin="bevel" transform="matrix(2,0,0,2,370.134,128)"
font-family="Ubuntu" font-size="10" font-weight="400" font-style="normal" 
>
</g>

<g fill="none" stroke="#000000" stroke-opacity="1" stroke-width="1" stroke-linecap="square" stroke-linejoin="bevel" transform="matrix(2,0,0,2,370.134,128)"
font-family="sans" font-size="11" font-weight="100" font-style="normal" 
>
</g>

<g fill="#000000" fill-opacity="1" stroke="#000000" stroke-opacity="1" stroke-width="1" stroke-linecap="square" stroke-linejoin="round" transform="matrix(2,0,0,2,370.134,128)"
font-family="sans" font-size="11" font-weight="100" font-style="normal" 
>
<path vector-effect="none" fill-rule="nonzero" d="M3.98438,4.14063 L1.0625,12 L0.109375,12 L3.03125,4.14063 L3.98438,4.14063 M7.25,6 C7.96875,6 8.5,6.15885 8.84375,6.47656 C9.1875,6.79427 9.35938,7.29688 9.35938,7.98438 L9.35938,12 L8.65625,12 L8.46875,11.1563 L8.42188,11.1563 C8.16146,11.4792 7.89063,11.7188 7.60938,11.875 C7.32813,12.0313 6.9375,12.1094 6.4375,12.1094 C5.90625,12.1094 5.46354,11.9688 5.10938,11.6875 C4.75521,11.4063 4.57813,10.9635 4.57813,10.3594 C4.57813,9.77604 4.8099,9.32552 5.27344,9.00781 C5.73698,8.6901 6.44792,8.51563 7.40625,8.48438 L8.40625,8.45313 L8.40625,8.09375 C8.40625,7.60417 8.30208,7.26302 8.09375,7.07031 C7.88542,6.8776 7.58333,6.78125 7.1875,6.78125 C6.88542,6.78125 6.59375,6.82813 6.3125,6.92188 C6.03125,7.01563 5.77083,7.11979 5.53125,7.23438 L5.23438,6.51563 C5.49479,6.36979 5.79948,6.2474 6.14844,6.14844 C6.4974,6.04948 6.86458,6 7.25,6 M7.53125,9.15625 C6.80208,9.17708 6.29427,9.29167 6.00781,9.5 C5.72135,9.70833 5.57813,10 5.57813,10.375 C5.57813,10.6979 5.67969,10.9375 5.88281,11.0938 C6.08594,11.25 6.34375,11.3281 6.65625,11.3281 C7.15625,11.3281 7.57292,11.1901 7.90625,10.9141 C8.23958,10.638 8.40625,10.2135 8.40625,9.64063 L8.40625,9.125 L7.53125,9.15625 M14.0156,6 C14.7135,6 15.2422,6.16927 15.6016,6.50781 C15.9609,6.84635 16.1406,7.39583 16.1406,8.15625 L16.1406,12 L15.1875,12 L15.1875,8.21875 C15.1875,7.28125 14.7448,6.8125 13.8594,6.8125 C13.2135,6.8125 12.7656,6.99479 12.5156,7.35938 C12.2656,7.72396 12.1406,8.25 12.1406,8.9375 L12.1406,12 L11.1719,12 L11.1719,6.10938 L11.9531,6.10938 L12.0938,6.90625 L12.1563,6.90625 C12.3438,6.59375 12.6068,6.36458 12.9453,6.21875 C13.2839,6.07292 13.6406,6 14.0156,6 M20.8125,6 C21.5104,6 22.0391,6.16927 22.3984,6.50781 C22.7578,6.84635 22.9375,7.39583 22.9375,8.15625 L22.9375,12 L21.9844,12 L21.9844,8.21875 C21.9844,7.28125 21.5417,6.8125 20.6563,6.8125 C20.0104,6.8125 19.5625,6.99479 19.3125,7.35938 C19.0625,7.72396 18.9375,8.25 18.9375,8.9375 L18.9375,12 L17.9688,12 L17.9688,6.10938 L18.75,6.10938 L18.8906,6.90625 L18.9531,6.90625 C19.1406,6.59375 19.4036,6.36458 19.7422,6.21875 C20.0807,6.07292 20.4375,6 20.8125,6 M28.7344,13.6875 L23.8125,13.6875 L23.8125,12.9844 L28.7344,12.9844 L28.7344,13.6875 M31.9219,6 C32.4219,6 32.8542,6.10938 33.2188,6.32813 C33.5833,6.54688 33.862,6.85677 34.0547,7.25781 C34.2474,7.65885 34.3438,8.125 34.3438,8.65625 L34.3438,9.23438 L30.3125,9.23438 C30.3229,9.90104 30.4922,10.4089 30.8203,10.7578 C31.1484,11.1068 31.6042,11.2813 32.1875,11.2813 C32.5625,11.2813 32.8958,11.2474 33.1875,11.1797 C33.4792,11.112 33.776,11.0104 34.0781,10.875 L34.0781,11.7188 C33.776,11.8542 33.4792,11.9531 33.1875,12.0156 C32.8958,12.0781 32.5469,12.1094 32.1406,12.1094 C31.5885,12.1094 31.0964,11.9948 30.6641,11.7656 C30.2318,11.5365 29.8984,11.1979 29.6641,10.75 C29.4297,10.3021 29.3125,9.75 29.3125,9.09375 C29.3125,8.44792 29.4193,7.89323 29.6328,7.42969 C29.8464,6.96615 30.151,6.61198 30.5469,6.36719 C30.9427,6.1224 31.401,6 31.9219,6 M31.9063,6.78125 C31.4479,6.78125 31.0833,6.92969 30.8125,7.22656 C30.5417,7.52344 30.3802,7.9375 30.3281,8.46875 L33.3281,8.46875 C33.3281,7.96875 33.2135,7.5625 32.9844,7.25 C32.7552,6.9375 32.3958,6.78125 31.9063,6.78125 M39.6875,10.375 C39.6875,10.9479 39.474,11.3802 39.0469,11.6719 C38.6198,11.9635 38.0469,12.1094 37.3281,12.1094 C36.9115,12.1094 36.5547,12.0755 36.2578,12.0078 C35.9609,11.9401 35.7031,11.849 35.4844,11.7344 L35.4844,10.8594 C35.7135,10.974 35.9948,11.0807 36.3281,11.1797 C36.6615,11.2786 37,11.3281 37.3438,11.3281 C37.8333,11.3281 38.1901,11.25 38.4141,11.0938 C38.638,10.9375 38.75,10.724 38.75,10.4531 C38.75,10.3073 38.7083,10.1771 38.625,10.0625 C38.5417,9.94792 38.3958,9.83073 38.1875,9.71094 C37.9792,9.59115 37.6823,9.45833 37.2969,9.3125 C36.9115,9.16667 36.5833,9.02083 36.3125,8.875 C36.0417,8.72917 35.8333,8.55469 35.6875,8.35156 C35.5417,8.14844 35.4688,7.88542 35.4688,7.5625 C35.4688,7.0625 35.6719,6.67708 36.0781,6.40625 C36.4844,6.13542 37.0156,6 37.6719,6 C38.0365,6 38.375,6.03385 38.6875,6.10156 C39,6.16927 39.2917,6.26563 39.5625,6.39063 L39.2344,7.15625 C38.9844,7.05208 38.724,6.96354 38.4531,6.89063 C38.1823,6.81771 37.901,6.78125 37.6094,6.78125 C37.2135,6.78125 36.9115,6.84635 36.7031,6.97656 C36.4948,7.10677 36.3906,7.28125 36.3906,7.5 C36.3906,7.66667 36.4375,7.80469 36.5313,7.91406 C36.625,8.02344 36.7839,8.13281 37.0078,8.24219 C37.2318,8.35156 37.5313,8.47917 37.9063,8.625 C38.2813,8.76042 38.6016,8.90104 38.8672,9.04688 C39.1328,9.19271 39.3359,9.3724 39.4766,9.58594 C39.6172,9.79948 39.6875,10.0625 39.6875,10.375 M43.0781,11.3125 C43.224,11.3125 43.375,11.2995 43.5313,11.2734 C43.6875,11.2474 43.8125,11.224 43.9063,11.2031 L43.9063,11.9375 C43.8021,11.9896 43.6536,12.0313 43.4609,12.0625 C43.2682,12.0938 43.0833,12.1094 42.9063,12.1094 C42.6042,12.1094 42.3229,12.0573 42.0625,11.9531 C41.8021,11.849 41.5911,11.6641 41.4297,11.3984 C41.2682,11.1328 41.1875,10.7604 41.1875,10.2813 L41.1875,6.84375 L40.3438,6.84375 L40.3438,6.39063 L41.1875,6 L41.5781,4.75 L42.1563,4.75 L42.1563,6.10938 L43.8594,6.10938 L43.8594,6.84375 L42.1563,6.84375 L42.1563,10.2656 C42.1563,10.6198 42.2422,10.8828 42.4141,11.0547 C42.5859,11.2266 42.8073,11.3125 43.0781,11.3125 M45.5781,3.89063 C45.724,3.89063 45.8516,3.9401 45.9609,4.03906 C46.0703,4.13802 46.125,4.29688 46.125,4.51563 C46.125,4.71354 46.0703,4.86458 45.9609,4.96875 C45.8516,5.07292 45.724,5.125 45.5781,5.125 C45.4115,5.125 45.2734,5.07292 45.1641,4.96875 C45.0547,4.86458 45,4.71354 45,4.51563 C45,4.29688 45.0547,4.13802 45.1641,4.03906 C45.2734,3.9401 45.4115,3.89063 45.5781,3.89063 M46.0469,6.10938 L46.0469,12 L45.0781,12 L45.0781,6.10938 L46.0469,6.10938 M54.375,6 C55.0417,6 55.5391,6.16927 55.8672,6.50781 C56.1953,6.84635 56.3594,7.39583 56.3594,8.15625 L56.3594,12 L55.4063,12 L55.4063,8.20313 C55.4063,7.27604 55.0052,6.8125 54.2031,6.8125 C53.6302,6.8125 53.2214,6.97656 52.9766,7.30469 C52.7318,7.63281 52.6094,8.11458 52.6094,8.75 L52.6094,12 L51.6563,12 L51.6563,8.20313 C51.6563,7.27604 51.25,6.8125 50.4375,6.8125 C49.8438,6.8125 49.4349,6.99479 49.2109,7.35938 C48.987,7.72396 48.875,8.25 48.875,8.9375 L48.875,12 L47.9063,12 L47.9063,6.10938 L48.6875,6.10938 L48.8281,6.90625 L48.8906,6.90625 C49.0677,6.59375 49.3125,6.36458 49.625,6.21875 C49.9375,6.07292 50.2708,6 50.625,6 C51.5417,6 52.1406,6.32813 52.4219,6.98438 L52.4844,6.98438 C52.6823,6.65104 52.9505,6.40365 53.2891,6.24219 C53.6276,6.08073 53.9896,6 54.375,6 M60.4219,6 C61.1406,6 61.6719,6.15885 62.0156,6.47656 C62.3594,6.79427 62.5313,7.29688 62.5313,7.98438 L62.5313,12 L61.8281,12 L61.6406,11.1563 L61.5938,11.1563 C61.3333,11.4792 61.0625,11.7188 60.7813,11.875 C60.5,12.0313 60.1094,12.1094 59.6094,12.1094 C59.0781,12.1094 58.6354,11.9688 58.2813,11.6875 C57.9271,11.4063 57.75,10.9635 57.75,10.3594 C57.75,9.77604 57.9818,9.32552 58.4453,9.00781 C58.9089,8.6901 59.6198,8.51563 60.5781,8.48438 L61.5781,8.45313 L61.5781,8.09375 C61.5781,7.60417 61.474,7.26302 61.2656,7.07031 C61.0573,6.8776 60.7552,6.78125 60.3594,6.78125 C60.0573,6.78125 59.7656,6.82813 59.4844,6.92188 C59.2031,7.01563 58.9427,7.11979 58.7031,7.23438 L58.4063,6.51563 C58.6667,6.36979 58.9714,6.2474 59.3203,6.14844 C59.6693,6.04948 60.0365,6 60.4219,6 M60.7031,9.15625 C59.974,9.17708 59.4661,9.29167 59.1797,9.5 C58.8932,9.70833 58.75,10 58.75,10.375 C58.75,10.6979 58.8516,10.9375 59.0547,11.0938 C59.2578,11.25 59.5156,11.3281 59.8281,11.3281 C60.3281,11.3281 60.7448,11.1901 61.0781,10.9141 C61.4115,10.638 61.5781,10.2135 61.5781,9.64063 L61.5781,9.125 L60.7031,9.15625 M66.3125,11.3125 C66.4583,11.3125 66.6094,11.2995 66.7656,11.2734 C66.9219,11.2474 67.0469,11.224 67.1406,11.2031 L67.1406,11.9375 C67.0365,11.9896 66.888,12.0313 66.6953,12.0625 C66.5026,12.0938 66.3177,12.1094 66.1406,12.1094 C65.8385,12.1094 65.5573,12.0573 65.2969,11.9531 C65.0365,11.849 64.8255,11.6641 64.6641,11.3984 C64.5026,11.1328 64.4219,10.7604 64.4219,10.2813 L64.4219,6.84375 L63.5781,6.84375 L63.5781,6.39063 L64.4219,6 L64.8125,4.75 L65.3906,4.75 L65.3906,6.10938 L67.0938,6.10938 L67.0938,6.84375 L65.3906,6.84375 L65.3906,10.2656 C65.3906,10.6198 65.4766,10.8828 65.6484,11.0547 C65.8203,11.2266 66.0417,11.3125 66.3125,11.3125 M73.4375,9.04688 C73.4375,10.0156 73.1901,10.7682 72.6953,11.3047 C72.2005,11.8411 71.5313,12.1094 70.6875,12.1094 C70.1667,12.1094 69.7031,11.9896 69.2969,11.75 C68.8906,11.5104 68.5703,11.1615 68.3359,10.7031 C68.1016,10.2448 67.9844,9.69271 67.9844,9.04688 C67.9844,8.06771 68.2292,7.3151 68.7188,6.78906 C69.2083,6.26302 69.875,6 70.7188,6 C71.25,6 71.7214,6.11719 72.1328,6.35156 C72.5443,6.58594 72.8646,6.92969 73.0938,7.38281 C73.3229,7.83594 73.4375,8.39063 73.4375,9.04688 M68.9844,9.04688 C68.9844,9.73438 69.1224,10.2839 69.3984,10.6953 C69.6745,11.1068 70.1094,11.3125 70.7031,11.3125 C71.2969,11.3125 71.7344,11.1068 72.0156,10.6953 C72.2969,10.2839 72.4375,9.73438 72.4375,9.04688 C72.4375,8.34896 72.2969,7.80208 72.0156,7.40625 C71.7344,7.01042 71.2969,6.8125 70.7031,6.8125 C70.099,6.8125 69.6615,7.01042 69.3906,7.40625 C69.1198,7.80208 68.9844,8.34896 68.9844,9.04688 M77.7031,6 C77.8073,6 77.9245,6.00521 78.0547,6.01563 C78.1849,6.02604 78.2969,6.04167 78.3906,6.0625 L78.2656,6.95313 C78.1719,6.93229 78.0703,6.91406 77.9609,6.89844 C77.8516,6.88281 77.7448,6.875 77.6406,6.875 C77.3385,6.875 77.0547,6.95833 76.7891,7.125 C76.5234,7.29167 76.3125,7.52344 76.1563,7.82031 C76,8.11719 75.9219,8.46354 75.9219,8.85938 L75.9219,12 L74.9531,12 L74.9531,6.10938 L75.75,6.10938 L75.8594,7.1875 L75.8906,7.1875 C76.0885,6.86458 76.3359,6.58594 76.6328,6.35156 C76.9297,6.11719 77.2865,6 77.7031,6 "/>
</g>

<g fill="none" stroke="#000000" stroke-opacity="1" stroke-width="1" stroke-linecap="square" stroke-linejoin="bevel" transform="matrix(2,0,0,2,370.134,128)"
font-family="sans" font-size="11" font-weight="100" font-style="normal" 
>
</g>

<g fill="none" stroke="#000000" stroke-opacity="1" stroke-width="1" stroke-linecap="square" stroke-linejoin="bevel" transform="matrix(2,0,0,2,370.134,128)"
font-family="Ubuntu" font-size="10" font-weight="400" font-style="normal" 
>
</g>

<g fill="none" stroke="#000000" stroke-opacity="1" stroke-width="1" stroke-linecap="square" stroke-linejoin="bevel" transform="matrix(2,0,0,2,0.00048,180)"
font-family="Ubuntu" font-size="10" font-weight="400" font-style="normal" 
>
</g>

<g fill="none" stroke="#000000" stroke-opacity="1" stroke-width="1" stroke-linecap="square" stroke-linejoin="bevel" transform="matrix(2,0,0,2,0.00048,180)"
font-family="Ubuntu" font-size="10" font-weight="400" font-style="normal" 
>
</g>

<g fill="none" stroke="#000000" stroke-opacity="1" stroke-width="1" stroke-linecap="square" stroke-linejoin="bevel" transform="matrix(2,0,0,2,0.00048,180)"
font-family="Ubuntu" font-size="10" font-weight="400" font-style="normal" 
>
</g>

<g fill="none" stroke="#000000" stroke-opacity="1" stroke-width="1" stroke-linecap="square" stroke-linejoin="round" transform="matrix(2,0,0,2,0.00048,180)"
font-family="Ubuntu" font-size="10" font-weight="400" font-style="normal" 
>
<rect x="76.89" y="-35.5" width="53" height="35"/>
</g>

<g fill="none" stroke="#000000" stroke-opacity="1" stroke-width="1" stroke-linecap="square" stroke-linejoin="bevel" transform="matrix(2,0,0,2,0.00048,180)"
font-family="Ubuntu" font-size="10" font-weight="400" font-style="normal" 
>
</g>

<g fill="none" stroke="#000000" stroke-opacity="1" stroke-width="1" stroke-linecap="square" stroke-linejoin="bevel" transform="matrix(2,0,0,2,183.937,128)"
font-family="Ubuntu" font-size="10" font-weight="400" font-style="normal" 
>
</g>

<g fill="none" stroke="#000000" stroke-opacity="1" stroke-width="1" stroke-linecap="square" stroke-linejoin="bevel" transform="matrix(2,0,0,2,183.937,128)"
font-family="sans" font-size="11" font-weight="100" font-style="normal" 
>
</g>

<g fill="#000000" fill-opacity="1" stroke="#000000" stroke-opacity="1" stroke-width="1" stroke-linecap="square" stroke-linejoin="round" transform="matrix(2,0,0,2,183.937,128)"
font-family="sans" font-size="11" font-weight="100" font-style="normal" 
>
<path vector-effect="none" fill-rule="nonzero" d="M3.98438,4.14063 L1.0625,12 L0.109375,12 L3.03125,4.14063 L3.98438,4.14063 M7.10938,6 C7.49479,6 7.84375,6.07292 8.15625,6.21875 C8.46875,6.36458 8.73438,6.58854 8.95313,6.89063 L9,6.89063 L9.14063,6.10938 L9.90625,6.10938 L9.90625,12.0938 C9.90625,12.9375 9.69271,13.5729 9.26563,14 C8.83854,14.4271 8.17188,14.6406 7.26563,14.6406 C6.40104,14.6406 5.69271,14.5156 5.14063,14.2656 L5.14063,13.375 C5.72396,13.6875 6.45313,13.8438 7.32813,13.8438 C7.82813,13.8438 8.22396,13.6953 8.51563,13.3984 C8.80729,13.1016 8.95313,12.6927 8.95313,12.1719 L8.95313,11.9375 C8.95313,11.8542 8.95573,11.7292 8.96094,11.5625 C8.96615,11.3958 8.97396,11.2813 8.98438,11.2188 L8.9375,11.2188 C8.54167,11.8125 7.93229,12.1094 7.10938,12.1094 C6.34896,12.1094 5.75521,11.8411 5.32813,11.3047 C4.90104,10.7682 4.6875,10.0208 4.6875,9.0625 C4.6875,8.125 4.90104,7.38021 5.32813,6.82813 C5.75521,6.27604 6.34896,6 7.10938,6 M7.23438,6.8125 C6.74479,6.8125 6.36458,7.00781 6.09375,7.39844 C5.82292,7.78906 5.6875,8.34896 5.6875,9.07813 C5.6875,9.79688 5.82031,10.349 6.08594,10.7344 C6.35156,11.1198 6.73958,11.3125 7.25,11.3125 C7.85417,11.3125 8.29167,11.1536 8.5625,10.8359 C8.83333,10.5182 8.96875,10.0052 8.96875,9.29688 L8.96875,9.0625 C8.96875,8.26042 8.82813,7.6849 8.54688,7.33594 C8.26563,6.98698 7.82813,6.8125 7.23438,6.8125 M14.5625,6 C15.2917,6 15.8776,6.2526 16.3203,6.75781 C16.763,7.26302 16.9844,8.02604 16.9844,9.04688 C16.9844,10.0469 16.763,10.8073 16.3203,11.3281 C15.8776,11.849 15.2917,12.1094 14.5625,12.1094 C14.1042,12.1094 13.7266,12.0234 13.4297,11.8516 C13.1328,11.6797 12.901,11.4792 12.7344,11.25 L12.6719,11.25 C12.6823,11.375 12.6953,11.5339 12.7109,11.7266 C12.7266,11.9193 12.7344,12.0833 12.7344,12.2188 L12.7344,14.6406 L11.7656,14.6406 L11.7656,6.10938 L12.5625,6.10938 L12.6875,6.90625 L12.7344,6.90625 C12.9115,6.64583 13.1432,6.42969 13.4297,6.25781 C13.7161,6.08594 14.0938,6 14.5625,6 M14.3906,6.8125 C13.7865,6.8125 13.362,6.97917 13.1172,7.3125 C12.8724,7.64583 12.7448,8.16146 12.7344,8.85938 L12.7344,9.04688 C12.7344,9.76563 12.8542,10.3229 13.0938,10.7188 C13.3333,11.1146 13.776,11.3125 14.4219,11.3125 C14.776,11.3125 15.0677,11.2135 15.2969,11.0156 C15.526,10.8177 15.6979,10.5469 15.8125,10.2031 C15.9271,9.85938 15.9844,9.46875 15.9844,9.03125 C15.9844,8.35417 15.8542,7.8151 15.5938,7.41406 C15.3333,7.01302 14.9323,6.8125 14.3906,6.8125 M22.3594,10.375 C22.3594,10.9479 22.1458,11.3802 21.7188,11.6719 C21.2917,11.9635 20.7188,12.1094 20,12.1094 C19.5833,12.1094 19.2266,12.0755 18.9297,12.0078 C18.6328,11.9401 18.375,11.849 18.1563,11.7344 L18.1563,10.8594 C18.3854,10.974 18.6667,11.0807 19,11.1797 C19.3333,11.2786 19.6719,11.3281 20.0156,11.3281 C20.5052,11.3281 20.862,11.25 21.0859,11.0938 C21.3099,10.9375 21.4219,10.724 21.4219,10.4531 C21.4219,10.3073 21.3802,10.1771 21.2969,10.0625 C21.2135,9.94792 21.0677,9.83073 20.8594,9.71094 C20.651,9.59115 20.3542,9.45833 19.9688,9.3125 C19.5833,9.16667 19.2552,9.02083 18.9844,8.875 C18.7135,8.72917 18.5052,8.55469 18.3594,8.35156 C18.2135,8.14844 18.1406,7.88542 18.1406,7.5625 C18.1406,7.0625 18.3438,6.67708 18.75,6.40625 C19.1563,6.13542 19.6875,6 20.3438,6 C20.7083,6 21.0469,6.03385 21.3594,6.10156 C21.6719,6.16927 21.9635,6.26563 22.2344,6.39063 L21.9063,7.15625 C21.6563,7.05208 21.3958,6.96354 21.125,6.89063 C20.8542,6.81771 20.5729,6.78125 20.2813,6.78125 C19.8854,6.78125 19.5833,6.84635 19.375,6.97656 C19.1667,7.10677 19.0625,7.28125 19.0625,7.5 C19.0625,7.66667 19.1094,7.80469 19.2031,7.91406 C19.2969,8.02344 19.4557,8.13281 19.6797,8.24219 C19.9036,8.35156 20.2031,8.47917 20.5781,8.625 C20.9531,8.76042 21.2734,8.90104 21.5391,9.04688 C21.8047,9.19271 22.0078,9.3724 22.1484,9.58594 C22.2891,9.79948 22.3594,10.0625 22.3594,10.375 "/>
</g>

<g fill="none" stroke="#000000" stroke-opacity="1" stroke-width="1" stroke-linecap="square" stroke-linejoin="bevel" transform="matrix(2,0,0,2,183.937,128)"
font-family="sans" font-size="11" font-weight="100" font-style="normal" 
>
</g>

<g fill="none" stroke="#000000" stroke-opacity="1" stroke-width="1" stroke-linecap="square" stroke-linejoin="bevel" transform="matrix(2,0,0,2,183.937,128)"
font-family="Ubuntu" font-size="10" font-weight="400" font-style="normal" 
>
</g>

<g fill="none" stroke="#000000" stroke-opacity="1" stroke-width="1" stroke-linecap="square" stroke-linejoin="bevel" transform="matrix(2,0,0,2,0.00048,180)"
font-family="Ubuntu" font-size="10" font-weight="400" font-style="normal" 
>
</g>

<g fill="none" stroke="#000000" stroke-opacity="1" stroke-width="1" stroke-linecap="square" stroke-linejoin="bevel" transform="matrix(2,0,0,2,0.00048,180)"
font-family="Ubuntu" font-size="10" font-weight="400" font-style="normal" 
>
</g>

<g fill="none" stroke="#000000" stroke-opacity="1" stroke-width="1" stroke-linecap="square" stroke-linejoin="bevel" transform="matrix(2,0,0,2,0.00048,180)"
font-family="Ubuntu" font-size="10" font-weight="400" font-style="normal" 
>
</g>

<g fill="none" stroke="#000000" stroke-opacity="1" stroke-width="1" stroke-linecap="square" stroke-linejoin="round" transform="matrix(2,0,0,2,0.00048,180)"
font-family="Ubuntu" font-size="10" font-weight="400" font-style="normal" 
>
<ellipse cx="31.197" cy="-18" rx="30.0474" ry="17.5"/>
</g>

<g fill="none" stroke="#000000" stroke-opacity="1" stroke-width="1" stroke-linecap="square" stroke-linejoin="bevel" transform="matrix(2,0,0,2,0.00048,180)"
font-family="Ubuntu" font-size="10" font-weight="400" font-style="normal" 
>
</g>

<g fill="none" stroke="#000000" stroke-opacity="1" stroke-width="1" stroke-linecap="square" stroke-linejoin="bevel" transform="matrix(2,0,0,2,39.5507,128)"
font-family="Ubuntu" font-size="10" font-weight="400" font-style="normal" 
>
</g>

<g fill="none" stroke="#000000" stroke-opacity="1" stroke-width="1" stroke-linecap="square" stroke-linejoin="bevel" transform="matrix(2,0,0,2,39.5507,128)"
font-family="sans" font-size="11" font-weight="100" font-style="normal" 
>
</g>

<g fill="#000000" fill-opacity="1" stroke="#000000" stroke-opacity="1" stroke-width="1" stroke-linecap="square" stroke-linejoin="round" transform="matrix(2,0,0,2,39.5507,128)"
font-family="sans" font-size="11" font-weight="100" font-style="normal" 
>
<path vector-effect="none" fill-rule="nonzero" d="M3.98438,4.14063 L1.0625,12 L0.109375,12 L3.03125,4.14063 L3.98438,4.14063 M7.10938,6 C7.49479,6 7.84375,6.07292 8.15625,6.21875 C8.46875,6.36458 8.73438,6.58854 8.95313,6.89063 L9,6.89063 L9.14063,6.10938 L9.90625,6.10938 L9.90625,12.0938 C9.90625,12.9375 9.69271,13.5729 9.26563,14 C8.83854,14.4271 8.17188,14.6406 7.26563,14.6406 C6.40104,14.6406 5.69271,14.5156 5.14063,14.2656 L5.14063,13.375 C5.72396,13.6875 6.45313,13.8438 7.32813,13.8438 C7.82813,13.8438 8.22396,13.6953 8.51563,13.3984 C8.80729,13.1016 8.95313,12.6927 8.95313,12.1719 L8.95313,11.9375 C8.95313,11.8542 8.95573,11.7292 8.96094,11.5625 C8.96615,11.3958 8.97396,11.2813 8.98438,11.2188 L8.9375,11.2188 C8.54167,11.8125 7.93229,12.1094 7.10938,12.1094 C6.34896,12.1094 5.75521,11.8411 5.32813,11.3047 C4.90104,10.7682 4.6875,10.0208 4.6875,9.0625 C4.6875,8.125 4.90104,7.38021 5.32813,6.82813 C5.75521,6.27604 6.34896,6 7.10938,6 M7.23438,6.8125 C6.74479,6.8125 6.36458,7.00781 6.09375,7.39844 C5.82292,7.78906 5.6875,8.34896 5.6875,9.07813 C5.6875,9.79688 5.82031,10.349 6.08594,10.7344 C6.35156,11.1198 6.73958,11.3125 7.25,11.3125 C7.85417,11.3125 8.29167,11.1536 8.5625,10.8359 C8.83333,10.5182 8.96875,10.0052 8.96875,9.29688 L8.96875,9.0625 C8.96875,8.26042 8.82813,7.6849 8.54688,7.33594 C8.26563,6.98698 7.82813,6.8125 7.23438,6.8125 M14.5625,6 C15.2917,6 15.8776,6.2526 16.3203,6.75781 C16.763,7.26302 16.9844,8.02604 16.9844,9.04688 C16.9844,10.0469 16.763,10.8073 16.3203,11.3281 C15.8776,11.849 15.2917,12.1094 14.5625,12.1094 C14.1042,12.1094 13.7266,12.0234 13.4297,11.8516 C13.1328,11.6797 12.901,11.4792 12.7344,11.25 L12.6719,11.25 C12.6823,11.375 12.6953,11.5339 12.7109,11.7266 C12.7266,11.9193 12.7344,12.0833 12.7344,12.2188 L12.7344,14.6406 L11.7656,14.6406 L11.7656,6.10938 L12.5625,6.10938 L12.6875,6.90625 L12.7344,6.90625 C12.9115,6.64583 13.1432,6.42969 13.4297,6.25781 C13.7161,6.08594 14.0938,6 14.5625,6 M14.3906,6.8125 C13.7865,6.8125 13.362,6.97917 13.1172,7.3125 C12.8724,7.64583 12.7448,8.16146 12.7344,8.85938 L12.7344,9.04688 C12.7344,9.76563 12.8542,10.3229 13.0938,10.7188 C13.3333,11.1146 13.776,11.3125 14.4219,11.3125 C14.776,11.3125 15.0677,11.2135 15.2969,11.0156 C15.526,10.8177 15.6979,10.5469 15.8125,10.2031 C15.9271,9.85938 15.9844,9.46875 15.9844,9.03125 C15.9844,8.35417 15.8542,7.8151 15.5938,7.41406 C15.3333,7.01302 14.9323,6.8125 14.3906,6.8125 M22.3594,10.375 C22.3594,10.9479 22.1458,11.3802 21.7188,11.6719 C21.2917,11.9635 20.7188,12.1094 20,12.1094 C19.5833,12.1094 19.2266,12.0755 18.9297,12.0078 C18.6328,11.9401 18.375,11.849 18.1563,11.7344 L18.1563,10.8594 C18.3854,10.974 18.6667,11.0807 19,11.1797 C19.3333,11.2786 19.6719,11.3281 20.0156,11.3281 C20.5052,11.3281 20.862,11.25 21.0859,11.0938 C21.3099,10.9375 21.4219,10.724 21.4219,10.4531 C21.4219,10.3073 21.3802,10.1771 21.2969,10.0625 C21.2135,9.94792 21.0677,9.83073 20.8594,9.71094 C20.651,9.59115 20.3542,9.45833 19.9688,9.3125 C19.5833,9.16667 19.2552,9.02083 18.9844,8.875 C18.7135,8.72917 18.5052,8.55469 18.3594,8.35156 C18.2135,8.14844 18.1406,7.88542 18.1406,7.5625 C18.1406,7.0625 18.3438,6.67708 18.75,6.40625 C19.1563,6.13542 19.6875,6 20.3438,6 C20.7083,6 21.0469,6.03385 21.3594,6.10156 C21.6719,6.16927 21.9635,6.26563 22.2344,6.39063 L21.9063,7.15625 C21.6563,7.05208 21.3958,6.96354 21.125,6.89063 C20.8542,6.81771 20.5729,6.78125 20.2813,6.78125 C19.8854,6.78125 19.5833,6.84635 19.375,6.97656 C19.1667,7.10677 19.0625,7.28125 19.0625,7.5 C19.0625,7.66667 19.1094,7.80469 19.2031,7.91406 C19.2969,8.02344 19.4557,8.13281 19.6797,8.24219 C19.9036,8.35156 20.2031,8.47917 20.5781,8.625 C20.9531,8.76042 21.2734,8.90104 21.5391,9.04688 C21.8047,9.19271 22.0078,9.3724 22.1484,9.58594 C22.2891,9.79948 22.3594,10.0625 22.3594,10.375 "/>
</g>

<g fill="none" stroke="#000000" stroke-opacity="1" stroke-width="1" stroke-linecap="square" stroke-linejoin="bevel" transform="matrix(2,0,0,2,39.5507,128)"
font-family="sans" font-size="11" font-weight="100" font-style="normal" 
>
</g>

<g fill="none" stroke="#000000" stroke-opacity="1" stroke-width="1" stroke-linecap="square" stroke-linejoin="bevel" transform="matrix(2,0,0,2,39.5507,128)"
font-family="Ubuntu" font-size="10" font-weight="400" font-style="normal" 
>
</g>

<g fill="none" stroke="#000000" stroke-opacity="1" stroke-width="1" stroke-linecap="square" stroke-linejoin="bevel" transform="matrix(2,0,0,2,0.00048,180)"
font-family="Ubuntu" font-size="10" font-weight="400" font-style="normal" 
>
</g>

<g fill="none" stroke="#000000" stroke-opacity="1" stroke-width="1" stroke-linecap="square" stroke-linejoin="bevel" transform="matrix(2,0,0,2,0.00048,180)"
font-family="Ubuntu" font-size="10" font-weight="400" font-style="normal" 
>
</g>

<g fill="none" stroke="#000000" stroke-opacity="1" stroke-width="1" stroke-linecap="square" stroke-linejoin="bevel" transform="matrix(2,0,0,2,0.00048,180)"
font-family="Ubuntu" font-size="10" font-weight="400" font-style="normal" 
>
</g>

<g fill="none" stroke="#000000" stroke-opacity="1" stroke-width="1" stroke-linecap="square" stroke-linejoin="round" transform="matrix(2,0,0,2,0.00048,180)"
font-family="Ubuntu" font-size="10" font-weight="400" font-style="normal" 
>
<ellipse cx="31.197" cy="-72" rx="30.6972" ry="17.5"/>
</g>

<g fill="none" stroke="#000000" stroke-opacity="1" stroke-width="1" stroke-linecap="square" stroke-linejoin="bevel" transform="matrix(2,0,0,2,0.00048,180)"
font-family="Ubuntu" font-size="10" font-weight="400" font-style="normal" 
>
</g>

<g fill="none" stroke="#000000" stroke-opacity="1" stroke-width="1" stroke-linecap="square" stroke-linejoin="bevel" transform="matrix(2,0,0,2,38.4101,20)"
font-family="Ubuntu" font-size="10" font-weight="400" font-style="normal" 
>
</g>

<g fill="none" stroke="#000000" stroke-opacity="1" stroke-width="1" stroke-linecap="square" stroke-linejoin="bevel" transform="matrix(2,0,0,2,38.4101,20)"
font-family="sans" font-size="11" font-weight="100" font-style="normal" 
>
</g>

<g fill="#000000" fill-opacity="1" stroke="#000000" stroke-opacity="1" stroke-width="1" stroke-linecap="square" stroke-linejoin="round" transform="matrix(2,0,0,2,38.4101,20)"
font-family="sans" font-size="11" font-weight="100" font-style="normal" 
>
<path vector-effect="none" fill-rule="nonzero" d="M3.98438,4.14063 L1.0625,12 L0.109375,12 L3.03125,4.14063 L3.98438,4.14063 M5.51563,3.89063 C5.66146,3.89063 5.78906,3.9401 5.89844,4.03906 C6.00781,4.13802 6.0625,4.29688 6.0625,4.51563 C6.0625,4.71354 6.00781,4.86458 5.89844,4.96875 C5.78906,5.07292 5.66146,5.125 5.51563,5.125 C5.34896,5.125 5.21094,5.07292 5.10156,4.96875 C4.99219,4.86458 4.9375,4.71354 4.9375,4.51563 C4.9375,4.29688 4.99219,4.13802 5.10156,4.03906 C5.21094,3.9401 5.34896,3.89063 5.51563,3.89063 M5.98438,6.10938 L5.98438,12 L5.01563,12 L5.01563,6.10938 L5.98438,6.10938 M14.3125,6 C14.9792,6 15.4766,6.16927 15.8047,6.50781 C16.1328,6.84635 16.2969,7.39583 16.2969,8.15625 L16.2969,12 L15.3438,12 L15.3438,8.20313 C15.3438,7.27604 14.9427,6.8125 14.1406,6.8125 C13.5677,6.8125 13.1589,6.97656 12.9141,7.30469 C12.6693,7.63281 12.5469,8.11458 12.5469,8.75 L12.5469,12 L11.5938,12 L11.5938,8.20313 C11.5938,7.27604 11.1875,6.8125 10.375,6.8125 C9.78125,6.8125 9.3724,6.99479 9.14844,7.35938 C8.92448,7.72396 8.8125,8.25 8.8125,8.9375 L8.8125,12 L7.84375,12 L7.84375,6.10938 L8.625,6.10938 L8.76563,6.90625 L8.82813,6.90625 C9.00521,6.59375 9.25,6.36458 9.5625,6.21875 C9.875,6.07292 10.2083,6 10.5625,6 C11.4792,6 12.0781,6.32813 12.3594,6.98438 L12.4219,6.98438 C12.6198,6.65104 12.888,6.40365 13.2266,6.24219 C13.5651,6.08073 13.9271,6 14.3125,6 M23.0469,6.10938 L23.0469,12 L22.2656,12 L22.1094,11.2188 L22.0781,11.2188 C21.8802,11.5313 21.6146,11.7578 21.2813,11.8984 C20.9479,12.0391 20.5885,12.1094 20.2031,12.1094 C19.4948,12.1094 18.9609,11.9401 18.6016,11.6016 C18.2422,11.263 18.0625,10.7188 18.0625,9.96875 L18.0625,6.10938 L19.0313,6.10938 L19.0313,9.90625 C19.0313,10.8438 19.4688,11.3125 20.3438,11.3125 C21,11.3125 21.4531,11.1276 21.7031,10.7578 C21.9531,10.388 22.0781,9.85938 22.0781,9.17188 L22.0781,6.10938 L23.0469,6.10938"/>
</g>

<g fill="none" stroke="#000000" stroke-opacity="1" stroke-width="1" stroke-linecap="square" stroke-linejoin="bevel" transform="matrix(2,0,0,2,38.4101,20)"
font-family="sans" font-size="11" font-weight="100" font-style="normal" 
>
</g>

<g fill="none" stroke="#000000" stroke-opacity="1" stroke-width="1" stroke-linecap="square" stroke-linejoin="bevel" transform="matrix(2,0,0,2,38.4101,20)"
font-family="Ubuntu" font-size="10" font-weight="400" font-style="normal" 
>
</g>

<g fill="none" stroke="#000000" stroke-opacity="1" stroke-width="1" stroke-linecap="square" stroke-linejoin="bevel" transform="matrix(2,0,0,2,0.00048,180)"
font-family="Ubuntu" font-size="10" font-weight="400" font-style="normal" 
>
</g>

<g fill="none" stroke="#000000" stroke-opacity="1" stroke-width="1" stroke-linecap="square" stroke-linejoin="bevel" transform="matrix(2,0,0,2,0.00048,180)"
font-family="Ubuntu" font-size="10" font-weight="400" font-style="normal" 
>
</g>

<g fill="none" stroke="#000000" stroke-opacity="1" stroke-width="1" stroke-linecap="square" stroke-linejoin="bevel" transform="matrix(2,0,0,2,0.00048,180)"
font-family="Ubuntu" font-size="10" font-weight="400" font-style="normal" 
>
</g>

<g fill="none" stroke="#000000" stroke-opacity="1" stroke-width="1" stroke-linecap="square" stroke-linejoin="round" transform="matrix(2,0,0,2,0.00048,180)"
font-family="Ubuntu" font-size="10" font-weight="400" font-style="normal" 
>
<path vector-effect="none" fill-rule="evenodd" d="M130.5,-72 C134.27,-72 138.3,-72 142.5,-72 "/>
</g>

<g fill="none" stroke="#000000" stroke-opacity="1" stroke-width="1" stroke-linecap="square" stroke-linejoin="bevel" transform="matrix(2,0,0,2,0.00048,180)"
font-family="Ubuntu" font-size="10" font-weight="400" font-style="normal" 
>
</g>

<g fill="none" stroke="#000000" stroke-opacity="1" stroke-width="1" stroke-linecap="square" stroke-linejoin="bevel" transform="matrix(2,0,0,2,0.00048,180)"
font-family="Ubuntu" font-size="10" font-weight="400" font-style="normal" 
>
</g>

<g fill="#000000" fill-opacity="1" stroke="#000000" stroke-opacity="1" stroke-width="1" stroke-linecap="square" stroke-linejoin="round" transform="matrix(2,0,0,2,0.00048,180)"
font-family="Ubuntu" font-size="10" font-weight="400" font-style="normal" 
>
<path vector-effect="none" fill-rule="evenodd" d="M142.5,-72 L142.5,-68.486 L152.54,-72 L142.5,-75.514 L142.5,-72"/>
</g>

<g fill="none" stroke="#000000" stroke-opacity="1" stroke-width="1" stroke-linecap="square" stroke-linejoin="bevel" transform="matrix(2,0,0,2,0.00048,180)"
font-family="Ubuntu" font-size="10" font-weight="400" font-style="normal" 
>
</g>

<g fill="none" stroke="#000000" stroke-opacity="1" stroke-width="1" stroke-linecap="square" stroke-linejoin="bevel" transform="matrix(2,0,0,2,0.00048,180)"
font-family="Ubuntu" font-size="10" font-weight="400" font-style="normal" 
>
</g>

<g fill="none" stroke="#000000" stroke-opacity="1" stroke-width="1" stroke-linecap="square" stroke-linejoin="bevel" transform="matrix(2,0,0,2,0.00048,180)"
font-family="Ubuntu" font-size="10" font-weight="400" font-style="normal" 
>
</g>

<g fill="none" stroke="#000000" stroke-opacity="1" stroke-width="1" stroke-linecap="square" stroke-linejoin="bevel" transform="matrix(2,0,0,2,0.00048,180)"
font-family="Ubuntu" font-size="10" font-weight="400" font-style="normal" 
>
</g>

<g fill="none" stroke="#000000" stroke-opacity="1" stroke-width="1" stroke-linecap="square" stroke-linejoin="round" transform="matrix(2,0,0,2,0.00048,180)"
font-family="Ubuntu" font-size="10" font-weight="400" font-style="normal" 
>
<path vector-effect="none" fill-rule="evenodd" d="M129.17,-53.809 C134.08,-50.632 139.29,-47.538 144.39,-45 C150.99,-41.718 158.09,-38.673 165.22,-35.903 "/>
</g>

<g fill="none" stroke="#000000" stroke-opacity="1" stroke-width="1" stroke-linecap="square" stroke-linejoin="bevel" transform="matrix(2,0,0,2,0.00048,180)"
font-family="Ubuntu" font-size="10" font-weight="400" font-style="normal" 
>
</g>

<g fill="none" stroke="#000000" stroke-opacity="1" stroke-width="1" stroke-linecap="square" stroke-linejoin="bevel" transform="matrix(2,0,0,2,0.00048,180)"
font-family="Ubuntu" font-size="10" font-weight="400" font-style="normal" 
>
</g>

<g fill="#000000" fill-opacity="1" stroke="#000000" stroke-opacity="1" stroke-width="1" stroke-linecap="square" stroke-linejoin="round" transform="matrix(2,0,0,2,0.00048,180)"
font-family="Ubuntu" font-size="10" font-weight="400" font-style="normal" 
>
<path vector-effect="none" fill-rule="evenodd" d="M165.22,-35.903 L163.958,-32.508 L174.92,-32.297 L166.482,-39.298 L165.22,-35.903"/>
</g>

<g fill="none" stroke="#000000" stroke-opacity="1" stroke-width="1" stroke-linecap="square" stroke-linejoin="bevel" transform="matrix(2,0,0,2,0.00048,180)"
font-family="Ubuntu" font-size="10" font-weight="400" font-style="normal" 
>
</g>

<g fill="none" stroke="#000000" stroke-opacity="1" stroke-width="1" stroke-linecap="square" stroke-linejoin="bevel" transform="matrix(2,0,0,2,0.00048,180)"
font-family="Ubuntu" font-size="10" font-weight="400" font-style="normal" 
>
</g>

<g fill="none" stroke="#000000" stroke-opacity="1" stroke-width="1" stroke-linecap="square" stroke-linejoin="bevel" transform="matrix(2,0,0,2,0.00048,180)"
font-family="Ubuntu" font-size="10" font-weight="400" font-style="normal" 
>
</g>

<g fill="none" stroke="#000000" stroke-opacity="1" stroke-width="1" stroke-linecap="square" stroke-linejoin="bevel" transform="matrix(2,0,0,2,0.00048,180)"
font-family="Ubuntu" font-size="10" font-weight="400" font-style="normal" 
>
</g>

<g fill="none" stroke="#000000" stroke-opacity="1" stroke-width="1" stroke-linecap="square" stroke-linejoin="round" transform="matrix(2,0,0,2,0.00048,180)"
font-family="Ubuntu" font-size="10" font-weight="400" font-style="normal" 
>
<path vector-effect="none" fill-rule="evenodd" d="M129.17,-36.191 C134.08,-39.368 139.29,-42.462 144.39,-45 C151.68,-48.624 159.57,-51.957 167.44,-54.953 "/>
</g>

<g fill="none" stroke="#000000" stroke-opacity="1" stroke-width="1" stroke-linecap="square" stroke-linejoin="bevel" transform="matrix(2,0,0,2,0.00048,180)"
font-family="Ubuntu" font-size="10" font-weight="400" font-style="normal" 
>
</g>

<g fill="none" stroke="#000000" stroke-opacity="1" stroke-width="1" stroke-linecap="square" stroke-linejoin="bevel" transform="matrix(2,0,0,2,0.00048,180)"
font-family="Ubuntu" font-size="10" font-weight="400" font-style="normal" 
>
</g>

<g fill="#000000" fill-opacity="1" stroke="#000000" stroke-opacity="1" stroke-width="1" stroke-linecap="square" stroke-linejoin="round" transform="matrix(2,0,0,2,0.00048,180)"
font-family="Ubuntu" font-size="10" font-weight="400" font-style="normal" 
>
<path vector-effect="none" fill-rule="evenodd" d="M167.44,-54.953 L168.659,-51.607 L177,-58.436 L166.221,-58.299 L167.44,-54.953"/>
</g>

<g fill="none" stroke="#000000" stroke-opacity="1" stroke-width="1" stroke-linecap="square" stroke-linejoin="bevel" transform="matrix(2,0,0,2,0.00048,180)"
font-family="Ubuntu" font-size="10" font-weight="400" font-style="normal" 
>
</g>

<g fill="none" stroke="#000000" stroke-opacity="1" stroke-width="1" stroke-linecap="square" stroke-linejoin="bevel" transform="matrix(2,0,0,2,0.00048,180)"
font-family="Ubuntu" font-size="10" font-weight="400" font-style="normal" 
>
</g>

<g fill="none" stroke="#000000" stroke-opacity="1" stroke-width="1" stroke-linecap="square" stroke-linejoin="bevel" transform="matrix(2,0,0,2,0.00048,180)"
font-family="Ubuntu" font-size="10" font-weight="400" font-style="normal" 
>
</g>

<g fill="none" stroke="#000000" stroke-opacity="1" stroke-width="1" stroke-linecap="square" stroke-linejoin="bevel" transform="matrix(2,0,0,2,0.00048,180)"
font-family="Ubuntu" font-size="10" font-weight="400" font-style="normal" 
>
</g>

<g fill="none" stroke="#000000" stroke-opacity="1" stroke-width="1" stroke-linecap="square" stroke-linejoin="round" transform="matrix(2,0,0,2,0.00048,180)"
font-family="Ubuntu" font-size="10" font-weight="400" font-style="normal" 
>
<path vector-effect="none" fill-rule="evenodd" d="M130.5,-18 C131.56,-18 132.64,-18 133.74,-18 "/>
</g>

<g fill="none" stroke="#000000" stroke-opacity="1" stroke-width="1" stroke-linecap="square" stroke-linejoin="bevel" transform="matrix(2,0,0,2,0.00048,180)"
font-family="Ubuntu" font-size="10" font-weight="400" font-style="normal" 
>
</g>

<g fill="none" stroke="#000000" stroke-opacity="1" stroke-width="1" stroke-linecap="square" stroke-linejoin="bevel" transform="matrix(2,0,0,2,0.00048,180)"
font-family="Ubuntu" font-size="10" font-weight="400" font-style="normal" 
>
</g>

<g fill="#000000" fill-opacity="1" stroke="#000000" stroke-opacity="1" stroke-width="1" stroke-linecap="square" stroke-linejoin="round" transform="matrix(2,0,0,2,0.00048,180)"
font-family="Ubuntu" font-size="10" font-weight="400" font-style="normal" 
>
<path vector-effect="none" fill-rule="evenodd" d="M133.74,-18 L133.74,-14.381 L144.08,-18 L133.74,-21.619 L133.74,-18"/>
</g>

<g fill="none" stroke="#000000" stroke-opacity="1" stroke-width="1" stroke-linecap="square" stroke-linejoin="bevel" transform="matrix(2,0,0,2,0.00048,180)"
font-family="Ubuntu" font-size="10" font-weight="400" font-style="normal" 
>
</g>

<g fill="none" stroke="#000000" stroke-opacity="1" stroke-width="1" stroke-linecap="square" stroke-linejoin="bevel" transform="matrix(2,0,0,2,0.00048,180)"
font-family="Ubuntu" font-size="10" font-weight="400" font-style="normal" 
>
</g>

<g fill="none" stroke="#000000" stroke-opacity="1" stroke-width="1" stroke-linecap="square" stroke-linejoin="bevel" transform="matrix(2,0,0,2,0.00048,180)"
font-family="Ubuntu" font-size="10" font-weight="400" font-style="normal" 
>
</g>

<g fill="none" stroke="#000000" stroke-opacity="1" stroke-width="1" stroke-linecap="square" stroke-linejoin="bevel" transform="matrix(2,0,0,2,0.00048,180)"
font-family="Ubuntu" font-size="10" font-weight="400" font-style="normal" 
>
</g>

<g fill="none" stroke="#000000" stroke-opacity="1" stroke-width="1" stroke-linecap="square" stroke-linejoin="round" transform="matrix(2,0,0,2,0.00048,180)"
font-family="Ubuntu" font-size="10" font-weight="400" font-style="normal" 
>
<path vector-effect="none" fill-rule="evenodd" d="M61.967,-18 C63.312,-18 64.668,-18 66.027,-18 "/>
</g>

<g fill="none" stroke="#000000" stroke-opacity="1" stroke-width="1" stroke-linecap="square" stroke-linejoin="bevel" transform="matrix(2,0,0,2,0.00048,180)"
font-family="Ubuntu" font-size="10" font-weight="400" font-style="normal" 
>
</g>

<g fill="none" stroke="#000000" stroke-opacity="1" stroke-width="1" stroke-linecap="square" stroke-linejoin="bevel" transform="matrix(2,0,0,2,0.00048,180)"
font-family="Ubuntu" font-size="10" font-weight="400" font-style="normal" 
>
</g>

<g fill="#000000" fill-opacity="1" stroke="#000000" stroke-opacity="1" stroke-width="1" stroke-linecap="square" stroke-linejoin="round" transform="matrix(2,0,0,2,0.00048,180)"
font-family="Ubuntu" font-size="10" font-weight="400" font-style="normal" 
>
<path vector-effect="none" fill-rule="evenodd" d="M66.027,-18 L66.027,-14.3852 L76.355,-18 L66.027,-21.6148 L66.027,-18"/>
</g>

<g fill="none" stroke="#000000" stroke-opacity="1" stroke-width="1" stroke-linecap="square" stroke-linejoin="bevel" transform="matrix(2,0,0,2,0.00048,180)"
font-family="Ubuntu" font-size="10" font-weight="400" font-style="normal" 
>
</g>

<g fill="none" stroke="#000000" stroke-opacity="1" stroke-width="1" stroke-linecap="square" stroke-linejoin="bevel" transform="matrix(2,0,0,2,0.00048,180)"
font-family="Ubuntu" font-size="10" font-weight="400" font-style="normal" 
>
</g>

<g fill="none" stroke="#000000" stroke-opacity="1" stroke-width="1" stroke-linecap="square" stroke-linejoin="bevel" transform="matrix(2,0,0,2,0.00048,180)"
font-family="Ubuntu" font-size="10" font-weight="400" font-style="normal" 
>
</g>

<g fill="none" stroke="#000000" stroke-opacity="1" stroke-width="1" stroke-linecap="square" stroke-linejoin="bevel" transform="matrix(2,0,0,2,0.00048,180)"
font-family="Ubuntu" font-size="10" font-weight="400" font-style="normal" 
>
</g>

<g fill="none" stroke="#000000" stroke-opacity="1" stroke-width="1" stroke-linecap="square" stroke-linejoin="round" transform="matrix(2,0,0,2,0.00048,180)"
font-family="Ubuntu" font-size="10" font-weight="400" font-style="normal" 
>
<path vector-effect="none" fill-rule="evenodd" d="M62.783,-72 C63.752,-72 64.727,-72 65.703,-72 "/>
</g>

<g fill="none" stroke="#000000" stroke-opacity="1" stroke-width="1" stroke-linecap="square" stroke-linejoin="bevel" transform="matrix(2,0,0,2,0.00048,180)"
font-family="Ubuntu" font-size="10" font-weight="400" font-style="normal" 
>
</g>

<g fill="none" stroke="#000000" stroke-opacity="1" stroke-width="1" stroke-linecap="square" stroke-linejoin="bevel" transform="matrix(2,0,0,2,0.00048,180)"
font-family="Ubuntu" font-size="10" font-weight="400" font-style="normal" 
>
</g>

<g fill="#000000" fill-opacity="1" stroke="#000000" stroke-opacity="1" stroke-width="1" stroke-linecap="square" stroke-linejoin="round" transform="matrix(2,0,0,2,0.00048,180)"
font-family="Ubuntu" font-size="10" font-weight="400" font-style="normal" 
>
<path vector-effect="none" fill-rule="evenodd" d="M65.703,-72 L65.703,-68.3656 L76.087,-72 L65.703,-75.6344 L65.703,-72"/>
</g>

<g fill="none" stroke="#000000" stroke-opacity="1" stroke-width="1" stroke-linecap="square" stroke-linejoin="bevel" transform="matrix(2,0,0,2,0.00048,180)"
font-family="Ubuntu" font-size="10" font-weight="400" font-style="normal" 
>
</g>

<g fill="none" stroke="#000000" stroke-opacity="1" stroke-width="1" stroke-linecap="square" stroke-linejoin="bevel" transform="matrix(1,0,0,1,0,0)"
font-family="Ubuntu" font-size="10" font-weight="400" font-style="normal" 
>
</g>
</g>
</svg>
